SeanSans-CondensedBold.ufo
<glyph name="exclam" format="1">
  <advance width="250"/>
  <unicode hex="0021"/>
  <outline>
    <contour>
      <point x="182" y="229" type="line"/>
      <point x="191" y="722" type="line"/>
      <point x="60" y="722" type="line"/>
      <point x="68" y="229" type="line"/>
    </contour>
    <contour>
      <point x="185" y="50" type="curve"/>
      <point x="185" y="89"/>
      <point x="159" y="108"/>
      <point x="124" y="108" type="curve"/>
      <point x="88" y="108"/>
      <point x="65" y="87"/>
      <point x="65" y="50" type="curve"/>
      <point x="185" y="50"/>
      <point x="65" y="50"/>
      <point x="185" y="50" type="curve"/>
      <point x="185" y="10"/>
      <point x="160" y="-8"/>
      <point x="124" y="-8" type="curve"/>
      <point x="88" y="-8"/>
      <point x="65" y="12"/>
      <point x="65" y="50" type="curve"/>
      <point x="185" y="50"/>
      <point x="65" y="50"/>
    </contour>
  </outline>
</glyph>
<glyph name="quotedbl" format="1">
  <advance width="384"/>
  <unicode hex="0022"/>
  <outline>
    <contour>
      <point x="155" y="624" type="line"/>
      <point x="163" y="835" type="line"/>
      <point x="48" y="835" type="line"/>
      <point x="56" y="624" type="line"/>
    </contour>
    <contour>
      <point x="328" y="624" type="line"/>
      <point x="337" y="835" type="line"/>
      <point x="221" y="835" type="line"/>
      <point x="229" y="624" type="line"/>
    </contour>
  </outline>
</glyph>
<glyph name="numbersign" format="1">
  <advance width="549"/>
  <unicode hex="0023"/>
  <outline>
    <contour>
      <point x="36" y="224" type="curve"/>
      <point x="443" y="224" type="curve"/>
      <point x="465" y="314" type="curve"/>
      <point x="59" y="314" type="curve"/>
    </contour>
    <contour>
      <point x="85" y="444" type="curve"/>
      <point x="493" y="444" type="curve"/>
      <point x="515" y="533" type="curve"/>
      <point x="106" y="533" type="curve"/>
    </contour>
    <contour>
      <point x="354" y="39" type="curve"/>
      <point x="513" y="722" type="curve"/>
      <point x="399" y="722" type="curve"/>
      <point x="240" y="39" type="curve"/>
    </contour>
    <contour>
      <point x="150" y="46" type="curve"/>
      <point x="309" y="722" type="curve"/>
      <point x="195" y="722" type="curve"/>
      <point x="41" y="46" type="curve"/>
    </contour>
  </outline>
</glyph>
<glyph name="dollar" format="1">
  <advance width="464"/>
  <unicode hex="0024"/>
  <outline>
    <contour>
      <point x="273" y="-42" type="curve"/>
      <point x="273" y="-11"/>
      <point x="273" y="57"/>
      <point x="273" y="88" type="curve"/>
      <point x="159" y="88"/>
      <point x="273" y="88"/>
      <point x="159" y="88" type="curve"/>
      <point x="159" y="57"/>
      <point x="159" y="-11"/>
      <point x="159" y="-42" type="curve"/>
      <point x="273" y="-42"/>
      <point x="159" y="-42"/>
    </contour>
    <contour>
      <point x="281" y="642" type="curve"/>
      <point x="281" y="672"/>
      <point x="281" y="742"/>
      <point x="281" y="773" type="curve"/>
      <point x="167" y="773"/>
      <point x="281" y="773"/>
      <point x="167" y="773" type="curve"/>
      <point x="167" y="742"/>
      <point x="167" y="672"/>
      <point x="167" y="642" type="curve"/>
      <point x="281" y="642"/>
      <point x="167" y="642"/>
    </contour>
    <contour>
      <point x="44" y="93" type="curve"/>
      <point x="89" y="65"/>
      <point x="145" y="43"/>
      <point x="210" y="43" type="curve"/>
      <point x="337" y="43"/>
      <point x="431" y="110"/>
      <point x="431" y="215" type="curve"/>
      <point x="431" y="308"/>
      <point x="353" y="365"/>
      <point x="259" y="414" type="curve"/>
      <point x="201" y="445"/>
      <point x="155" y="469"/>
      <point x="155" y="526" type="curve"/>
      <point x="155" y="566"/>
      <point x="181" y="598"/>
      <point x="226" y="598" type="curve"/>
      <point x="271" y="598"/>
      <point x="301" y="583"/>
      <point x="338" y="559" type="curve"/>
      <point x="394" y="635"/>
      <point x="338" y="559"/>
      <point x="394" y="635" type="curve"/>
      <point x="342" y="669"/>
      <point x="296" y="687"/>
      <point x="230" y="687" type="curve"/>
      <point x="118" y="687"/>
      <point x="41" y="623"/>
      <point x="41" y="526" type="curve"/>
      <point x="41" y="434"/>
      <point x="102" y="380"/>
      <point x="192" y="333" type="curve"/>
      <point x="255" y="302"/>
      <point x="317" y="273"/>
      <point x="317" y="211" type="curve"/>
      <point x="317" y="163"/>
      <point x="276" y="132"/>
      <point x="221" y="132" type="curve"/>
      <point x="175" y="132"/>
      <point x="138" y="154"/>
      <point x="107" y="172" type="curve"/>
      <point x="44" y="93"/>
      <point x="107" y="172"/>
    </contour>
  </outline>
</glyph>
<glyph name="percent" format="1">
  <advance width="930"/>
  <unicode hex="0025"/>
  <outline>
    <contour>
      <point x="364" y="-49" type="line"/>
      <point x="679" y="719" type="line"/>
      <point x="574" y="719" type="line"/>
      <point x="259" y="-49" type="line"/>
    </contour>
    <contour>
      <point x="125" y="509" type="curve"/>
      <point x="125" y="582"/>
      <point x="139" y="642"/>
      <point x="203" y="642" type="curve"/>
      <point x="267" y="643"/>
      <point x="282" y="582"/>
      <point x="282" y="507" type="curve"/>
      <point x="282" y="434"/>
      <point x="272" y="370"/>
      <point x="208" y="370" type="curve"/>
      <point x="141" y="370"/>
      <point x="125" y="432"/>
      <point x="125" y="509" type="curve"/>
      <point x="90" y="509"/>
      <point x="65" y="509"/>
      <point x="29" y="509" type="curve"/>
      <point x="29" y="382"/>
      <point x="85" y="290"/>
      <point x="204" y="290" type="curve"/>
      <point x="324" y="290"/>
      <point x="382" y="383"/>
      <point x="382" y="511" type="curve"/>
      <point x="382" y="636"/>
      <point x="324" y="723"/>
      <point x="207" y="723" type="curve"/>
      <point x="88" y="723"/>
      <point x="29" y="634"/>
      <point x="29" y="509" type="curve"/>
      <point x="65" y="509"/>
      <point x="90" y="509"/>
    </contour>
    <contour>
      <point x="644" y="168" type="curve"/>
      <point x="644" y="241"/>
      <point x="658" y="302"/>
      <point x="722" y="302" type="curve"/>
      <point x="786" y="303"/>
      <point x="801" y="241"/>
      <point x="801" y="167" type="curve"/>
      <point x="801" y="93"/>
      <point x="791" y="29"/>
      <point x="728" y="29" type="curve"/>
      <point x="661" y="29"/>
      <point x="644" y="92"/>
      <point x="644" y="168" type="curve"/>
      <point x="609" y="168"/>
      <point x="584" y="168"/>
      <point x="549" y="168" type="curve"/>
      <point x="549" y="41"/>
      <point x="605" y="-51"/>
      <point x="723" y="-51" type="curve"/>
      <point x="843" y="-51"/>
      <point x="901" y="42"/>
      <point x="901" y="171" type="curve"/>
      <point x="901" y="295"/>
      <point x="844" y="383"/>
      <point x="727" y="382" type="curve"/>
      <point x="608" y="382"/>
      <point x="549" y="293"/>
      <point x="549" y="168" type="curve"/>
      <point x="584" y="168"/>
      <point x="609" y="168"/>
    </contour>
  </outline>
</glyph>
<glyph name="ampersand" format="1">
  <advance width="580"/>
  <unicode hex="0026"/>
  <outline>
    <contour>
      <point x="552" y="35" type="line"/>
      <point x="475" y="137"/>
      <point x="388" y="266"/>
      <point x="306" y="371" type="curve"/>
      <point x="263" y="430"/>
      <point x="205" y="481"/>
      <point x="205" y="556" type="curve"/>
      <point x="205" y="597"/>
      <point x="214" y="638"/>
      <point x="250" y="638" type="curve"/>
      <point x="287" y="638"/>
      <point x="298" y="601"/>
      <point x="298" y="558" type="curve"/>
      <point x="298" y="493"/>
      <point x="262" y="450"/>
      <point x="208" y="412" type="curve"/>
      <point x="122" y="351"/>
      <point x="49" y="298"/>
      <point x="49" y="195" type="curve"/>
      <point x="49" y="77"/>
      <point x="126" y="-5"/>
      <point x="244" y="-5" type="curve"/>
      <point x="414" y="-5"/>
      <point x="488" y="139"/>
      <point x="532" y="313" type="curve"/>
      <point x="434" y="336"/>
      <point x="532" y="313"/>
      <point x="434" y="336" type="curve"/>
      <point x="401" y="207"/>
      <point x="370" y="85"/>
      <point x="249" y="85" type="curve"/>
      <point x="192" y="85"/>
      <point x="163" y="133"/>
      <point x="163" y="195" type="curve"/>
      <point x="163" y="261"/>
      <point x="202" y="301"/>
      <point x="256" y="341" type="curve"/>
      <point x="340" y="401"/>
      <point x="411" y="456"/>
      <point x="412" y="558" type="curve"/>
      <point x="412" y="658"/>
      <point x="351" y="727"/>
      <point x="254" y="727" type="curve"/>
      <point x="157" y="727"/>
      <point x="99" y="656"/>
      <point x="99" y="556" type="curve"/>
      <point x="99" y="458"/>
      <point x="165" y="394"/>
      <point x="225" y="317" type="curve"/>
      <point x="301" y="216"/>
      <point x="396" y="79"/>
      <point x="468" y="-18" type="curve"/>
    </contour>
  </outline>
</glyph>
<glyph name="parenleft" format="1">
  <advance width="311"/>
  <unicode hex="0028"/>
  <outline>
    <contour>
      <point x="309" y="-212" type="curve"/>
      <point x="181" y="-41"/>
      <point x="150" y="113"/>
      <point x="150" y="326" type="curve"/>
      <point x="150" y="540"/>
      <point x="183" y="694"/>
      <point x="308" y="867" type="curve"/>
      <point x="240" y="924"/>
      <point x="308" y="867"/>
      <point x="240" y="924" type="curve"/>
      <point x="96" y="732"/>
      <point x="39" y="567"/>
      <point x="39" y="326" type="curve"/>
      <point x="39" y="84"/>
      <point x="97" y="-81"/>
      <point x="241" y="-274" type="curve"/>
      <point x="309" y="-212"/>
      <point x="241" y="-274"/>
    </contour>
  </outline>
</glyph>
<glyph name="asterisk" format="1">
  <advance width="552"/>
  <unicode hex="002A"/>
  <outline>
    <contour>
      <point x="311" y="557" type="line"/>
      <point x="317" y="767" type="line"/>
      <point x="234" y="767" type="line"/>
      <point x="240" y="557" type="line"/>
    </contour>
    <contour>
      <point x="305" y="510" type="line"/>
      <point x="505" y="575" type="line"/>
      <point x="477" y="653" type="line"/>
      <point x="281" y="577" type="line"/>
    </contour>
    <contour>
      <point x="259" y="500" type="line"/>
      <point x="388" y="332" type="line"/>
      <point x="451" y="386" type="line"/>
      <point x="314" y="545" type="line"/>
    </contour>
    <contour>
      <point x="237" y="546" type="line"/>
      <point x="99" y="386" type="line"/>
      <point x="163" y="333" type="line"/>
      <point x="292" y="501" type="line"/>
    </contour>
    <contour>
      <point x="270" y="577" type="line"/>
      <point x="73" y="653" type="line"/>
      <point x="45" y="575" type="line"/>
      <point x="245" y="510" type="line"/>
    </contour>
  </outline>
</glyph>
<glyph name="comma" format="1">
  <advance width="194"/>
  <unicode hex="002C"/>
  <outline>
    <contour>
      <point x="16" y="-115" type="line"/>
      <point x="96" y="-109"/>
      <point x="149" y="-49"/>
      <point x="149" y="43" type="curve"/>
      <point x="149" y="115"/>
      <point x="122" y="154"/>
      <point x="82" y="154" type="curve"/>
      <point x="46" y="154"/>
      <point x="22" y="134"/>
      <point x="22" y="95" type="curve"/>
      <point x="22" y="64"/>
      <point x="39" y="40"/>
      <point x="71" y="39" type="curve"/>
      <point x="71" y="13"/>
      <point x="67" y="-37"/>
      <point x="12" y="-52" type="curve"/>
    </contour>
  </outline>
</glyph>
<glyph name="period" format="1">
  <advance width="223"/>
  <unicode hex="002E"/>
  <outline>
    <contour>
      <point x="172" y="50" type="curve"/>
      <point x="172" y="89"/>
      <point x="146" y="108"/>
      <point x="111" y="108" type="curve"/>
      <point x="75" y="108"/>
      <point x="51" y="87"/>
      <point x="51" y="50" type="curve"/>
      <point x="172" y="50"/>
      <point x="51" y="50"/>
      <point x="172" y="50" type="curve"/>
      <point x="172" y="10"/>
      <point x="147" y="-8"/>
      <point x="111" y="-8" type="curve"/>
      <point x="74" y="-8"/>
      <point x="51" y="12"/>
      <point x="51" y="50" type="curve"/>
      <point x="172" y="50"/>
      <point x="51" y="50"/>
    </contour>
  </outline>
</glyph>
<glyph name="slash" format="1">
  <advance width="470"/>
  <unicode hex="002F"/>
  <outline>
    <contour>
      <point x="135" y="-26" type="curve"/>
      <point x="239" y="248"/>
      <point x="345" y="523"/>
      <point x="449" y="797" type="curve"/>
      <point x="335" y="797"/>
      <point x="449" y="797"/>
      <point x="335" y="797" type="curve"/>
      <point x="231" y="523"/>
      <point x="126" y="248"/>
      <point x="21" y="-26" type="curve"/>
      <point x="135" y="-26"/>
      <point x="21" y="-26"/>
    </contour>
  </outline>
</glyph>
<glyph name="zero" format="1">
  <advance width="583"/>
  <unicode hex="0030"/>
  <outline>
    <contour>
      <point x="160" y="360" type="curve"/>
      <point x="160" y="509"/>
      <point x="177" y="634"/>
      <point x="288" y="634" type="curve"/>
      <point x="403" y="634"/>
      <point x="424" y="511"/>
      <point x="424" y="363" type="curve"/>
      <point x="424" y="214"/>
      <point x="407" y="88"/>
      <point x="297" y="88" type="curve"/>
      <point x="182" y="88"/>
      <point x="160" y="211"/>
      <point x="160" y="360" type="curve"/>
      <point x="48" y="360"/>
      <point x="159" y="360"/>
      <point x="48" y="360" type="curve"/>
      <point x="48" y="152"/>
      <point x="111" y="-5"/>
      <point x="292" y="-5" type="curve"/>
      <point x="473" y="-5"/>
      <point x="535" y="153"/>
      <point x="535" y="363" type="curve"/>
      <point x="535" y="570"/>
      <point x="476" y="727"/>
      <point x="299" y="727" type="curve"/>
      <point x="115" y="727"/>
      <point x="48" y="570"/>
      <point x="48" y="360" type="curve"/>
      <point x="159" y="360"/>
      <point x="48" y="360"/>
    </contour>
  </outline>
</glyph>
<glyph name="one" format="1">
  <advance width="341"/>
  <unicode hex="0031"/>
  <outline>
    <contour>
      <point x="79" y="492" type="curve"/>
      <point x="247" y="664"/>
      <point x="79" y="492"/>
      <point x="247" y="664" type="curve"/>
      <point x="163" y="722"/>
      <point x="247" y="664"/>
      <point x="163" y="722" type="curve"/>
      <point x="11" y="563"/>
      <point x="163" y="722"/>
      <point x="11" y="563" type="curve"/>
      <point x="79" y="492"/>
      <point x="11" y="563"/>
    </contour>
    <contour>
      <point x="274" y="0" type="curve"/>
      <point x="274" y="241"/>
      <point x="274" y="481"/>
      <point x="274" y="722" type="curve"/>
      <point x="163" y="722"/>
      <point x="274" y="722"/>
      <point x="163" y="722" type="curve"/>
      <point x="163" y="481"/>
      <point x="163" y="241"/>
      <point x="163" y="0" type="curve"/>
      <point x="274" y="0"/>
      <point x="163" y="0"/>
    </contour>
  </outline>
</glyph>
<glyph name="two" format="1">
  <advance width="470"/>
  <unicode hex="0032"/>
  <outline>
    <contour>
      <point x="38" y="0" type="curve"/>
      <point x="193" y="0"/>
      <point x="328" y="0"/>
      <point x="430" y="0" type="curve"/>
      <point x="430" y="89"/>
      <point x="430" y="0"/>
      <point x="430" y="89" type="curve"/>
      <point x="311" y="89"/>
      <point x="159" y="89"/>
      <point x="39" y="89" type="curve"/>
      <point x="38" y="0"/>
      <point x="39" y="89"/>
    </contour>
    <contour>
      <point x="119" y="529" type="curve"/>
      <point x="149" y="586"/>
      <point x="169" y="634"/>
      <point x="228" y="634" type="curve"/>
      <point x="289" y="634"/>
      <point x="309" y="580"/>
      <point x="309" y="508" type="curve"/>
      <point x="309" y="409"/>
      <point x="258" y="335"/>
      <point x="200" y="271" type="curve"/>
      <point x="146" y="209"/>
      <point x="96" y="152"/>
      <point x="39" y="89" type="curve"/>
      <point x="41" y="0"/>
      <point x="39" y="89"/>
      <point x="41" y="0" type="curve"/>
      <point x="154" y="59"/>
      <point x="214" y="136"/>
      <point x="274" y="206" type="curve"/>
      <point x="355" y="292"/>
      <point x="418" y="381"/>
      <point x="418" y="513" type="curve"/>
      <point x="418" y="643"/>
      <point x="357" y="727"/>
      <point x="233" y="727" type="curve"/>
      <point x="135" y="727"/>
      <point x="74" y="665"/>
      <point x="39" y="575" type="curve"/>
      <point x="119" y="529"/>
      <point x="39" y="575"/>
    </contour>
  </outline>
</glyph>
<glyph name="three" format="1">
  <advance width="455"/>
  <unicode hex="0033"/>
  <outline>
    <contour>
      <point x="36" y="59" type="curve"/>
      <point x="87" y="20"/>
      <point x="129" y="-5"/>
      <point x="193" y="-5" type="curve"/>
      <point x="329" y="-5"/>
      <point x="409" y="70"/>
      <point x="409" y="206" type="curve"/>
      <point x="409" y="329"/>
      <point x="300" y="403"/>
      <point x="129" y="403" type="curve"/>
      <point x="129" y="331"/>
      <point x="129" y="400"/>
      <point x="129" y="328" type="curve"/>
      <point x="230" y="328"/>
      <point x="299" y="277"/>
      <point x="299" y="202" type="curve"/>
      <point x="299" y="133"/>
      <point x="259" y="88"/>
      <point x="198" y="88" type="curve"/>
      <point x="159" y="88"/>
      <point x="131" y="102"/>
      <point x="98" y="126" type="curve"/>
      <point x="36" y="59"/>
      <point x="98" y="126"/>
    </contour>
    <contour>
      <point x="110" y="578" type="curve"/>
      <point x="125" y="602"/>
      <point x="153" y="634"/>
      <point x="191" y="634" type="curve"/>
      <point x="248" y="634"/>
      <point x="275" y="593"/>
      <point x="275" y="531" type="curve"/>
      <point x="275" y="466"/>
      <point x="217" y="420"/>
      <point x="129" y="420" type="curve"/>
      <point x="129" y="348"/>
      <point x="129" y="417"/>
      <point x="129" y="345" type="curve"/>
      <point x="278" y="345"/>
      <point x="384" y="415"/>
      <point x="384" y="534" type="curve"/>
      <point x="384" y="654"/>
      <point x="316" y="727"/>
      <point x="202" y="727" type="curve"/>
      <point x="128" y="727"/>
      <point x="67" y="683"/>
      <point x="37" y="634" type="curve"/>
      <point x="110" y="578"/>
      <point x="37" y="634"/>
    </contour>
  </outline>
</glyph>
<glyph name="four" format="1">
  <advance width="479"/>
  <unicode hex="0034"/>
  <outline>
    <contour>
      <point x="61" y="255" type="line"/>
      <point x="340" y="700" type="line"/>
      <point x="245" y="702" type="line"/>
      <point x="13" y="333" type="line"/>
    </contour>
    <contour>
      <point x="446" y="333" type="line"/>
      <point x="13" y="333" type="line"/>
      <point x="14" y="236" type="line"/>
      <point x="446" y="236" type="line"/>
    </contour>
    <contour>
      <point x="359" y="0" type="line"/>
      <point x="359" y="702" type="line"/>
      <point x="247" y="702" type="line"/>
      <point x="247" y="0" type="line"/>
    </contour>
  </outline>
</glyph>
<glyph name="five" format="1">
  <advance width="448"/>
  <unicode hex="0035"/>
  <outline>
    <contour>
      <point x="59" y="722" type="curve"/>
      <point x="59" y="624"/>
      <point x="59" y="517"/>
      <point x="59" y="385" type="curve"/>
      <point x="168" y="350"/>
      <point x="59" y="385"/>
      <point x="167" y="350" type="curve"/>
      <point x="167" y="442"/>
      <point x="167" y="542"/>
      <point x="167" y="633" type="curve"/>
      <point x="59" y="722"/>
      <point x="167" y="633"/>
    </contour>
    <contour>
      <point x="167" y="350" type="curve"/>
      <point x="176" y="359"/>
      <point x="194" y="369"/>
      <point x="217" y="369" type="curve"/>
      <point x="281" y="369"/>
      <point x="298" y="308"/>
      <point x="298" y="236" type="curve"/>
      <point x="298" y="159"/>
      <point x="268" y="88"/>
      <point x="201" y="88" type="curve"/>
      <point x="160" y="88"/>
      <point x="133" y="99"/>
      <point x="99" y="122" type="curve"/>
      <point x="42" y="43"/>
      <point x="99" y="122"/>
      <point x="42" y="43" type="curve"/>
      <point x="84" y="13"/>
      <point x="144" y="-5"/>
      <point x="208" y="-5" type="curve"/>
      <point x="330" y="-5"/>
      <point x="408" y="100"/>
      <point x="408" y="238" type="curve"/>
      <point x="408" y="365"/>
      <point x="350" y="464"/>
      <point x="234" y="464" type="curve"/>
      <point x="183" y="464"/>
      <point x="137" y="447"/>
      <point x="87" y="385" type="curve"/>
      <point x="170" y="357"/>
      <point x="84" y="377"/>
    </contour>
    <contour>
      <point x="383" y="722" type="curve"/>
      <point x="284" y="722"/>
      <point x="158" y="722"/>
      <point x="59" y="722" type="curve"/>
      <point x="167" y="633"/>
      <point x="59" y="722"/>
      <point x="167" y="633" type="curve"/>
      <point x="231" y="633"/>
      <point x="320" y="633"/>
      <point x="383" y="633" type="curve"/>
      <point x="383" y="722"/>
      <point x="383" y="633"/>
    </contour>
  </outline>
</glyph>
<glyph name="six" format="1">
  <advance width="496"/>
  <unicode hex="0036"/>
  <outline>
    <contour>
      <point x="137" y="214" type="curve"/>
      <point x="153" y="285"/>
      <point x="188" y="347"/>
      <point x="256" y="347" type="curve"/>
      <point x="323" y="347"/>
      <point x="344" y="293"/>
      <point x="344" y="220" type="curve"/>
      <point x="344" y="153"/>
      <point x="321" y="95"/>
      <point x="260" y="95" type="curve"/>
      <point x="181" y="95"/>
      <point x="153" y="165"/>
      <point x="153" y="256" type="curve"/>
      <point x="153" y="450"/>
      <point x="247" y="578"/>
      <point x="435" y="647" type="curve"/>
      <point x="403" y="729"/>
      <point x="435" y="647"/>
      <point x="403" y="729" type="curve"/>
      <point x="174" y="649"/>
      <point x="43" y="497"/>
      <point x="43" y="251" type="curve"/>
      <point x="43" y="98"/>
      <point x="114" y="-10"/>
      <point x="258" y="-10" type="curve"/>
      <point x="389" y="-10"/>
      <point x="458" y="84"/>
      <point x="458" y="220" type="curve"/>
      <point x="458" y="353"/>
      <point x="394" y="441"/>
      <point x="277" y="441" type="curve"/>
      <point x="155" y="441"/>
      <point x="90" y="325"/>
      <point x="82" y="238" type="curve"/>
      <point x="136" y="214"/>
      <point x="82" y="238"/>
    </contour>
  </outline>
</glyph>
<glyph name="seven" format="1">
  <advance width="440"/>
  <unicode hex="0037"/>
  <outline>
    <contour>
      <point x="45" y="633" type="curve"/>
      <point x="425" y="633" type="curve"/>
      <point x="425" y="722" type="curve"/>
      <point x="45" y="722" type="curve"/>
    </contour>
    <contour>
      <point x="351" y="722" type="curve"/>
      <point x="35" y="0" type="curve"/>
      <point x="156" y="0" type="curve"/>
      <point x="425" y="633" type="curve"/>
    </contour>
  </outline>
</glyph>
<glyph name="eight" format="1">
  <advance width="493"/>
  <unicode hex="0038"/>
  <outline>
    <contour>
      <point x="62" y="543" type="curve"/>
      <point x="62" y="442"/>
      <point x="125" y="398"/>
      <point x="213" y="346" type="curve"/>
      <point x="284" y="302"/>
      <point x="334" y="264"/>
      <point x="334" y="188" type="curve"/>
      <point x="334" y="128"/>
      <point x="307" y="88"/>
      <point x="247" y="88" type="curve"/>
      <point x="187" y="88"/>
      <point x="159" y="128"/>
      <point x="159" y="188" type="curve"/>
      <point x="159" y="266"/>
      <point x="210" y="300"/>
      <point x="282" y="345" type="curve"/>
      <point x="367" y="398"/>
      <point x="431" y="442"/>
      <point x="431" y="541" type="curve"/>
      <point x="431" y="659"/>
      <point x="366" y="727"/>
      <point x="247" y="727" type="curve"/>
      <point x="131" y="727"/>
      <point x="62" y="658"/>
      <point x="62" y="543" type="curve"/>
      <point x="173" y="543"/>
      <point x="62" y="543"/>
      <point x="173" y="543" type="curve"/>
      <point x="173" y="595"/>
      <point x="193" y="634"/>
      <point x="244" y="634" type="curve"/>
      <point x="297" y="634"/>
      <point x="320" y="597"/>
      <point x="320" y="541" type="curve"/>
      <point x="320" y="476"/>
      <point x="274" y="446"/>
      <point x="213" y="409" type="curve"/>
      <point x="116" y="349"/>
      <point x="48" y="300"/>
      <point x="48" y="188" type="curve"/>
      <point x="48" y="66"/>
      <point x="119" y="-5"/>
      <point x="242" y="-5" type="curve"/>
      <point x="368" y="-5"/>
      <point x="445" y="64"/>
      <point x="445" y="188" type="curve"/>
      <point x="445" y="299"/>
      <point x="378" y="351"/>
      <point x="282" y="410" type="curve"/>
      <point x="221" y="449"/>
      <point x="173" y="476"/>
      <point x="173" y="543" type="curve"/>
      <point x="62" y="543"/>
      <point x="173" y="543"/>
    </contour>
  </outline>
</glyph>
<glyph name="nine" format="1">
  <advance width="495"/>
  <unicode hex="0039"/>
  <outline>
    <contour>
      <point x="366" y="478" type="curve"/>
      <point x="343" y="412"/>
      <point x="310" y="375"/>
      <point x="241" y="375" type="curve"/>
      <point x="174" y="375"/>
      <point x="146" y="432"/>
      <point x="146" y="506" type="curve"/>
      <point x="146" y="573"/>
      <point x="173" y="627"/>
      <point x="232" y="627" type="curve"/>
      <point x="313" y="627"/>
      <point x="341" y="557"/>
      <point x="341" y="466" type="curve"/>
      <point x="341" y="272"/>
      <point x="252" y="144"/>
      <point x="69" y="73" type="curve"/>
      <point x="113" y="-15"/>
      <point x="69" y="73"/>
      <point x="113" y="-15" type="curve"/>
      <point x="320" y="63"/>
      <point x="450" y="225"/>
      <point x="450" y="471" type="curve"/>
      <point x="450" y="624"/>
      <point x="380" y="732"/>
      <point x="236" y="732" type="curve"/>
      <point x="105" y="732"/>
      <point x="37" y="638"/>
      <point x="37" y="502" type="curve"/>
      <point x="37" y="369"/>
      <point x="105" y="281"/>
      <point x="231" y="281" type="curve"/>
      <point x="340" y="281"/>
      <point x="394" y="378"/>
      <point x="421" y="456" type="curve"/>
      <point x="366" y="478"/>
      <point x="421" y="456"/>
    </contour>
  </outline>
</glyph>
<glyph name="colon" format="1">
  <advance width="237"/>
  <unicode hex="003A"/>
  <outline>
    <contour>
      <point x="178" y="376" type="curve"/>
      <point x="178" y="415"/>
      <point x="152" y="435"/>
      <point x="117" y="435" type="curve"/>
      <point x="81" y="435"/>
      <point x="57" y="413"/>
      <point x="57" y="376" type="curve"/>
      <point x="178" y="376"/>
      <point x="57" y="376"/>
      <point x="178" y="376" type="curve"/>
      <point x="178" y="336"/>
      <point x="153" y="318"/>
      <point x="117" y="318" type="curve"/>
      <point x="80" y="318"/>
      <point x="57" y="338"/>
      <point x="57" y="376" type="curve"/>
      <point x="178" y="376"/>
      <point x="57" y="376"/>
    </contour>
    <contour>
      <point x="178" y="53" type="curve"/>
      <point x="178" y="92"/>
      <point x="152" y="112"/>
      <point x="117" y="112" type="curve"/>
      <point x="81" y="112"/>
      <point x="57" y="90"/>
      <point x="57" y="53" type="curve"/>
      <point x="178" y="53"/>
      <point x="57" y="53"/>
      <point x="178" y="53" type="curve"/>
      <point x="178" y="13"/>
      <point x="153" y="-5"/>
      <point x="117" y="-5" type="curve"/>
      <point x="80" y="-5"/>
      <point x="57" y="15"/>
      <point x="57" y="53" type="curve"/>
      <point x="178" y="53"/>
      <point x="57" y="53"/>
    </contour>
  </outline>
</glyph>
<glyph name="semicolon" format="1">
  <advance width="213"/>
  <unicode hex="003B"/>
  <outline>
    <contour>
      <point x="19" y="-188" type="line"/>
      <point x="105" y="-182"/>
      <point x="162" y="-123"/>
      <point x="162" y="-30" type="curve"/>
      <point x="162" y="42"/>
      <point x="133" y="81"/>
      <point x="90" y="81" type="curve"/>
      <point x="51" y="81"/>
      <point x="25" y="60"/>
      <point x="25" y="22" type="curve"/>
      <point x="25" y="-9"/>
      <point x="43" y="-34"/>
      <point x="79" y="-35" type="curve"/>
      <point x="79" y="-60"/>
      <point x="75" y="-110"/>
      <point x="15" y="-125" type="curve"/>
    </contour>
    <contour>
      <point x="150" y="389" type="curve"/>
      <point x="150" y="428"/>
      <point x="124" y="447"/>
      <point x="89" y="447" type="curve"/>
      <point x="53" y="447"/>
      <point x="30" y="426"/>
      <point x="30" y="389" type="curve"/>
      <point x="150" y="389"/>
      <point x="30" y="389"/>
      <point x="150" y="389" type="curve"/>
      <point x="150" y="349"/>
      <point x="125" y="331"/>
      <point x="89" y="331" type="curve"/>
      <point x="52" y="331"/>
      <point x="30" y="350"/>
      <point x="30" y="389" type="curve"/>
      <point x="150" y="389"/>
      <point x="30" y="389"/>
    </contour>
  </outline>
</glyph>
<glyph name="less" format="1">
  <advance width="532"/>
  <unicode hex="003C"/>
  <outline>
    <contour>
      <point x="477" y="619" type="curve"/>
      <point x="328" y="529"/>
      <point x="178" y="439"/>
      <point x="29" y="349" type="curve"/>
      <point x="29" y="251"/>
      <point x="29" y="349"/>
      <point x="29" y="251" type="curve"/>
      <point x="178" y="341"/>
      <point x="328" y="431"/>
      <point x="477" y="521" type="curve"/>
      <point x="477" y="619"/>
      <point x="477" y="521"/>
    </contour>
    <contour>
      <point x="485" y="85" type="curve"/>
      <point x="332" y="173"/>
      <point x="180" y="261"/>
      <point x="29" y="349" type="curve"/>
      <point x="29" y="251"/>
      <point x="29" y="349"/>
      <point x="29" y="251" type="curve"/>
      <point x="180" y="163"/>
      <point x="332" y="75"/>
      <point x="485" y="-13" type="curve"/>
      <point x="485" y="85"/>
      <point x="485" y="-13"/>
    </contour>
  </outline>
</glyph>
<glyph name="equal" format="1">
  <advance width="568"/>
  <unicode hex="003D"/>
  <outline>
    <contour>
      <point x="55" y="170" type="curve"/>
      <point x="210" y="170"/>
      <point x="364" y="170"/>
      <point x="519" y="170" type="curve"/>
      <point x="519" y="265"/>
      <point x="519" y="170"/>
      <point x="519" y="265" type="curve"/>
      <point x="364" y="265"/>
      <point x="210" y="265"/>
      <point x="55" y="265" type="curve"/>
      <point x="55" y="170"/>
      <point x="55" y="265"/>
    </contour>
    <contour>
      <point x="55" y="392" type="curve"/>
      <point x="210" y="392"/>
      <point x="364" y="392"/>
      <point x="519" y="392" type="curve"/>
      <point x="519" y="487"/>
      <point x="519" y="392"/>
      <point x="519" y="487" type="curve"/>
      <point x="364" y="487"/>
      <point x="210" y="487"/>
      <point x="55" y="487" type="curve"/>
      <point x="55" y="392"/>
      <point x="55" y="487"/>
    </contour>
  </outline>
</glyph>
<glyph name="greater" format="1">
  <advance width="533"/>
  <unicode hex="003E"/>
  <outline>
    <contour>
      <point x="54" y="-13" type="curve"/>
      <point x="204" y="77"/>
      <point x="354" y="167"/>
      <point x="503" y="257" type="curve"/>
      <point x="503" y="355"/>
      <point x="503" y="257"/>
      <point x="503" y="355" type="curve"/>
      <point x="354" y="265"/>
      <point x="204" y="175"/>
      <point x="54" y="85" type="curve"/>
      <point x="54" y="-13"/>
      <point x="54" y="85"/>
    </contour>
    <contour>
      <point x="47" y="521" type="curve"/>
      <point x="199" y="433"/>
      <point x="351" y="345"/>
      <point x="503" y="257" type="curve"/>
      <point x="503" y="355"/>
      <point x="503" y="257"/>
      <point x="503" y="355" type="curve"/>
      <point x="351" y="443"/>
      <point x="199" y="531"/>
      <point x="47" y="619" type="curve"/>
      <point x="47" y="521"/>
      <point x="47" y="619"/>
    </contour>
  </outline>
</glyph>
<glyph name="question" format="1">
  <advance width="454"/>
  <unicode hex="003F"/>
  <outline>
    <contour>
      <point x="170" y="369" type="curve"/>
      <point x="170" y="332"/>
      <point x="170" y="258"/>
      <point x="170" y="221" type="curve"/>
      <point x="274" y="221"/>
      <point x="170" y="221"/>
      <point x="274" y="221" type="curve"/>
      <point x="274" y="258"/>
      <point x="274" y="332"/>
      <point x="274" y="369" type="curve"/>
      <point x="170" y="369"/>
      <point x="274" y="369"/>
    </contour>
    <contour>
      <point x="103" y="591" type="line"/>
      <point x="132" y="625"/>
      <point x="161" y="647"/>
      <point x="206" y="647" type="curve"/>
      <point x="276" y="647"/>
      <point x="310" y="592"/>
      <point x="310" y="518" type="curve"/>
      <point x="310" y="432"/>
      <point x="265" y="369"/>
      <point x="182" y="369" type="curve"/>
      <point x="182" y="334"/>
      <point x="181" y="318"/>
      <point x="181" y="283" type="curve"/>
      <point x="328" y="283"/>
      <point x="418" y="376"/>
      <point x="418" y="518" type="curve"/>
      <point x="418" y="654"/>
      <point x="338" y="742"/>
      <point x="211" y="742" type="curve"/>
      <point x="136" y="742"/>
      <point x="81" y="714"/>
      <point x="42" y="662" type="curve"/>
    </contour>
    <contour>
      <point x="283" y="50" type="curve"/>
      <point x="283" y="89"/>
      <point x="257" y="108"/>
      <point x="222" y="108" type="curve"/>
      <point x="186" y="108"/>
      <point x="162" y="87"/>
      <point x="162" y="50" type="curve"/>
      <point x="283" y="50"/>
      <point x="162" y="50"/>
      <point x="283" y="50" type="curve"/>
      <point x="283" y="10"/>
      <point x="258" y="-8"/>
      <point x="222" y="-8" type="curve"/>
      <point x="185" y="-8"/>
      <point x="162" y="12"/>
      <point x="162" y="50" type="curve"/>
      <point x="283" y="50"/>
      <point x="162" y="50"/>
    </contour>
  </outline>
</glyph>
<glyph name="at" format="1">
  <advance width="689"/>
  <unicode hex="0040"/>
  <outline>
    <contour>
      <point x="453" y="-28" type="curve"/>
      <point x="421" y="-50"/>
      <point x="397" y="-58"/>
      <point x="359" y="-58" type="curve"/>
      <point x="218" y="-58"/>
      <point x="143" y="54"/>
      <point x="143" y="208" type="curve"/>
      <point x="143" y="356"/>
      <point x="214" y="464"/>
      <point x="349" y="464" type="curve"/>
      <point x="479" y="464"/>
      <point x="547" y="356"/>
      <point x="547" y="212" type="curve"/>
      <point x="547" y="156"/>
      <point x="547" y="107"/>
      <point x="522" y="107" type="curve"/>
      <point x="497" y="107"/>
      <point x="498" y="154"/>
      <point x="498" y="212" type="curve"/>
      <point x="498" y="322"/>
      <point x="448" y="401"/>
      <point x="346" y="401" type="curve"/>
      <point x="234" y="401"/>
      <point x="190" y="325"/>
      <point x="190" y="209" type="curve"/>
      <point x="190" y="92"/>
      <point x="229" y="10"/>
      <point x="336" y="10" type="curve"/>
      <point x="434" y="10"/>
      <point x="470" y="88"/>
      <point x="482" y="195" type="curve"/>
      <point x="409" y="212"/>
      <point x="482" y="195"/>
      <point x="409" y="212" type="curve"/>
      <point x="399" y="155"/>
      <point x="400" y="99"/>
      <point x="349" y="99" type="curve"/>
      <point x="302" y="99"/>
      <point x="291" y="151"/>
      <point x="291" y="214" type="curve"/>
      <point x="291" y="267"/>
      <point x="297" y="312"/>
      <point x="340" y="312" type="curve"/>
      <point x="391" y="312"/>
      <point x="394" y="265"/>
      <point x="394" y="207" type="curve"/>
      <point x="394" y="104"/>
      <point x="420" y="22"/>
      <point x="513" y="22" type="curve"/>
      <point x="612" y="22"/>
      <point x="643" y="105"/>
      <point x="643" y="217" type="curve"/>
      <point x="643" y="418"/>
      <point x="543" y="556"/>
      <point x="352" y="556" type="curve"/>
      <point x="149" y="556"/>
      <point x="43" y="415"/>
      <point x="43" y="203" type="curve"/>
      <point x="43" y="-7"/>
      <point x="153" y="-147"/>
      <point x="354" y="-147" type="curve"/>
      <point x="414" y="-147"/>
      <point x="447" y="-137"/>
      <point x="497" y="-104" type="curve"/>
      <point x="453" y="-28"/>
      <point x="497" y="-104"/>
    </contour>
  </outline>
</glyph>
<glyph name="B" format="1">
  <advance width="530"/>
  <unicode hex="0042"/>
  <outline>
    <contour>
      <point x="131" y="633" type="curve"/>
      <point x="179" y="633"/>
      <point x="211" y="633"/>
      <point x="260" y="633" type="curve"/>
      <point x="317" y="633"/>
      <point x="342" y="595"/>
      <point x="342" y="541" type="curve"/>
      <point x="342" y="488"/>
      <point x="317" y="450"/>
      <point x="265" y="450" type="curve"/>
      <point x="215" y="450"/>
      <point x="181" y="450"/>
      <point x="131" y="450" type="curve"/>
      <point x="131" y="416"/>
      <point x="131" y="394"/>
      <point x="131" y="360" type="curve"/>
      <point x="167" y="360"/>
      <point x="191" y="360"/>
      <point x="227" y="360" type="curve"/>
      <point x="340" y="360"/>
      <point x="454" y="413"/>
      <point x="454" y="536" type="curve"/>
      <point x="454" y="653"/>
      <point x="385" y="722"/>
      <point x="267" y="722" type="curve"/>
      <point x="216" y="722"/>
      <point x="182" y="722"/>
      <point x="131" y="722" type="curve"/>
      <point x="131" y="688"/>
      <point x="131" y="667"/>
    </contour>
    <contour>
      <point x="199" y="0" type="curve"/>
      <point x="199" y="241"/>
      <point x="199" y="481"/>
      <point x="199" y="722" type="curve"/>
      <point x="80" y="722"/>
      <point x="199" y="722"/>
      <point x="80" y="722" type="curve"/>
      <point x="80" y="481"/>
      <point x="80" y="241"/>
      <point x="80" y="0" type="curve"/>
      <point x="199" y="0"/>
      <point x="80" y="0"/>
    </contour>
    <contour>
      <point x="131" y="360" type="curve"/>
      <point x="181" y="360"/>
      <point x="215" y="360"/>
      <point x="265" y="360" type="curve"/>
      <point x="344" y="360"/>
      <point x="376" y="302"/>
      <point x="376" y="222" type="curve"/>
      <point x="376" y="143"/>
      <point x="341" y="89"/>
      <point x="264" y="89" type="curve"/>
      <point x="214" y="89"/>
      <point x="181" y="89"/>
      <point x="131" y="89" type="curve"/>
      <point x="131" y="55"/>
      <point x="131" y="34"/>
      <point x="131" y="0" type="curve"/>
      <point x="184" y="0"/>
      <point x="218" y="0"/>
      <point x="271" y="0" type="curve"/>
      <point x="408" y="0"/>
      <point x="490" y="82"/>
      <point x="490" y="219" type="curve"/>
      <point x="490" y="371"/>
      <point x="375" y="450"/>
      <point x="227" y="450" type="curve"/>
      <point x="191" y="450"/>
      <point x="167" y="450"/>
      <point x="131" y="450" type="curve"/>
      <point x="131" y="416"/>
      <point x="131" y="394"/>
    </contour>
  </outline>
</glyph>
<glyph name="C" format="1">
  <advance width="549"/>
  <unicode hex="0043"/>
  <outline>
    <contour>
      <point x="523" y="654" type="curve"/>
      <point x="468" y="696"/>
      <point x="403" y="727"/>
      <point x="327" y="727" type="curve"/>
      <point x="128" y="727"/>
      <point x="45" y="568"/>
      <point x="45" y="345" type="curve"/>
      <point x="45" y="141"/>
      <point x="126" y="-5"/>
      <point x="312" y="-5" type="curve"/>
      <point x="411" y="-5"/>
      <point x="476" y="30"/>
      <point x="535" y="98" type="curve"/>
      <point x="469" y="164"/>
      <point x="535" y="98"/>
      <point x="469" y="164" type="curve"/>
      <point x="424" y="118"/>
      <point x="384" y="88"/>
      <point x="318" y="88" type="curve"/>
      <point x="192" y="88"/>
      <point x="159" y="204"/>
      <point x="159" y="349" type="curve"/>
      <point x="159" y="507"/>
      <point x="190" y="634"/>
      <point x="323" y="634" type="curve"/>
      <point x="376" y="634"/>
      <point x="423" y="614"/>
      <point x="461" y="584" type="curve"/>
      <point x="523" y="654"/>
      <point x="461" y="584"/>
    </contour>
    <contour>
      <point x="320" y="791" type="move" name="top"/>
    </contour>
    <contour>
      <point x="345" y="3" type="move" name="bottom"/>
    </contour>
  </outline>
</glyph>
<glyph name="D" format="1">
  <advance width="612"/>
  <unicode hex="0044"/>
  <outline>
    <contour>
      <point x="80" y="722" type="curve"/>
      <point x="80" y="481"/>
      <point x="80" y="241"/>
      <point x="80" y="0" type="curve"/>
      <point x="194" y="0"/>
      <point x="80" y="0"/>
      <point x="194" y="0" type="curve"/>
      <point x="194" y="241"/>
      <point x="194" y="481"/>
      <point x="194" y="722" type="curve"/>
      <point x="80" y="722"/>
      <point x="194" y="722"/>
    </contour>
    <contour>
      <point x="138" y="0" type="curve"/>
      <point x="185" y="0"/>
      <point x="228" y="0"/>
      <point x="276" y="0" type="curve"/>
      <point x="479" y="0"/>
      <point x="566" y="139"/>
      <point x="566" y="354" type="curve"/>
      <point x="566" y="577"/>
      <point x="480" y="722"/>
      <point x="273" y="722" type="curve"/>
      <point x="227" y="722"/>
      <point x="184" y="722"/>
      <point x="138" y="722" type="curve"/>
      <point x="138" y="637"/>
      <point x="138" y="719"/>
      <point x="138" y="633" type="curve"/>
      <point x="183" y="633"/>
      <point x="223" y="633"/>
      <point x="268" y="633" type="curve"/>
      <point x="413" y="633"/>
      <point x="452" y="515"/>
      <point x="452" y="353" type="curve"/>
      <point x="452" y="201"/>
      <point x="419" y="89"/>
      <point x="287" y="89" type="curve"/>
      <point x="236" y="89"/>
      <point x="189" y="89"/>
      <point x="138" y="89" type="curve"/>
      <point x="138" y="3"/>
      <point x="138" y="85"/>
    </contour>
    <contour>
      <point x="249" y="791" type="move" name="top"/>
    </contour>
  </outline>
</glyph>
<glyph name="E" format="1">
  <advance width="477"/>
  <unicode hex="0045"/>
  <outline>
    <contour>
      <point x="140" y="328" type="curve"/>
      <point x="220" y="328"/>
      <point x="301" y="328"/>
      <point x="382" y="328" type="curve"/>
      <point x="382" y="418"/>
      <point x="382" y="328"/>
      <point x="382" y="418" type="curve"/>
      <point x="301" y="418"/>
      <point x="220" y="418"/>
      <point x="140" y="418" type="curve"/>
      <point x="140" y="328"/>
      <point x="140" y="418"/>
    </contour>
    <contour>
      <point x="128" y="633" type="curve"/>
      <point x="229" y="633"/>
      <point x="328" y="633"/>
      <point x="428" y="633" type="curve"/>
      <point x="428" y="722"/>
      <point x="428" y="633"/>
      <point x="428" y="722" type="curve"/>
      <point x="328" y="722"/>
      <point x="229" y="722"/>
      <point x="128" y="722" type="curve"/>
      <point x="128" y="633"/>
      <point x="128" y="722"/>
    </contour>
    <contour>
      <point x="194" y="0" type="curve"/>
      <point x="194" y="722" type="line"/>
      <point x="80" y="722"/>
      <point x="194" y="722"/>
      <point x="80" y="722" type="curve"/>
      <point x="80" y="481"/>
      <point x="80" y="241"/>
      <point x="80" y="0" type="curve"/>
      <point x="194" y="0"/>
      <point x="80" y="0"/>
    </contour>
    <contour>
      <point x="128" y="0" type="curve"/>
      <point x="237" y="0"/>
      <point x="345" y="0"/>
      <point x="453" y="0" type="curve"/>
      <point x="453" y="89"/>
      <point x="453" y="0"/>
      <point x="453" y="89" type="curve"/>
      <point x="345" y="89"/>
      <point x="237" y="89"/>
      <point x="128" y="89" type="curve"/>
      <point x="128" y="0"/>
      <point x="128" y="89"/>
    </contour>
    <contour>
      <point x="239" y="791" type="move" name="top"/>
    </contour>
    <contour>
      <point x="436" y="3" type="move" name="bottom"/>
    </contour>
  </outline>
</glyph>
<glyph name="F" format="1">
  <advance width="453"/>
  <unicode hex="0046"/>
  <outline>
    <contour>
      <point x="139" y="328" type="curve"/>
      <point x="219" y="328"/>
      <point x="298" y="328"/>
      <point x="377" y="328" type="curve"/>
      <point x="377" y="418"/>
      <point x="377" y="328"/>
      <point x="377" y="418" type="curve"/>
      <point x="298" y="418"/>
      <point x="219" y="418"/>
      <point x="139" y="418" type="curve"/>
      <point x="139" y="328"/>
      <point x="139" y="418"/>
    </contour>
    <contour>
      <point x="194" y="0" type="curve"/>
      <point x="194" y="722" type="line"/>
      <point x="80" y="722"/>
      <point x="194" y="722"/>
      <point x="80" y="722" type="curve"/>
      <point x="80" y="481"/>
      <point x="80" y="241"/>
      <point x="80" y="0" type="curve"/>
      <point x="194" y="0"/>
      <point x="80" y="0"/>
    </contour>
    <contour>
      <point x="128" y="633" type="curve"/>
      <point x="229" y="633"/>
      <point x="330" y="633"/>
      <point x="431" y="633" type="curve"/>
      <point x="431" y="722"/>
      <point x="431" y="633"/>
      <point x="431" y="722" type="curve"/>
      <point x="330" y="722"/>
      <point x="229" y="722"/>
      <point x="128" y="722" type="curve"/>
      <point x="128" y="633"/>
      <point x="128" y="722"/>
    </contour>
  </outline>
</glyph>
<glyph name="G" format="1">
  <advance width="625"/>
  <unicode hex="0047"/>
  <outline>
    <contour>
      <point x="545" y="358" type="curve"/>
      <point x="491" y="358"/>
      <point x="437" y="358"/>
      <point x="383" y="358" type="curve"/>
      <point x="383" y="269"/>
      <point x="383" y="358"/>
      <point x="383" y="269" type="curve"/>
      <point x="437" y="269"/>
      <point x="491" y="269"/>
      <point x="545" y="269" type="curve"/>
      <point x="545" y="358"/>
      <point x="545" y="269"/>
    </contour>
    <contour>
      <point x="575" y="79" type="curve"/>
      <point x="575" y="172"/>
      <point x="575" y="264"/>
      <point x="575" y="358" type="curve"/>
      <point x="471" y="358"/>
      <point x="575" y="358"/>
      <point x="471" y="358" type="curve"/>
      <point x="471" y="264"/>
      <point x="471" y="172"/>
      <point x="471" y="79" type="curve"/>
      <point x="575" y="79"/>
      <point x="471" y="79"/>
    </contour>
    <contour>
      <point x="563" y="644" type="curve"/>
      <point x="493" y="701"/>
      <point x="424" y="727"/>
      <point x="335" y="727" type="curve"/>
      <point x="135" y="727"/>
      <point x="44" y="578"/>
      <point x="44" y="361" type="curve"/>
      <point x="44" y="143"/>
      <point x="140" y="-5"/>
      <point x="343" y="-5" type="curve"/>
      <point x="438" y="-5"/>
      <point x="497" y="24"/>
      <point x="575" y="79" type="curve"/>
      <point x="518" y="146"/>
      <point x="575" y="79"/>
      <point x="518" y="146" type="curve"/>
      <point x="464" y="107"/>
      <point x="413" y="89"/>
      <point x="343" y="89" type="curve"/>
      <point x="202" y="89"/>
      <point x="158" y="210"/>
      <point x="158" y="370" type="curve"/>
      <point x="158" y="519"/>
      <point x="203" y="634"/>
      <point x="335" y="634" type="curve"/>
      <point x="402" y="634"/>
      <point x="453" y="611"/>
      <point x="506" y="569" type="curve"/>
      <point x="563" y="644"/>
      <point x="506" y="569"/>
    </contour>
    <contour>
      <point x="331" y="791" type="move" name="top"/>
    </contour>
    <contour>
      <point x="371" y="-20" type="move" name="bottom"/>
    </contour>
  </outline>
</glyph>
<glyph name="H" format="1">
  <advance width="638"/>
  <unicode hex="0048"/>
  <outline>
    <contour>
      <point x="194" y="0" type="curve"/>
      <point x="194" y="722" type="line"/>
      <point x="80" y="722"/>
      <point x="194" y="722"/>
      <point x="80" y="722" type="curve"/>
      <point x="80" y="481"/>
      <point x="80" y="241"/>
      <point x="80" y="0" type="curve"/>
      <point x="194" y="0"/>
      <point x="80" y="0"/>
    </contour>
    <contour>
      <point x="500" y="407" type="curve"/>
      <point x="379" y="407"/>
      <point x="258" y="407"/>
      <point x="136" y="407" type="curve"/>
      <point x="136" y="318"/>
      <point x="136" y="407"/>
      <point x="136" y="318" type="curve"/>
      <point x="258" y="318"/>
      <point x="379" y="318"/>
      <point x="500" y="318" type="curve"/>
      <point x="500" y="407"/>
      <point x="500" y="318"/>
    </contour>
    <contour>
      <point x="559" y="0" type="curve"/>
      <point x="559" y="217"/>
      <point x="559" y="505"/>
      <point x="559" y="722" type="curve"/>
      <point x="445" y="722"/>
      <point x="559" y="722"/>
      <point x="445" y="722" type="curve"/>
      <point x="445" y="0" type="line"/>
      <point x="559" y="0"/>
      <point x="445" y="0"/>
    </contour>
  </outline>
</glyph>
<glyph name="I" format="1">
  <advance width="273"/>
  <unicode hex="0049"/>
  <outline>
    <contour>
      <point x="194" y="0" type="curve"/>
      <point x="194" y="241"/>
      <point x="194" y="481"/>
      <point x="194" y="722" type="curve"/>
      <point x="80" y="722"/>
      <point x="194" y="722"/>
      <point x="80" y="722" type="curve"/>
      <point x="80" y="481"/>
      <point x="80" y="241"/>
      <point x="80" y="0" type="curve"/>
      <point x="194" y="0"/>
      <point x="80" y="0"/>
    </contour>
    <contour>
      <point x="139" y="791" type="move" name="top"/>
    </contour>
    <contour>
      <point x="185" y="4" type="move" name="bottom"/>
    </contour>
  </outline>
</glyph>
<glyph name="J" format="1">
  <advance width="371"/>
  <unicode hex="004A"/>
  <outline>
    <contour>
      <point x="2" y="43" type="curve"/>
      <point x="28" y="21"/>
      <point x="65" y="-4"/>
      <point x="113" y="-4" type="curve"/>
      <point x="243" y="-4"/>
      <point x="296" y="85"/>
      <point x="296" y="238" type="curve"/>
      <point x="296" y="404"/>
      <point x="296" y="556"/>
      <point x="296" y="722" type="curve"/>
      <point x="186" y="722"/>
      <point x="293" y="722"/>
      <point x="182" y="722" type="curve"/>
      <point x="182" y="556"/>
      <point x="182" y="404"/>
      <point x="182" y="238" type="curve"/>
      <point x="182" y="156"/>
      <point x="180" y="87"/>
      <point x="113" y="87" type="curve"/>
      <point x="87" y="87"/>
      <point x="73" y="100"/>
      <point x="55" y="114" type="curve"/>
      <point x="4" y="46"/>
      <point x="53" y="111"/>
    </contour>
  </outline>
</glyph>
<glyph name="K" format="1">
  <advance width="572"/>
  <unicode hex="004B"/>
  <outline>
    <contour>
      <point x="416" y="722" type="curve"/>
      <point x="179" y="380" type="line"/>
      <point x="302" y="380"/>
      <point x="188" y="380"/>
      <point x="311" y="380" type="curve"/>
      <point x="547" y="722" type="line"/>
      <point x="463" y="722"/>
      <point x="500" y="722"/>
    </contour>
    <contour>
      <point x="194" y="0" type="curve"/>
      <point x="194" y="722" type="line"/>
      <point x="80" y="722"/>
      <point x="194" y="722"/>
      <point x="80" y="722" type="curve"/>
      <point x="80" y="481"/>
      <point x="80" y="241"/>
      <point x="80" y="0" type="curve"/>
      <point x="194" y="0"/>
      <point x="80" y="0"/>
    </contour>
    <contour>
      <point x="564" y="0" type="curve"/>
      <point x="311" y="380" type="line"/>
      <point x="188" y="380"/>
      <point x="302" y="380"/>
      <point x="179" y="380" type="curve"/>
      <point x="433" y="0" type="line"/>
      <point x="528" y="0"/>
      <point x="469" y="0"/>
    </contour>
    <contour>
      <point x="313" y="-20" type="move" name="bottom"/>
    </contour>
  </outline>
</glyph>
<glyph name="L" format="1">
  <advance width="459"/>
  <unicode hex="004C"/>
  <outline>
    <contour>
      <point x="194" y="0" type="curve"/>
      <point x="194" y="241"/>
      <point x="194" y="481"/>
      <point x="194" y="722" type="curve"/>
      <point x="80" y="722"/>
      <point x="194" y="722"/>
      <point x="80" y="722" type="curve"/>
      <point x="80" y="481"/>
      <point x="80" y="241"/>
      <point x="80" y="0" type="curve"/>
      <point x="194" y="0"/>
      <point x="80" y="0"/>
    </contour>
    <contour>
      <point x="136" y="0" type="curve"/>
      <point x="240" y="0"/>
      <point x="344" y="0"/>
      <point x="447" y="0" type="curve"/>
      <point x="447" y="89"/>
      <point x="447" y="0"/>
      <point x="447" y="89" type="curve"/>
      <point x="344" y="89"/>
      <point x="240" y="89"/>
      <point x="136" y="89" type="curve"/>
      <point x="136" y="0"/>
      <point x="136" y="89"/>
    </contour>
    <contour>
      <point x="136" y="791" type="move" name="top"/>
    </contour>
    <contour>
      <point x="275" y="-16" type="move" name="bottom"/>
    </contour>
  </outline>
</glyph>
<glyph name="M" format="1">
  <advance width="729"/>
  <unicode hex="004D"/>
  <outline>
    <contour>
      <point x="677" y="0" type="curve"/>
      <point x="661" y="241"/>
      <point x="642" y="481"/>
      <point x="627" y="722" type="curve"/>
      <point x="523" y="722"/>
      <point x="627" y="722"/>
      <point x="523" y="722" type="curve"/>
      <point x="538" y="481"/>
      <point x="548" y="241"/>
      <point x="563" y="0" type="curve"/>
      <point x="677" y="0"/>
      <point x="563" y="0"/>
    </contour>
    <contour>
      <point x="154" y="0" type="curve"/>
      <point x="168" y="241"/>
      <point x="181" y="481"/>
      <point x="195" y="722" type="curve"/>
      <point x="99" y="722"/>
      <point x="195" y="722"/>
      <point x="99" y="722" type="curve"/>
      <point x="84" y="481"/>
      <point x="70" y="241"/>
      <point x="55" y="0" type="curve"/>
      <point x="154" y="0"/>
      <point x="55" y="0"/>
    </contour>
    <contour>
      <point x="405" y="0" type="curve"/>
      <point x="336" y="241"/>
      <point x="266" y="481"/>
      <point x="197" y="722" type="curve"/>
      <point x="101" y="722"/>
      <point x="197" y="722"/>
      <point x="101" y="722" type="curve"/>
      <point x="170" y="481"/>
      <point x="239" y="241"/>
      <point x="307" y="0" type="curve"/>
      <point x="405" y="0"/>
      <point x="307" y="0"/>
    </contour>
    <contour>
      <point x="412" y="0" type="curve"/>
      <point x="479" y="241"/>
      <point x="547" y="481"/>
      <point x="614" y="722" type="curve"/>
      <point x="518" y="722"/>
      <point x="614" y="722"/>
      <point x="518" y="722" type="curve"/>
      <point x="450" y="481"/>
      <point x="381" y="241"/>
      <point x="313" y="0" type="curve"/>
      <point x="412" y="0"/>
      <point x="313" y="0"/>
    </contour>
  </outline>
</glyph>
<glyph name="P" format="1">
  <advance width="492"/>
  <unicode hex="0050"/>
  <outline>
    <contour>
      <point x="121" y="305" type="curve"/>
      <point x="166" y="276"/>
      <point x="215" y="259"/>
      <point x="272" y="259" type="curve"/>
      <point x="390" y="261"/>
      <point x="461" y="345"/>
      <point x="461" y="480" type="curve"/>
      <point x="461" y="622"/>
      <point x="378" y="722"/>
      <point x="241" y="722" type="curve"/>
      <point x="207" y="722"/>
      <point x="173" y="722"/>
      <point x="140" y="722" type="curve"/>
      <point x="140" y="633"/>
      <point x="140" y="722"/>
      <point x="140" y="633" type="curve"/>
      <point x="168" y="633"/>
      <point x="196" y="633"/>
      <point x="225" y="633" type="curve"/>
      <point x="306" y="633"/>
      <point x="347" y="568"/>
      <point x="347" y="483" type="curve"/>
      <point x="347" y="406"/>
      <point x="323" y="344"/>
      <point x="258" y="344" type="curve"/>
      <point x="217" y="344"/>
      <point x="191" y="357"/>
      <point x="157" y="379" type="curve"/>
      <point x="121" y="307"/>
      <point x="157" y="378"/>
    </contour>
    <contour>
      <point x="194" y="0" type="curve"/>
      <point x="194" y="241"/>
      <point x="194" y="481"/>
      <point x="194" y="722" type="curve"/>
      <point x="80" y="722"/>
      <point x="194" y="722"/>
      <point x="80" y="722" type="curve"/>
      <point x="80" y="481"/>
      <point x="80" y="241"/>
      <point x="80" y="0" type="curve"/>
      <point x="194" y="0"/>
      <point x="80" y="0"/>
    </contour>
  </outline>
</glyph>
<glyph name="Q" format="1">
  <advance width="647"/>
  <unicode hex="0051"/>
  <outline>
    <contour>
      <point x="273" y="21" type="curve"/>
      <point x="347" y="-143"/>
      <point x="446" y="-218"/>
      <point x="615" y="-218" type="curve"/>
      <point x="615" y="-125"/>
      <point x="615" y="-218"/>
      <point x="615" y="-125" type="curve"/>
      <point x="491" y="-125"/>
      <point x="427" y="-58"/>
      <point x="371" y="66" type="curve"/>
      <point x="273" y="21"/>
      <point x="371" y="66"/>
    </contour>
    <contour>
      <point x="159" y="360" type="curve"/>
      <point x="159" y="505"/>
      <point x="187" y="629"/>
      <point x="312" y="629" type="curve"/>
      <point x="439" y="629"/>
      <point x="473" y="507"/>
      <point x="473" y="361" type="curve"/>
      <point x="473" y="215"/>
      <point x="446" y="88"/>
      <point x="320" y="88" type="curve"/>
      <point x="191" y="89"/>
      <point x="159" y="213"/>
      <point x="159" y="360" type="curve"/>
      <point x="45" y="360"/>
      <point x="159" y="360"/>
      <point x="45" y="360" type="curve"/>
      <point x="45" y="154"/>
      <point x="127" y="-5"/>
      <point x="314" y="-5" type="curve"/>
      <point x="505" y="-5"/>
      <point x="587" y="157"/>
      <point x="587" y="366" type="curve"/>
      <point x="587" y="571"/>
      <point x="508" y="731"/>
      <point x="321" y="731" type="curve"/>
      <point x="130" y="731"/>
      <point x="45" y="569"/>
      <point x="45" y="360" type="curve"/>
      <point x="159" y="360"/>
      <point x="45" y="360"/>
    </contour>
  </outline>
</glyph>
<glyph name="R" format="1">
  <advance width="539"/>
  <unicode hex="0052"/>
  <outline>
    <contour>
      <point x="227" y="354" type="curve"/>
      <point x="290" y="236"/>
      <point x="353" y="118"/>
      <point x="416" y="0" type="curve"/>
      <point x="535" y="0"/>
      <point x="418" y="0"/>
      <point x="537" y="0" type="curve"/>
      <point x="474" y="118"/>
      <point x="411" y="236"/>
      <point x="348" y="354" type="curve"/>
      <point x="229" y="354"/>
      <point x="346" y="354"/>
    </contour>
    <contour>
      <point x="194" y="0" type="curve"/>
      <point x="194" y="241"/>
      <point x="194" y="481"/>
      <point x="194" y="722" type="curve"/>
      <point x="80" y="722"/>
      <point x="194" y="722"/>
      <point x="80" y="722" type="curve"/>
      <point x="80" y="481"/>
      <point x="80" y="241"/>
      <point x="80" y="0" type="curve"/>
      <point x="194" y="0"/>
      <point x="80" y="0"/>
    </contour>
    <contour>
      <point x="138" y="307" type="curve"/>
      <point x="183" y="307"/>
      <point x="228" y="307"/>
      <point x="273" y="307" type="curve"/>
      <point x="400" y="307"/>
      <point x="474" y="387"/>
      <point x="474" y="523" type="curve"/>
      <point x="474" y="648"/>
      <point x="401" y="722"/>
      <point x="276" y="722" type="curve"/>
      <point x="229" y="722"/>
      <point x="185" y="722"/>
      <point x="138" y="722" type="curve"/>
      <point x="138" y="633"/>
      <point x="138" y="722"/>
      <point x="138" y="633" type="curve"/>
      <point x="178" y="633"/>
      <point x="216" y="633"/>
      <point x="255" y="633" type="curve"/>
      <point x="325" y="633"/>
      <point x="360" y="586"/>
      <point x="360" y="515" type="curve"/>
      <point x="360" y="446"/>
      <point x="334" y="397"/>
      <point x="270" y="397" type="curve"/>
      <point x="226" y="397"/>
      <point x="182" y="397"/>
      <point x="138" y="397" type="curve"/>
      <point x="138" y="307"/>
      <point x="138" y="397"/>
    </contour>
    <contour>
      <point x="235" y="791" type="move" name="top"/>
    </contour>
    <contour>
      <point x="349" y="-20" type="move" name="bottom"/>
    </contour>
  </outline>
</glyph>
<glyph name="S" format="1">
  <advance width="460"/>
  <unicode hex="0053"/>
  <outline>
    <contour>
      <point x="42" y="54" type="curve"/>
      <point x="93" y="14"/>
      <point x="145" y="-5"/>
      <point x="213" y="-5" type="curve"/>
      <point x="339" y="-5"/>
      <point x="429" y="65"/>
      <point x="429" y="188" type="curve"/>
      <point x="429" y="296"/>
      <point x="359" y="355"/>
      <point x="264" y="411" type="curve"/>
      <point x="203" y="448"/>
      <point x="153" y="489"/>
      <point x="153" y="545" type="curve"/>
      <point x="150" y="594"/>
      <point x="179" y="634"/>
      <point x="225" y="634" type="curve"/>
      <point x="270" y="634"/>
      <point x="308" y="609"/>
      <point x="335" y="591" type="curve"/>
      <point x="386" y="659"/>
      <point x="337" y="593"/>
      <point x="387" y="661" type="curve"/>
      <point x="338" y="700"/>
      <point x="292" y="719"/>
      <point x="228" y="719" type="curve"/>
      <point x="114" y="719"/>
      <point x="38" y="651"/>
      <point x="38" y="541" type="curve"/>
      <point x="38" y="438"/>
      <point x="104" y="379"/>
      <point x="193" y="327" type="curve"/>
      <point x="258" y="289"/>
      <point x="315" y="246"/>
      <point x="315" y="188" type="curve"/>
      <point x="315" y="138"/>
      <point x="276" y="88"/>
      <point x="219" y="88" type="curve"/>
      <point x="172" y="88"/>
      <point x="140" y="112"/>
      <point x="104" y="138" type="curve"/>
      <point x="44" y="57"/>
      <point x="102" y="136"/>
    </contour>
    <contour>
      <point x="228" y="791" type="move" name="top"/>
    </contour>
    <contour>
      <point x="261" y="-14" type="move" name="bottom"/>
    </contour>
  </outline>
</glyph>
<glyph name="T" format="1">
  <advance width="480"/>
  <unicode hex="0054"/>
  <outline>
    <contour>
      <point x="297" y="0" type="curve"/>
      <point x="297" y="237"/>
      <point x="297" y="473"/>
      <point x="297" y="710" type="curve"/>
      <point x="183" y="710"/>
      <point x="297" y="710"/>
      <point x="183" y="710" type="curve"/>
      <point x="183" y="473"/>
      <point x="183" y="237"/>
      <point x="183" y="0" type="curve"/>
      <point x="297" y="0"/>
      <point x="183" y="0"/>
    </contour>
    <contour>
      <point x="12" y="628" type="curve"/>
      <point x="163" y="628"/>
      <point x="317" y="628"/>
      <point x="469" y="628" type="curve"/>
      <point x="469" y="726"/>
      <point x="469" y="624"/>
      <point x="469" y="722" type="curve"/>
      <point x="317" y="722"/>
      <point x="163" y="722"/>
      <point x="12" y="722" type="curve"/>
      <point x="12" y="624"/>
      <point x="12" y="726"/>
    </contour>
    <contour>
      <point x="240" y="791" type="move" name="top"/>
    </contour>
    <contour>
      <point x="288" y="-19" type="move" name="bottom"/>
    </contour>
  </outline>
</glyph>
<glyph name="V" format="1">
  <advance width="548"/>
  <unicode hex="0056"/>
  <outline>
    <contour>
      <point x="424" y="722" type="curve"/>
      <point x="358" y="480"/>
      <point x="294" y="242"/>
      <point x="231" y="0" type="curve"/>
      <point x="348" y="0"/>
      <point x="219" y="0"/>
      <point x="335" y="0" type="curve"/>
      <point x="404" y="241"/>
      <point x="471" y="481"/>
      <point x="540" y="722" type="curve"/>
      <point x="424" y="722"/>
      <point x="540" y="722"/>
    </contour>
    <contour>
      <point x="6" y="722" type="curve"/>
      <point x="75" y="481"/>
      <point x="145" y="241"/>
      <point x="214" y="0" type="curve"/>
      <point x="331" y="0"/>
      <point x="204" y="0"/>
      <point x="321" y="0" type="curve"/>
      <point x="256" y="242"/>
      <point x="190" y="482"/>
      <point x="123" y="722" type="curve"/>
      <point x="6" y="722"/>
      <point x="123" y="722"/>
    </contour>
  </outline>
</glyph>
<glyph name="W" format="1">
  <advance width="705"/>
  <unicode hex="0057"/>
  <outline>
    <contour>
      <point x="256" y="0" type="curve"/>
      <point x="306" y="241"/>
      <point x="355" y="481"/>
      <point x="404" y="722" type="curve"/>
      <point x="308" y="722"/>
      <point x="404" y="722"/>
      <point x="308" y="722" type="curve"/>
      <point x="262" y="482"/>
      <point x="218" y="243"/>
      <point x="171" y="0" type="curve"/>
      <point x="263" y="0"/>
      <point x="164" y="0"/>
    </contour>
    <contour>
      <point x="313" y="722" type="curve"/>
      <point x="358" y="481"/>
      <point x="402" y="241"/>
      <point x="447" y="0" type="curve"/>
      <point x="539" y="0"/>
      <point x="437" y="0"/>
      <point x="529" y="0" type="curve"/>
      <point x="488" y="244"/>
      <point x="450" y="481"/>
      <point x="409" y="722" type="curve"/>
      <point x="313" y="722"/>
      <point x="410" y="722"/>
    </contour>
    <contour>
      <point x="24" y="722" type="curve"/>
      <point x="69" y="481"/>
      <point x="114" y="241"/>
      <point x="159" y="0" type="curve"/>
      <point x="252" y="0"/>
      <point x="159" y="0"/>
      <point x="252" y="0" type="curve"/>
      <point x="209" y="241"/>
      <point x="166" y="481"/>
      <point x="123" y="722" type="curve"/>
      <point x="24" y="722"/>
      <point x="123" y="722"/>
    </contour>
    <contour>
      <point x="586" y="722" type="curve"/>
      <point x="541" y="481"/>
      <point x="496" y="241"/>
      <point x="451" y="0" type="curve"/>
      <point x="544" y="0"/>
      <point x="451" y="0"/>
      <point x="544" y="0" type="curve"/>
      <point x="590" y="241"/>
      <point x="637" y="481"/>
      <point x="685" y="722" type="curve"/>
      <point x="586" y="722"/>
      <point x="685" y="722"/>
    </contour>
  </outline>
</glyph>
<glyph name="X" format="1">
  <advance width="504"/>
  <unicode hex="0058"/>
  <outline>
    <contour>
      <point x="373" y="722" type="curve"/>
      <point x="250" y="481"/>
      <point x="128" y="241"/>
      <point x="4" y="0" type="curve"/>
      <point x="118" y="0"/>
      <point x="4" y="0"/>
      <point x="118" y="0" type="curve"/>
      <point x="240" y="241"/>
      <point x="362" y="481"/>
      <point x="484" y="722" type="curve"/>
      <point x="373" y="722"/>
      <point x="484" y="722"/>
    </contour>
    <contour>
      <point x="22" y="722" type="curve"/>
      <point x="142" y="481"/>
      <point x="264" y="241"/>
      <point x="385" y="0" type="curve"/>
      <point x="497" y="0"/>
      <point x="385" y="0"/>
      <point x="497" y="0" type="curve"/>
      <point x="375" y="241"/>
      <point x="254" y="481"/>
      <point x="132" y="722" type="curve"/>
      <point x="22" y="722"/>
      <point x="132" y="722"/>
    </contour>
  </outline>
</glyph>
<glyph name="Y" format="1">
  <advance width="489"/>
  <unicode hex="0059"/>
  <outline>
    <contour>
      <point x="12" y="722" type="curve"/>
      <point x="70" y="594"/>
      <point x="125" y="468"/>
      <point x="182" y="337" type="curve"/>
      <point x="298" y="337"/>
      <point x="165" y="337"/>
      <point x="281" y="337" type="curve"/>
      <point x="231" y="469"/>
      <point x="182" y="592"/>
      <point x="129" y="722" type="curve"/>
      <point x="12" y="722"/>
      <point x="129" y="722"/>
    </contour>
    <contour>
      <point x="369" y="722" type="curve"/>
      <point x="311" y="590"/>
      <point x="259" y="468"/>
      <point x="199" y="337" type="curve"/>
      <point x="315" y="337"/>
      <point x="190" y="337"/>
      <point x="306" y="337" type="curve"/>
      <point x="366" y="467"/>
      <point x="424" y="594"/>
      <point x="486" y="722" type="curve"/>
      <point x="369" y="722"/>
      <point x="486" y="722"/>
    </contour>
    <contour>
      <point x="306" y="0" type="curve"/>
      <point x="306" y="115"/>
      <point x="306" y="224"/>
      <point x="306" y="339" type="curve"/>
      <point x="182" y="339"/>
      <point x="306" y="339"/>
      <point x="182" y="339" type="curve"/>
      <point x="182" y="224"/>
      <point x="182" y="115"/>
      <point x="182" y="0" type="curve"/>
      <point x="306" y="0"/>
      <point x="182" y="0"/>
    </contour>
    <contour>
      <point x="249" y="791" type="move" name="top"/>
    </contour>
  </outline>
</glyph>
<glyph name="bracketleft" format="1">
  <advance width="266"/>
  <unicode hex="005B"/>
  <outline>
    <contour>
      <point x="230" y="769" type="curve"/>
      <point x="192" y="769"/>
      <point x="155" y="769"/>
      <point x="117" y="769" type="curve"/>
      <point x="105" y="769"/>
      <point x="77" y="769"/>
      <point x="65" y="769" type="curve"/>
      <point x="65" y="756"/>
      <point x="65" y="740"/>
      <point x="65" y="726" type="curve"/>
      <point x="65" y="459"/>
      <point x="65" y="193"/>
      <point x="65" y="-74" type="curve"/>
      <point x="65" y="-88"/>
      <point x="65" y="-97"/>
      <point x="65" y="-116" type="curve"/>
      <point x="77" y="-116"/>
      <point x="103" y="-116"/>
      <point x="116" y="-116" type="curve"/>
      <point x="154" y="-116"/>
      <point x="192" y="-116"/>
      <point x="230" y="-116" type="curve"/>
      <point x="230" y="-18"/>
      <point x="230" y="-116"/>
      <point x="230" y="-18" type="curve"/>
      <point x="192" y="-18"/>
      <point x="154" y="-18"/>
      <point x="116" y="-18" type="curve"/>
      <point x="179" y="-18"/>
      <point x="116" y="-18"/>
      <point x="179" y="-18" type="curve"/>
      <point x="179" y="-74"/>
      <point x="179" y="-18"/>
      <point x="179" y="-74" type="curve"/>
      <point x="179" y="193"/>
      <point x="179" y="459"/>
      <point x="179" y="726" type="curve"/>
      <point x="179" y="672"/>
      <point x="179" y="726"/>
      <point x="179" y="672" type="curve"/>
      <point x="117" y="672"/>
      <point x="179" y="672"/>
      <point x="117" y="672" type="curve"/>
      <point x="155" y="672"/>
      <point x="192" y="672"/>
      <point x="230" y="672" type="curve"/>
      <point x="230" y="769"/>
      <point x="230" y="672"/>
    </contour>
  </outline>
</glyph>
<glyph name="backslash" format="1">
  <advance width="453"/>
  <unicode hex="005C"/>
  <outline>
    <contour>
      <point x="431" y="-68" type="curve"/>
      <point x="334" y="236"/>
      <point x="238" y="540"/>
      <point x="141" y="844" type="curve"/>
      <point x="22" y="844"/>
      <point x="141" y="844"/>
      <point x="22" y="844" type="curve"/>
      <point x="119" y="540"/>
      <point x="215" y="236"/>
      <point x="312" y="-68" type="curve"/>
      <point x="431" y="-68"/>
      <point x="312" y="-68"/>
    </contour>
  </outline>
</glyph>
<glyph name="bracketright" format="1">
  <advance width="267"/>
  <unicode hex="005D"/>
  <outline>
    <contour>
      <point x="38" y="672" type="curve"/>
      <point x="75" y="672"/>
      <point x="113" y="672"/>
      <point x="150" y="672" type="curve"/>
      <point x="140" y="682"/>
      <point x="124" y="683"/>
      <point x="115" y="693" type="curve"/>
      <point x="106" y="704"/>
      <point x="97" y="716"/>
      <point x="89" y="726" type="curve"/>
      <point x="89" y="459"/>
      <point x="88" y="193"/>
      <point x="89" y="-74" type="curve"/>
      <point x="97" y="-62"/>
      <point x="108" y="-53"/>
      <point x="118" y="-42" type="curve"/>
      <point x="127" y="-31"/>
      <point x="142" y="-28"/>
      <point x="151" y="-18" type="curve"/>
      <point x="113" y="-18"/>
      <point x="75" y="-18"/>
      <point x="38" y="-18" type="curve"/>
      <point x="37" y="-116"/>
      <point x="38" y="-18"/>
      <point x="37" y="-116" type="curve"/>
      <point x="75" y="-116"/>
      <point x="113" y="-116"/>
      <point x="151" y="-116" type="curve"/>
      <point x="202" y="-116"/>
      <point x="151" y="-116"/>
      <point x="202" y="-116" type="curve"/>
      <point x="202" y="-74"/>
      <point x="202" y="-116"/>
      <point x="202" y="-74" type="curve"/>
      <point x="202" y="193"/>
      <point x="202" y="459"/>
      <point x="202" y="726" type="curve"/>
      <point x="202" y="769"/>
      <point x="202" y="726"/>
      <point x="202" y="769" type="curve"/>
      <point x="150" y="769"/>
      <point x="202" y="769"/>
      <point x="150" y="769" type="curve"/>
      <point x="113" y="769"/>
      <point x="75" y="769"/>
      <point x="38" y="769" type="curve"/>
      <point x="38" y="672"/>
      <point x="38" y="769"/>
    </contour>
  </outline>
</glyph>
<glyph name="asciicircum" format="1">
  <advance width="445"/>
  <unicode hex="005E"/>
  <outline>
    <contour>
      <point x="150" y="456" type="curve"/>
      <point x="193" y="561"/>
      <point x="236" y="664"/>
      <point x="279" y="768" type="curve"/>
      <point x="165" y="768"/>
      <point x="279" y="768"/>
      <point x="165" y="768" type="curve"/>
      <point x="122" y="664"/>
      <point x="79" y="561"/>
      <point x="36" y="456" type="curve"/>
      <point x="150" y="456"/>
      <point x="36" y="456"/>
    </contour>
    <contour>
      <point x="408" y="456" type="curve"/>
      <point x="366" y="558"/>
      <point x="321" y="665"/>
      <point x="279" y="768" type="curve"/>
      <point x="165" y="768"/>
      <point x="279" y="768"/>
      <point x="165" y="768" type="curve"/>
      <point x="207" y="665"/>
      <point x="252" y="558"/>
      <point x="294" y="456" type="curve"/>
      <point x="408" y="456"/>
      <point x="294" y="456"/>
    </contour>
  </outline>
</glyph>
<glyph name="underscore" format="1">
  <advance width="503"/>
  <unicode hex="005F"/>
  <outline>
    <contour>
      <point x="0" y="-190" type="curve"/>
      <point x="167" y="-190"/>
      <point x="335" y="-190"/>
      <point x="502" y="-190" type="curve"/>
      <point x="502" y="-100"/>
      <point x="502" y="-190"/>
      <point x="502" y="-100" type="curve"/>
      <point x="335" y="-100"/>
      <point x="167" y="-100"/>
      <point x="0" y="-100" type="curve"/>
      <point x="0" y="-190"/>
      <point x="0" y="-100"/>
    </contour>
  </outline>
</glyph>
<glyph name="b" format="1">
  <advance width="531"/>
  <unicode hex="0062"/>
  <outline>
    <contour>
      <point x="154" y="363" type="curve"/>
      <point x="176" y="397"/>
      <point x="218" y="446"/>
      <point x="277" y="446" type="curve"/>
      <point x="358" y="446"/>
      <point x="377" y="359"/>
      <point x="377" y="263" type="curve"/>
      <point x="378" y="171"/>
      <point x="355" y="87"/>
      <point x="279" y="87" type="curve"/>
      <point x="229" y="87"/>
      <point x="192" y="115"/>
      <point x="162" y="158" type="curve"/>
      <point x="104" y="118"/>
      <point x="163" y="157"/>
      <point x="104" y="117" type="curve"/>
      <point x="147" y="47"/>
      <point x="201" y="-5"/>
      <point x="290" y="-5" type="curve"/>
      <point x="424" y="-5"/>
      <point x="491" y="114"/>
      <point x="491" y="268" type="curve"/>
      <point x="491" y="419"/>
      <point x="426" y="538"/>
      <point x="292" y="538" type="curve"/>
      <point x="200" y="538"/>
      <point x="140" y="468"/>
      <point x="106" y="404" type="curve"/>
      <point x="154" y="364"/>
      <point x="106" y="402"/>
    </contour>
    <contour>
      <point x="181" y="0" type="curve"/>
      <point x="181" y="267"/>
      <point x="181" y="533"/>
      <point x="181" y="800" type="curve"/>
      <point x="67" y="800"/>
      <point x="181" y="800"/>
      <point x="67" y="800" type="curve"/>
      <point x="67" y="533"/>
      <point x="67" y="267"/>
      <point x="67" y="0" type="curve"/>
      <point x="181" y="0"/>
      <point x="67" y="0"/>
    </contour>
  </outline>
</glyph>
<glyph name="c" format="1">
  <advance width="440"/>
  <unicode hex="0063"/>
  <outline>
    <contour>
      <point x="410" y="470" type="curve"/>
      <point x="370" y="508"/>
      <point x="318" y="538"/>
      <point x="260" y="538" type="curve"/>
      <point x="110" y="538"/>
      <point x="40" y="432"/>
      <point x="40" y="267" type="curve"/>
      <point x="40" y="103"/>
      <point x="108" y="-5"/>
      <point x="258" y="-5" type="curve"/>
      <point x="324" y="-5"/>
      <point x="385" y="27"/>
      <point x="420" y="93" type="curve"/>
      <point x="344" y="147"/>
      <point x="420" y="93"/>
      <point x="344" y="147" type="curve"/>
      <point x="325" y="119"/>
      <point x="299" y="87"/>
      <point x="264" y="87" type="curve"/>
      <point x="177" y="87"/>
      <point x="154" y="165"/>
      <point x="154" y="267" type="curve"/>
      <point x="154" y="368"/>
      <point x="175" y="446"/>
      <point x="259" y="446" type="curve"/>
      <point x="291" y="446"/>
      <point x="320" y="429"/>
      <point x="342" y="408" type="curve"/>
      <point x="410" y="470"/>
      <point x="342" y="408"/>
    </contour>
    <contour>
      <point x="253" y="625" type="move" name="top"/>
    </contour>
    <contour>
      <point x="285" y="3" type="move" name="bottom"/>
    </contour>
  </outline>
</glyph>
<glyph name="e" format="1">
  <advance width="473"/>
  <unicode hex="0065"/>
  <outline>
    <contour>
      <point x="98" y="237" type="curve"/>
      <point x="194" y="237"/>
      <point x="290" y="237"/>
      <point x="387" y="237" type="curve"/>
      <point x="434" y="237"/>
      <point x="387" y="237"/>
      <point x="434" y="237" type="curve"/>
      <point x="434" y="274"/>
      <point x="434" y="237"/>
      <point x="434" y="274" type="curve"/>
      <point x="434" y="281"/>
      <point x="434" y="288"/>
      <point x="434" y="295" type="curve"/>
      <point x="434" y="440"/>
      <point x="377" y="538"/>
      <point x="245" y="538" type="curve"/>
      <point x="103" y="538"/>
      <point x="40" y="435"/>
      <point x="40" y="279" type="curve"/>
      <point x="40" y="110"/>
      <point x="107" y="-5"/>
      <point x="260" y="-5" type="curve"/>
      <point x="327" y="-5"/>
      <point x="369" y="23"/>
      <point x="417" y="74" type="curve"/>
      <point x="348" y="136"/>
      <point x="417" y="74"/>
      <point x="348" y="136" type="curve"/>
      <point x="323" y="106"/>
      <point x="298" y="88"/>
      <point x="260" y="88" type="curve"/>
      <point x="169" y="88"/>
      <point x="153" y="172"/>
      <point x="153" y="279" type="curve"/>
      <point x="153" y="371"/>
      <point x="161" y="446"/>
      <point x="240" y="446" type="curve"/>
      <point x="308" y="446"/>
      <point x="326" y="384"/>
      <point x="326" y="303" type="curve"/>
      <point x="326" y="293"/>
      <point x="326" y="284"/>
      <point x="326" y="274" type="curve"/>
      <point x="335" y="284"/>
      <point x="346" y="293"/>
      <point x="355" y="302" type="curve"/>
      <point x="364" y="312"/>
      <point x="378" y="311"/>
      <point x="387" y="321" type="curve"/>
      <point x="290" y="321"/>
      <point x="194" y="321"/>
      <point x="98" y="321" type="curve"/>
      <point x="98" y="233"/>
      <point x="98" y="326"/>
    </contour>
    <contour>
      <point x="247" y="625" type="move" name="top"/>
    </contour>
    <contour>
      <point x="309" y="9" type="move" name="bottom"/>
    </contour>
  </outline>
</glyph>
<glyph name="f" format="1">
  <advance width="349"/>
  <unicode hex="0066"/>
  <outline>
    <contour>
      <point x="23" y="444" type="curve"/>
      <point x="326" y="444" type="line"/>
      <point x="326" y="533"/>
      <point x="326" y="444"/>
      <point x="326" y="533" type="curve"/>
      <point x="23" y="533" type="line"/>
      <point x="23" y="444"/>
      <point x="23" y="533"/>
    </contour>
    <contour>
      <point x="216" y="0" type="curve"/>
      <point x="216" y="613" type="line"/>
      <point x="216" y="669"/>
      <point x="219" y="720"/>
      <point x="267" y="720" type="curve"/>
      <point x="287" y="720"/>
      <point x="304" y="710"/>
      <point x="320" y="700" type="curve"/>
      <point x="366" y="771"/>
      <point x="320" y="700"/>
      <point x="366" y="771" type="curve"/>
      <point x="337" y="791"/>
      <point x="303" y="805"/>
      <point x="267" y="805" type="curve"/>
      <point x="160" y="805"/>
      <point x="101" y="724"/>
      <point x="102" y="613" type="curve"/>
      <point x="102" y="0" type="line"/>
      <point x="216" y="0"/>
      <point x="102" y="0"/>
    </contour>
  </outline>
</glyph>
<glyph name="g" format="1">
  <advance width="463"/>
  <unicode hex="0067"/>
  <outline>
    <contour>
      <point x="326" y="444" type="curve"/>
      <point x="436" y="506" type="line"/>
      <point x="432" y="511"/>
      <point x="392" y="583"/>
      <point x="389" y="587" type="curve"/>
      <point x="264" y="515" type="line"/>
      <point x="326" y="444"/>
      <point x="264" y="515"/>
    </contour>
    <contour>
      <point x="160" y="341" type="curve"/>
      <point x="160" y="398"/>
      <point x="181" y="449"/>
      <point x="232" y="449" type="curve"/>
      <point x="284" y="449"/>
      <point x="302" y="398"/>
      <point x="302" y="341" type="curve"/>
      <point x="302" y="288"/>
      <point x="283" y="240"/>
      <point x="232" y="240" type="curve"/>
      <point x="184" y="240"/>
      <point x="160" y="286"/>
      <point x="160" y="341" type="curve"/>
      <point x="46" y="337"/>
      <point x="160" y="341"/>
      <point x="46" y="337" type="curve"/>
      <point x="46" y="227"/>
      <point x="117" y="152"/>
      <point x="227" y="152" type="curve"/>
      <point x="340" y="152"/>
      <point x="416" y="229"/>
      <point x="416" y="345" type="curve"/>
      <point x="416" y="457"/>
      <point x="344" y="537"/>
      <point x="232" y="537" type="curve"/>
      <point x="117" y="537"/>
      <point x="46" y="454"/>
      <point x="46" y="337" type="curve"/>
      <point x="160" y="341"/>
      <point x="46" y="337"/>
    </contour>
    <contour>
      <point x="131" y="242" type="curve"/>
      <point x="82" y="209"/>
      <point x="49" y="170"/>
      <point x="49" y="111" type="curve"/>
      <point x="49" y="23"/>
      <point x="124" y="-19"/>
      <point x="218" y="-29" type="curve"/>
      <point x="287" y="-36"/>
      <point x="348" y="-58"/>
      <point x="348" y="-125" type="curve"/>
      <point x="348" y="-186"/>
      <point x="296" y="-216"/>
      <point x="231" y="-216" type="curve"/>
      <point x="169" y="-216"/>
      <point x="127" y="-175"/>
      <point x="127" y="-111" type="curve"/>
      <point x="127" y="-60"/>
      <point x="143" y="-16"/>
      <point x="185" y="5" type="curve"/>
      <point x="128" y="59"/>
      <point x="185" y="5"/>
      <point x="128" y="59" type="curve"/>
      <point x="57" y="23"/>
      <point x="13" y="-33"/>
      <point x="13" y="-115" type="curve"/>
      <point x="13" y="-235"/>
      <point x="103" y="-305"/>
      <point x="226" y="-305" type="curve"/>
      <point x="354" y="-305"/>
      <point x="453" y="-238"/>
      <point x="452" y="-116" type="curve"/>
      <point x="452" y="-4"/>
      <point x="355" y="44"/>
      <point x="239" y="56" type="curve"/>
      <point x="196" y="59"/>
      <point x="163" y="80"/>
      <point x="163" y="120" type="curve"/>
      <point x="163" y="148"/>
      <point x="170" y="166"/>
      <point x="191" y="184" type="curve"/>
      <point x="131" y="242"/>
      <point x="191" y="184"/>
    </contour>
    <contour>
      <point x="231" y="625" type="move" name="top"/>
    </contour>
  </outline>
</glyph>
<glyph name="h" format="1">
  <advance width="517"/>
  <unicode hex="0068"/>
  <outline>
    <contour>
      <point x="155" y="314" type="curve"/>
      <point x="173" y="377"/>
      <point x="209" y="446"/>
      <point x="271" y="446" type="curve"/>
      <point x="336" y="446"/>
      <point x="341" y="387"/>
      <point x="341" y="316" type="curve"/>
      <point x="341" y="211"/>
      <point x="341" y="106"/>
      <point x="341" y="0" type="curve"/>
      <point x="455" y="0"/>
      <point x="341" y="0"/>
      <point x="455" y="0" type="curve"/>
      <point x="455" y="108"/>
      <point x="455" y="217"/>
      <point x="455" y="325" type="curve"/>
      <point x="455" y="446"/>
      <point x="422" y="534"/>
      <point x="304" y="534" type="curve"/>
      <point x="214" y="534"/>
      <point x="145" y="454"/>
      <point x="125" y="359" type="curve"/>
      <point x="156" y="314"/>
      <point x="124" y="359"/>
    </contour>
    <contour>
      <point x="181" y="0" type="curve"/>
      <point x="181" y="267"/>
      <point x="181" y="533"/>
      <point x="181" y="800" type="curve"/>
      <point x="67" y="800"/>
      <point x="181" y="800"/>
      <point x="67" y="800" type="curve"/>
      <point x="67" y="533"/>
      <point x="67" y="267"/>
      <point x="67" y="0" type="curve"/>
      <point x="181" y="0"/>
      <point x="67" y="0"/>
    </contour>
  </outline>
</glyph>
<glyph name="i" format="1">
  <advance width="243"/>
  <unicode hex="0069"/>
  <outline>
    <contour>
      <point x="182" y="0" type="curve"/>
      <point x="182" y="178"/>
      <point x="182" y="355"/>
      <point x="182" y="533" type="curve"/>
      <point x="62" y="533"/>
      <point x="182" y="533"/>
      <point x="62" y="533" type="curve"/>
      <point x="62" y="355"/>
      <point x="62" y="178"/>
      <point x="62" y="0" type="curve"/>
      <point x="182" y="0"/>
      <point x="62" y="0"/>
    </contour>
    <contour>
      <point x="180" y="680" type="curve"/>
      <point x="180" y="719"/>
      <point x="153" y="739"/>
      <point x="118" y="739" type="curve"/>
      <point x="82" y="739"/>
      <point x="58" y="718"/>
      <point x="58" y="680" type="curve"/>
      <point x="180" y="680"/>
      <point x="58" y="680"/>
      <point x="180" y="680" type="curve"/>
      <point x="180" y="640"/>
      <point x="154" y="622"/>
      <point x="118" y="622" type="curve"/>
      <point x="81" y="622"/>
      <point x="58" y="642"/>
      <point x="58" y="680" type="curve"/>
      <point x="180" y="680"/>
      <point x="58" y="680"/>
    </contour>
    <contour>
      <point x="118" y="626" type="move" name="top"/>
    </contour>
    <contour>
      <point x="174" y="3" type="move" name="bottom"/>
    </contour>
  </outline>
</glyph>
<glyph name="j" format="1">
  <advance width="230"/>
  <unicode hex="006A"/>
  <outline>
    <contour>
      <point x="-16" y="-303" type="curve"/>
      <point x="-9" y="-304"/>
      <point x="1" y="-305"/>
      <point x="10" y="-305" type="curve"/>
      <point x="112" y="-305"/>
      <point x="178" y="-229"/>
      <point x="178" y="-125" type="curve"/>
      <point x="178" y="94"/>
      <point x="178" y="314"/>
      <point x="178" y="534" type="curve"/>
      <point x="64" y="534"/>
      <point x="178" y="534"/>
      <point x="64" y="534" type="curve"/>
      <point x="64" y="314"/>
      <point x="64" y="94"/>
      <point x="64" y="-125" type="curve"/>
      <point x="64" y="-171"/>
      <point x="56" y="-219"/>
      <point x="15" y="-219" type="curve"/>
      <point x="10" y="-219"/>
      <point x="6" y="-219"/>
      <point x="0" y="-218" type="curve"/>
      <point x="-16" y="-302"/>
      <point x="0" y="-219"/>
    </contour>
    <contour>
      <point x="180" y="674" type="curve"/>
      <point x="180" y="714"/>
      <point x="154" y="733"/>
      <point x="119" y="733" type="curve"/>
      <point x="83" y="733"/>
      <point x="59" y="712"/>
      <point x="59" y="674" type="curve"/>
      <point x="180" y="674"/>
      <point x="59" y="674"/>
      <point x="180" y="674" type="curve"/>
      <point x="180" y="634"/>
      <point x="155" y="616"/>
      <point x="119" y="616" type="curve"/>
      <point x="82" y="616"/>
      <point x="59" y="636"/>
      <point x="59" y="674" type="curve"/>
      <point x="180" y="674"/>
      <point x="59" y="674"/>
    </contour>
  </outline>
</glyph>
<glyph name="k" format="1">
  <advance width="505"/>
  <unicode hex="006B"/>
  <outline>
    <contour>
      <point x="181" y="0" type="curve"/>
      <point x="181" y="800" type="line"/>
      <point x="67" y="800"/>
      <point x="181" y="800"/>
      <point x="67" y="800" type="curve"/>
      <point x="67" y="533"/>
      <point x="67" y="267"/>
      <point x="67" y="0" type="curve"/>
      <point x="181" y="0"/>
      <point x="67" y="0"/>
    </contour>
    <contour>
      <point x="339" y="533" type="curve"/>
      <point x="161" y="275" type="line"/>
      <point x="271" y="275"/>
      <point x="174" y="275"/>
      <point x="285" y="275" type="curve"/>
      <point x="469" y="533" type="line"/>
      <point x="374" y="533"/>
      <point x="434" y="533"/>
    </contour>
    <contour>
      <point x="487" y="0" type="curve"/>
      <point x="285" y="275" type="line"/>
      <point x="174" y="275"/>
      <point x="271" y="275"/>
      <point x="161" y="275" type="curve"/>
      <point x="358" y="0" type="line"/>
      <point x="445" y="0"/>
      <point x="401" y="0"/>
    </contour>
    <contour>
      <point x="319" y="-20" type="move" name="bottom"/>
    </contour>
  </outline>
</glyph>
<glyph name="m" format="1">
  <advance width="733"/>
  <unicode hex="006D"/>
  <outline>
    <contour>
      <point x="400" y="291" type="curve"/>
      <point x="419" y="365"/>
      <point x="438" y="446"/>
      <point x="499" y="446" type="curve"/>
      <point x="564" y="446"/>
      <point x="557" y="391"/>
      <point x="557" y="316" type="curve"/>
      <point x="557" y="211"/>
      <point x="557" y="106"/>
      <point x="557" y="0" type="curve"/>
      <point x="671" y="0"/>
      <point x="557" y="0"/>
      <point x="671" y="0" type="curve"/>
      <point x="671" y="108"/>
      <point x="671" y="217"/>
      <point x="671" y="325" type="curve"/>
      <point x="671" y="453"/>
      <point x="660" y="538"/>
      <point x="539" y="538" type="curve"/>
      <point x="447" y="538"/>
      <point x="394" y="453"/>
      <point x="370" y="343" type="curve"/>
      <point x="404" y="294"/>
      <point x="366" y="341"/>
    </contour>
    <contour>
      <point x="155" y="291" type="curve"/>
      <point x="172" y="364"/>
      <point x="192" y="446"/>
      <point x="254" y="446" type="curve"/>
      <point x="318" y="446"/>
      <point x="312" y="391"/>
      <point x="312" y="316" type="curve"/>
      <point x="312" y="211"/>
      <point x="312" y="106"/>
      <point x="312" y="0" type="curve"/>
      <point x="426" y="0"/>
      <point x="312" y="0"/>
      <point x="426" y="0" type="curve"/>
      <point x="426" y="108"/>
      <point x="426" y="217"/>
      <point x="426" y="325" type="curve"/>
      <point x="426" y="453"/>
      <point x="415" y="538"/>
      <point x="294" y="538" type="curve"/>
      <point x="201" y="538"/>
      <point x="150" y="454"/>
      <point x="125" y="343" type="curve"/>
      <point x="159" y="294"/>
      <point x="121" y="341"/>
    </contour>
    <contour>
      <point x="181" y="0" type="curve"/>
      <point x="181" y="178"/>
      <point x="181" y="355"/>
      <point x="181" y="533" type="curve"/>
      <point x="67" y="533"/>
      <point x="181" y="533"/>
      <point x="67" y="533" type="curve"/>
      <point x="67" y="355"/>
      <point x="67" y="178"/>
      <point x="67" y="0" type="curve"/>
      <point x="181" y="0"/>
      <point x="67" y="0"/>
    </contour>
  </outline>
</glyph>
<glyph name="n" format="1">
  <advance width="517"/>
  <unicode hex="006E"/>
  <outline>
    <contour>
      <point x="158" y="282" type="curve"/>
      <point x="171" y="366"/>
      <point x="209" y="446"/>
      <point x="269" y="446" type="curve"/>
      <point x="331" y="446"/>
      <point x="341" y="388"/>
      <point x="341" y="316" type="curve"/>
      <point x="341" y="211"/>
      <point x="341" y="106"/>
      <point x="341" y="0" type="curve"/>
      <point x="455" y="0"/>
      <point x="341" y="0"/>
      <point x="455" y="0" type="curve"/>
      <point x="455" y="108"/>
      <point x="455" y="217"/>
      <point x="455" y="325" type="curve"/>
      <point x="455" y="448"/>
      <point x="425" y="538"/>
      <point x="310" y="538" type="curve"/>
      <point x="217" y="538"/>
      <point x="146" y="460"/>
      <point x="125" y="334" type="curve"/>
      <point x="159" y="284"/>
      <point x="124" y="332"/>
    </contour>
    <contour>
      <point x="181" y="0" type="curve"/>
      <point x="181" y="178"/>
      <point x="181" y="355"/>
      <point x="181" y="533" type="curve"/>
      <point x="67" y="533"/>
      <point x="181" y="533"/>
      <point x="67" y="533" type="curve"/>
      <point x="67" y="355"/>
      <point x="67" y="178"/>
      <point x="67" y="0" type="curve"/>
      <point x="181" y="0"/>
      <point x="67" y="0"/>
    </contour>
    <contour>
      <point x="261" y="625" type="move" name="top"/>
    </contour>
    <contour>
      <point x="307" y="-16" type="move" name="bottom"/>
    </contour>
  </outline>
</glyph>
<glyph name="o" format="1">
  <advance width="511"/>
  <unicode hex="006F"/>
  <outline>
    <contour>
      <point x="146" y="266" type="curve"/>
      <point x="146" y="360"/>
      <point x="166" y="446"/>
      <point x="251" y="446" type="curve"/>
      <point x="336" y="446"/>
      <point x="358" y="361"/>
      <point x="358" y="265" type="curve"/>
      <point x="358" y="168"/>
      <point x="339" y="87"/>
      <point x="258" y="87" type="curve"/>
      <point x="165" y="88"/>
      <point x="146" y="167"/>
      <point x="146" y="266" type="curve"/>
      <point x="140" y="266"/>
      <point x="46" y="266"/>
      <point x="40" y="266" type="curve"/>
      <point x="40" y="108"/>
      <point x="106" y="-5"/>
      <point x="253" y="-5" type="curve"/>
      <point x="402" y="-5"/>
      <point x="472" y="106"/>
      <point x="472" y="265" type="curve"/>
      <point x="472" y="425"/>
      <point x="404" y="538"/>
      <point x="256" y="538" type="curve"/>
      <point x="107" y="538"/>
      <point x="40" y="425"/>
      <point x="40" y="266" type="curve"/>
      <point x="46" y="266"/>
      <point x="140" y="266"/>
    </contour>
    <contour>
      <point x="254" y="625" type="move" name="top"/>
    </contour>
  </outline>
</glyph>
<glyph name="p" format="1">
  <advance width="535"/>
  <unicode hex="0070"/>
  <outline>
    <contour>
      <point x="156" y="323" type="curve"/>
      <point x="172" y="381"/>
      <point x="218" y="447"/>
      <point x="274" y="447" type="curve"/>
      <point x="367" y="447"/>
      <point x="381" y="360"/>
      <point x="381" y="265" type="curve"/>
      <point x="382" y="169"/>
      <point x="365" y="84"/>
      <point x="276" y="84" type="curve"/>
      <point x="225" y="84"/>
      <point x="190" y="111"/>
      <point x="160" y="152" type="curve"/>
      <point x="119" y="104"/>
      <point x="160" y="152"/>
      <point x="119" y="104" type="curve"/>
      <point x="166" y="35"/>
      <point x="219" y="-5"/>
      <point x="300" y="-5" type="curve"/>
      <point x="446" y="-5"/>
      <point x="495" y="121"/>
      <point x="495" y="270" type="curve"/>
      <point x="495" y="414"/>
      <point x="446" y="539"/>
      <point x="300" y="539" type="curve"/>
      <point x="218" y="539"/>
      <point x="156" y="468"/>
      <point x="125" y="396" type="curve"/>
      <point x="155" y="323"/>
      <point x="126" y="396"/>
    </contour>
    <contour>
      <point x="181" y="-300" type="curve"/>
      <point x="181" y="-22"/>
      <point x="181" y="255"/>
      <point x="181" y="533" type="curve"/>
      <point x="67" y="533"/>
      <point x="181" y="533"/>
      <point x="67" y="533" type="curve"/>
      <point x="67" y="255"/>
      <point x="67" y="-22"/>
      <point x="67" y="-300" type="curve"/>
      <point x="181" y="-300"/>
      <point x="67" y="-300"/>
    </contour>
  </outline>
</glyph>
<glyph name="q" format="1">
  <advance width="537"/>
  <unicode hex="0071"/>
  <outline>
    <contour>
      <point x="414" y="405" type="curve"/>
      <point x="379" y="486"/>
      <point x="313" y="538"/>
      <point x="236" y="538" type="curve"/>
      <point x="88" y="538"/>
      <point x="39" y="413"/>
      <point x="40" y="265" type="curve"/>
      <point x="40" y="116"/>
      <point x="95" y="-5"/>
      <point x="241" y="-5" type="curve"/>
      <point x="316" y="-5"/>
      <point x="377" y="54"/>
      <point x="412" y="123" type="curve"/>
      <point x="377" y="173"/>
      <point x="413" y="124"/>
      <point x="378" y="174" type="curve"/>
      <point x="353" y="124"/>
      <point x="311" y="83"/>
      <point x="259" y="83" type="curve"/>
      <point x="172" y="83"/>
      <point x="154" y="172"/>
      <point x="154" y="270" type="curve"/>
      <point x="154" y="362"/>
      <point x="174" y="446"/>
      <point x="256" y="446" type="curve"/>
      <point x="304" y="446"/>
      <point x="344" y="422"/>
      <point x="382" y="354" type="curve"/>
      <point x="407" y="407"/>
      <point x="389" y="352"/>
    </contour>
    <contour>
      <point x="471" y="-300" type="curve"/>
      <point x="471" y="-22"/>
      <point x="471" y="255"/>
      <point x="471" y="533" type="curve"/>
      <point x="352" y="533"/>
      <point x="471" y="533"/>
      <point x="352" y="533" type="curve"/>
      <point x="352" y="255"/>
      <point x="352" y="-22"/>
      <point x="352" y="-300" type="curve"/>
      <point x="471" y="-300"/>
      <point x="352" y="-300"/>
    </contour>
  </outline>
</glyph>
<glyph name="r" format="1">
  <advance width="326"/>
  <unicode hex="0072"/>
  <outline>
    <contour>
      <point x="181" y="0" type="curve"/>
      <point x="181" y="178"/>
      <point x="181" y="355"/>
      <point x="181" y="533" type="curve"/>
      <point x="67" y="533"/>
      <point x="181" y="533"/>
      <point x="67" y="533" type="curve"/>
      <point x="67" y="355"/>
      <point x="67" y="178"/>
      <point x="67" y="0" type="curve"/>
      <point x="181" y="0"/>
      <point x="67" y="0"/>
    </contour>
    <contour>
      <point x="156" y="305" type="curve"/>
      <point x="184" y="414"/>
      <point x="246" y="446"/>
      <point x="316" y="446" type="curve"/>
      <point x="316" y="539"/>
      <point x="316" y="444"/>
      <point x="316" y="538" type="curve"/>
      <point x="220" y="538"/>
      <point x="147" y="457"/>
      <point x="115" y="350" type="curve"/>
      <point x="154" y="306"/>
      <point x="118" y="348"/>
    </contour>
    <contour>
      <point x="133" y="625" type="move" name="top"/>
    </contour>
    <contour>
      <point x="173" y="-18" type="move" name="bottom"/>
    </contour>
  </outline>
</glyph>
<glyph name="t" format="1">
  <advance width="331"/>
  <unicode hex="0074"/>
  <outline>
    <contour>
      <point x="26" y="443" type="curve"/>
      <point x="315" y="443" type="line"/>
      <point x="315" y="532"/>
      <point x="315" y="443"/>
      <point x="315" y="532" type="curve"/>
      <point x="26" y="532" type="line"/>
      <point x="26" y="443"/>
      <point x="26" y="532"/>
    </contour>
    <contour>
      <point x="277" y="106" type="curve"/>
      <point x="263" y="94"/>
      <point x="252" y="88"/>
      <point x="235" y="88" type="curve"/>
      <point x="198" y="88"/>
      <point x="196" y="123"/>
      <point x="196" y="168" type="curve"/>
      <point x="196" y="680" type="line"/>
      <point x="88" y="612"/>
      <point x="191" y="674"/>
      <point x="82" y="606" type="curve"/>
      <point x="82" y="163" type="line"/>
      <point x="82" y="59"/>
      <point x="124" y="-6"/>
      <point x="219" y="-6" type="curve"/>
      <point x="260" y="-6"/>
      <point x="288" y="7"/>
      <point x="324" y="29" type="curve"/>
      <point x="277" y="106"/>
      <point x="324" y="29"/>
    </contour>
    <contour>
      <point x="257" y="-14" type="move" name="bottom"/>
    </contour>
  </outline>
</glyph>
<glyph name="v" format="1">
  <advance width="476"/>
  <unicode hex="0076"/>
  <outline>
    <contour>
      <point x="17" y="533" type="curve"/>
      <point x="68" y="355"/>
      <point x="119" y="178"/>
      <point x="170" y="0" type="curve"/>
      <point x="277" y="0"/>
      <point x="170" y="0"/>
      <point x="277" y="0" type="curve"/>
      <point x="226" y="177"/>
      <point x="183" y="356"/>
      <point x="133" y="533" type="curve"/>
      <point x="17" y="533"/>
      <point x="133" y="533"/>
    </contour>
    <contour>
      <point x="349" y="533" type="curve"/>
      <point x="196" y="0" type="line"/>
      <point x="303" y="0"/>
      <point x="196" y="0"/>
      <point x="303" y="0" type="curve"/>
      <point x="357" y="178"/>
      <point x="411" y="355"/>
      <point x="465" y="533" type="curve"/>
      <point x="349" y="533"/>
      <point x="465" y="533"/>
    </contour>
  </outline>
</glyph>
<glyph name="w" format="1">
  <advance width="693"/>
  <unicode hex="0077"/>
  <outline>
    <contour>
      <point x="250" y="0" type="curve"/>
      <point x="300" y="178"/>
      <point x="350" y="355"/>
      <point x="400" y="533" type="curve"/>
      <point x="300" y="533"/>
      <point x="400" y="533"/>
      <point x="300" y="533" type="curve"/>
      <point x="251" y="355"/>
      <point x="202" y="178"/>
      <point x="153" y="0" type="curve"/>
      <point x="250" y="0"/>
      <point x="153" y="0"/>
    </contour>
    <contour>
      <point x="579" y="533" type="curve"/>
      <point x="533" y="355"/>
      <point x="486" y="178"/>
      <point x="441" y="0" type="curve"/>
      <point x="537" y="0"/>
      <point x="441" y="0"/>
      <point x="537" y="0" type="curve"/>
      <point x="585" y="178"/>
      <point x="632" y="355"/>
      <point x="678" y="533" type="curve"/>
      <point x="579" y="533"/>
      <point x="678" y="533"/>
    </contour>
    <contour>
      <point x="305" y="533" type="curve"/>
      <point x="350" y="355"/>
      <point x="395" y="178"/>
      <point x="440" y="0" type="curve"/>
      <point x="537" y="0"/>
      <point x="440" y="0"/>
      <point x="537" y="0" type="curve"/>
      <point x="493" y="178"/>
      <point x="448" y="355"/>
      <point x="404" y="533" type="curve"/>
      <point x="305" y="533"/>
      <point x="404" y="533"/>
    </contour>
    <contour>
      <point x="18" y="533" type="curve"/>
      <point x="62" y="355"/>
      <point x="108" y="178"/>
      <point x="153" y="0" type="curve"/>
      <point x="249" y="0"/>
      <point x="153" y="0"/>
      <point x="249" y="0" type="curve"/>
      <point x="205" y="178"/>
      <point x="161" y="355"/>
      <point x="116" y="533" type="curve"/>
      <point x="18" y="533"/>
      <point x="116" y="533"/>
    </contour>
  </outline>
</glyph>
<glyph name="x" format="1">
  <advance width="476"/>
  <unicode hex="0078"/>
  <outline>
    <contour>
      <point x="465" y="0" type="curve"/>
      <point x="441" y="43"/>
      <point x="154" y="490"/>
      <point x="130" y="533" type="curve"/>
      <point x="12" y="533"/>
      <point x="130" y="533"/>
      <point x="12" y="533" type="curve"/>
      <point x="36" y="490"/>
      <point x="322" y="43"/>
      <point x="346" y="0" type="curve"/>
      <point x="465" y="0"/>
      <point x="346" y="0"/>
    </contour>
    <contour>
      <point x="350" y="533" type="curve"/>
      <point x="326" y="490"/>
      <point x="35" y="43"/>
      <point x="11" y="0" type="curve"/>
      <point x="129" y="0"/>
      <point x="11" y="0"/>
      <point x="129" y="0" type="curve"/>
      <point x="153" y="43"/>
      <point x="442" y="490"/>
      <point x="465" y="533" type="curve"/>
      <point x="350" y="533"/>
      <point x="465" y="533"/>
    </contour>
  </outline>
</glyph>
<glyph name="braceleft" format="1">
  <advance width="239"/>
  <unicode hex="007B"/>
  <outline>
    <contour>
      <point x="200" y="-23" type="curve"/>
      <point x="163" y="-23"/>
      <point x="166" y="15"/>
      <point x="166" y="56" type="curve"/>
      <point x="166" y="109"/>
      <point x="166" y="162"/>
      <point x="166" y="215" type="curve"/>
      <point x="166" y="313"/>
      <point x="121" y="387"/>
      <point x="30" y="387" type="curve"/>
      <point x="30" y="294"/>
      <point x="30" y="387"/>
      <point x="30" y="294" type="curve"/>
      <point x="61" y="294"/>
      <point x="63" y="260"/>
      <point x="63" y="224" type="curve"/>
      <point x="63" y="169"/>
      <point x="63" y="115"/>
      <point x="63" y="61" type="curve"/>
      <point x="63" y="-39"/>
      <point x="107" y="-112"/>
      <point x="200" y="-112" type="curve"/>
      <point x="200" y="-23"/>
      <point x="200" y="-112"/>
    </contour>
    <contour>
      <point x="200" y="792" type="curve"/>
      <point x="107" y="792"/>
      <point x="63" y="722"/>
      <point x="63" y="623" type="curve"/>
      <point x="63" y="567"/>
      <point x="63" y="510"/>
      <point x="63" y="454" type="curve"/>
      <point x="63" y="418"/>
      <point x="60" y="387"/>
      <point x="30" y="387" type="curve"/>
      <point x="30" y="294"/>
      <point x="30" y="387"/>
      <point x="30" y="294" type="curve"/>
      <point x="122" y="294"/>
      <point x="166" y="367"/>
      <point x="166" y="468" type="curve"/>
      <point x="166" y="519"/>
      <point x="166" y="571"/>
      <point x="166" y="623" type="curve"/>
      <point x="166" y="665"/>
      <point x="163" y="703"/>
      <point x="200" y="703" type="curve"/>
      <point x="200" y="792"/>
      <point x="200" y="703"/>
    </contour>
  </outline>
</glyph>
<glyph name="braceright" format="1">
  <advance width="239"/>
  <unicode hex="007D"/>
  <outline>
    <contour>
      <point x="38" y="-112" type="curve"/>
      <point x="130" y="-112"/>
      <point x="175" y="-39"/>
      <point x="175" y="61" type="curve"/>
      <point x="175" y="115"/>
      <point x="175" y="169"/>
      <point x="175" y="224" type="curve"/>
      <point x="175" y="260"/>
      <point x="176" y="294"/>
      <point x="208" y="294" type="curve"/>
      <point x="208" y="387"/>
      <point x="208" y="294"/>
      <point x="208" y="387" type="curve"/>
      <point x="116" y="387"/>
      <point x="72" y="313"/>
      <point x="72" y="215" type="curve"/>
      <point x="72" y="162"/>
      <point x="72" y="109"/>
      <point x="72" y="56" type="curve"/>
      <point x="72" y="15"/>
      <point x="74" y="-23"/>
      <point x="38" y="-23" type="curve"/>
      <point x="38" y="-112"/>
      <point x="38" y="-23"/>
    </contour>
    <contour>
      <point x="38" y="703" type="curve"/>
      <point x="74" y="703"/>
      <point x="72" y="665"/>
      <point x="72" y="623" type="curve"/>
      <point x="72" y="571"/>
      <point x="72" y="519"/>
      <point x="72" y="468" type="curve"/>
      <point x="72" y="367"/>
      <point x="115" y="294"/>
      <point x="208" y="294" type="curve"/>
      <point x="208" y="387"/>
      <point x="208" y="294"/>
      <point x="208" y="387" type="curve"/>
      <point x="177" y="387"/>
      <point x="175" y="418"/>
      <point x="175" y="454" type="curve"/>
      <point x="175" y="510"/>
      <point x="175" y="567"/>
      <point x="175" y="623" type="curve"/>
      <point x="175" y="722"/>
      <point x="130" y="792"/>
      <point x="38" y="792" type="curve"/>
      <point x="38" y="703"/>
      <point x="38" y="792"/>
    </contour>
  </outline>
</glyph>
<glyph name="asciitilde" format="1">
  <advance width="559"/>
  <unicode hex="007E"/>
  <outline>
    <contour>
      <point x="415" y="371" type="curve"/>
      <point x="405" y="333"/>
      <point x="392" y="293"/>
      <point x="365" y="293" type="curve"/>
      <point x="343" y="293"/>
      <point x="331" y="303"/>
      <point x="317" y="319" type="curve"/>
      <point x="279" y="359"/>
      <point x="251" y="381"/>
      <point x="197" y="381" type="curve"/>
      <point x="109" y="381"/>
      <point x="72" y="326"/>
      <point x="53" y="238" type="curve"/>
      <point x="92" y="225"/>
      <point x="106" y="219"/>
      <point x="145" y="207" type="curve"/>
      <point x="153" y="248"/>
      <point x="165" y="287"/>
      <point x="195" y="287" type="curve"/>
      <point x="217" y="287"/>
      <point x="228" y="277"/>
      <point x="243" y="261" type="curve"/>
      <point x="282" y="221"/>
      <point x="311" y="200"/>
      <point x="366" y="199" type="curve"/>
      <point x="452" y="199"/>
      <point x="482" y="258"/>
      <point x="505" y="343" type="curve"/>
      <point x="467" y="355"/>
      <point x="453" y="360"/>
    </contour>
  </outline>
</glyph>
<glyph name="exclamdown" format="1">
  <advance width="248"/>
  <unicode hex="00A1"/>
  <outline>
    <contour>
      <point x="69" y="300" type="line"/>
      <point x="59" y="-193" type="line"/>
      <point x="190" y="-194" type="line"/>
      <point x="183" y="299" type="line"/>
    </contour>
    <contour>
      <point x="67" y="479" type="curve"/>
      <point x="67" y="440"/>
      <point x="92" y="420"/>
      <point x="127" y="419" type="curve"/>
      <point x="163" y="419"/>
      <point x="187" y="441"/>
      <point x="187" y="478" type="curve"/>
      <point x="67" y="479"/>
      <point x="187" y="478"/>
      <point x="67" y="479" type="curve"/>
      <point x="67" y="518"/>
      <point x="92" y="537"/>
      <point x="128" y="536" type="curve"/>
      <point x="164" y="536"/>
      <point x="187" y="516"/>
      <point x="187" y="478" type="curve"/>
      <point x="67" y="479"/>
      <point x="187" y="478"/>
    </contour>
  </outline>
</glyph>
<glyph name="cent" format="1">
  <advance width="521"/>
  <unicode hex="00A2"/>
  <outline>
    <contour>
      <point x="337" y="-53" type="curve"/>
      <point x="337" y="-13"/>
      <point x="337" y="27"/>
      <point x="337" y="67" type="curve"/>
      <point x="223" y="67"/>
      <point x="337" y="67"/>
      <point x="223" y="67" type="curve"/>
      <point x="223" y="27"/>
      <point x="223" y="-13"/>
      <point x="223" y="-53" type="curve"/>
      <point x="337" y="-53"/>
      <point x="223" y="-53"/>
    </contour>
    <contour>
      <point x="239" y="778" type="curve"/>
      <point x="239" y="742"/>
      <point x="239" y="706"/>
      <point x="239" y="670" type="curve"/>
      <point x="353" y="670"/>
      <point x="239" y="670"/>
      <point x="353" y="670" type="curve"/>
      <point x="353" y="706"/>
      <point x="353" y="742"/>
      <point x="353" y="778" type="curve"/>
      <point x="239" y="778"/>
      <point x="353" y="778"/>
    </contour>
    <contour>
      <point x="485" y="608" type="curve"/>
      <point x="427" y="664"/>
      <point x="377" y="685"/>
      <point x="303" y="685" type="curve"/>
      <point x="128" y="685"/>
      <point x="38" y="551"/>
      <point x="38" y="364" type="curve"/>
      <point x="38" y="184"/>
      <point x="110" y="47"/>
      <point x="275" y="47" type="curve"/>
      <point x="363" y="47"/>
      <point x="423" y="75"/>
      <point x="482" y="147" type="curve"/>
      <point x="413" y="212"/>
      <point x="482" y="147"/>
      <point x="413" y="212" type="curve"/>
      <point x="374" y="171"/>
      <point x="342" y="140"/>
      <point x="285" y="140" type="curve"/>
      <point x="183" y="140"/>
      <point x="152" y="245"/>
      <point x="152" y="369" type="curve"/>
      <point x="152" y="491"/>
      <point x="193" y="592"/>
      <point x="293" y="592" type="curve"/>
      <point x="346" y="592"/>
      <point x="381" y="573"/>
      <point x="420" y="536" type="curve"/>
      <point x="485" y="608"/>
      <point x="420" y="536"/>
    </contour>
  </outline>
</glyph>
<glyph name="sterling" format="1">
  <advance width="404"/>
  <unicode hex="00A3"/>
  <outline>
    <contour>
      <point x="344" y="89" type="curve"/>
      <point x="245" y="89"/>
      <point x="139" y="89"/>
      <point x="41" y="89" type="curve"/>
      <point x="41" y="0"/>
      <point x="41" y="89"/>
      <point x="41" y="0" type="curve"/>
      <point x="139" y="0"/>
      <point x="245" y="0"/>
      <point x="344" y="0" type="curve"/>
      <point x="344" y="89"/>
      <point x="344" y="0"/>
    </contour>
    <contour>
      <point x="303" y="420" type="curve"/>
      <point x="224" y="420"/>
      <point x="137" y="420"/>
      <point x="58" y="420" type="curve"/>
      <point x="58" y="331"/>
      <point x="58" y="420"/>
      <point x="58" y="331" type="curve"/>
      <point x="137" y="331"/>
      <point x="224" y="331"/>
      <point x="303" y="331" type="curve"/>
      <point x="303" y="420"/>
      <point x="303" y="331"/>
    </contour>
    <contour>
      <point x="370" y="664" type="curve"/>
      <point x="332" y="707"/>
      <point x="298" y="721"/>
      <point x="249" y="721" type="curve"/>
      <point x="93" y="721"/>
      <point x="68" y="558"/>
      <point x="101" y="365" type="curve"/>
      <point x="124" y="224"/>
      <point x="128" y="89"/>
      <point x="41" y="89" type="curve"/>
      <point x="41" y="0"/>
      <point x="41" y="89"/>
      <point x="41" y="0" type="curve"/>
      <point x="212" y="0"/>
      <point x="235" y="178"/>
      <point x="202" y="384" type="curve"/>
      <point x="181" y="513"/>
      <point x="171" y="636"/>
      <point x="243" y="636" type="curve"/>
      <point x="273" y="636"/>
      <point x="290" y="619"/>
      <point x="312" y="599" type="curve"/>
      <point x="370" y="664"/>
      <point x="312" y="599"/>
    </contour>
  </outline>
</glyph>
<glyph name="currency" format="1">
  <advance width="577"/>
  <unicode hex="00A4"/>
  <outline>
    <contour>
      <point x="231" y="315" type="curve"/>
      <point x="231" y="367"/>
      <point x="241" y="414"/>
      <point x="286" y="414" type="curve"/>
      <point x="334" y="414"/>
      <point x="343" y="371"/>
      <point x="343" y="316" type="curve"/>
      <point x="343" y="263"/>
      <point x="335" y="210"/>
      <point x="289" y="210" type="curve"/>
      <point x="240" y="210"/>
      <point x="231" y="259"/>
      <point x="231" y="315" type="curve"/>
      <point x="117" y="315"/>
      <point x="237" y="315"/>
      <point x="123" y="315" type="curve"/>
      <point x="123" y="201"/>
      <point x="181" y="122"/>
      <point x="289" y="122" type="curve"/>
      <point x="397" y="122"/>
      <point x="454" y="204"/>
      <point x="454" y="318" type="curve"/>
      <point x="454" y="426"/>
      <point x="399" y="503"/>
      <point x="296" y="503" type="curve"/>
      <point x="186" y="503"/>
      <point x="123" y="427"/>
      <point x="123" y="315" type="curve"/>
      <point x="237" y="315"/>
      <point x="117" y="315"/>
    </contour>
    <contour>
      <point x="373" y="360" type="line"/>
      <point x="528" y="503" type="line"/>
      <point x="446" y="585" type="line"/>
      <point x="303" y="430" type="line"/>
    </contour>
    <contour>
      <point x="308" y="203" type="line"/>
      <point x="451" y="48" type="line"/>
      <point x="533" y="130" type="line"/>
      <point x="378" y="273" type="line"/>
    </contour>
    <contour>
      <point x="199" y="272" type="line"/>
      <point x="45" y="129" type="line"/>
      <point x="126" y="48" type="line"/>
      <point x="269" y="202" type="line"/>
    </contour>
    <contour>
      <point x="276" y="431" type="line"/>
      <point x="133" y="586" type="line"/>
      <point x="52" y="504" type="line"/>
      <point x="206" y="361" type="line"/>
    </contour>
  </outline>
</glyph>
<glyph name="yen" format="1">
  <advance width="528"/>
  <unicode hex="00A5"/>
  <outline>
    <contour>
      <point x="427" y="408" type="curve"/>
      <point x="375" y="408"/>
      <point x="323" y="408"/>
      <point x="272" y="408" type="curve"/>
      <point x="272" y="310"/>
      <point x="272" y="408"/>
      <point x="272" y="310" type="curve"/>
      <point x="323" y="310"/>
      <point x="375" y="310"/>
      <point x="427" y="310" type="curve"/>
      <point x="427" y="408"/>
      <point x="427" y="310"/>
    </contour>
    <contour>
      <point x="250" y="408" type="curve"/>
      <point x="199" y="408"/>
      <point x="148" y="408"/>
      <point x="98" y="408" type="curve"/>
      <point x="98" y="310"/>
      <point x="98" y="408"/>
      <point x="98" y="310" type="curve"/>
      <point x="148" y="310"/>
      <point x="199" y="310"/>
      <point x="250" y="310" type="curve"/>
      <point x="250" y="408"/>
      <point x="250" y="310"/>
    </contour>
    <contour>
      <point x="427" y="270" type="curve"/>
      <point x="317" y="270"/>
      <point x="207" y="270"/>
      <point x="98" y="270" type="curve"/>
      <point x="98" y="173"/>
      <point x="98" y="270"/>
      <point x="98" y="173" type="curve"/>
      <point x="207" y="173"/>
      <point x="317" y="173"/>
      <point x="427" y="173" type="curve"/>
      <point x="427" y="270"/>
      <point x="427" y="173"/>
    </contour>
    <contour>
      <point x="30" y="722" type="curve"/>
      <point x="88" y="594"/>
      <point x="143" y="468"/>
      <point x="199" y="337" type="curve"/>
      <point x="315" y="337"/>
      <point x="182" y="337"/>
      <point x="298" y="337" type="curve"/>
      <point x="248" y="469"/>
      <point x="199" y="592"/>
      <point x="146" y="722" type="curve"/>
      <point x="30" y="722"/>
      <point x="146" y="722"/>
    </contour>
    <contour>
      <point x="386" y="722" type="curve"/>
      <point x="328" y="590"/>
      <point x="276" y="468"/>
      <point x="216" y="337" type="curve"/>
      <point x="332" y="337"/>
      <point x="207" y="337"/>
      <point x="323" y="337" type="curve"/>
      <point x="384" y="467"/>
      <point x="442" y="594"/>
      <point x="503" y="722" type="curve"/>
      <point x="386" y="722"/>
      <point x="503" y="722"/>
    </contour>
    <contour>
      <point x="323" y="0" type="curve"/>
      <point x="323" y="115"/>
      <point x="323" y="224"/>
      <point x="323" y="339" type="curve"/>
      <point x="199" y="339"/>
      <point x="323" y="339"/>
      <point x="199" y="339" type="curve"/>
      <point x="199" y="224"/>
      <point x="199" y="115"/>
      <point x="199" y="0" type="curve"/>
      <point x="323" y="0"/>
      <point x="199" y="0"/>
    </contour>
  </outline>
</glyph>
<glyph name="section" format="1">
  <advance width="433"/>
  <unicode hex="00A7"/>
  <outline>
    <contour>
      <point x="349" y="701" type="curve"/>
      <point x="305" y="734"/>
      <point x="272" y="749"/>
      <point x="221" y="749" type="curve"/>
      <point x="125" y="749"/>
      <point x="66" y="692"/>
      <point x="66" y="602" type="curve"/>
      <point x="66" y="522"/>
      <point x="107" y="472"/>
      <point x="181" y="440" type="curve"/>
      <point x="230" y="418"/>
      <point x="282" y="407"/>
      <point x="282" y="361" type="curve"/>
      <point x="282" y="312"/>
      <point x="257" y="280"/>
      <point x="210" y="269" type="curve"/>
      <point x="277" y="197"/>
      <point x="210" y="269"/>
      <point x="277" y="197" type="curve"/>
      <point x="357" y="220"/>
      <point x="396" y="278"/>
      <point x="396" y="361" type="curve"/>
      <point x="395" y="452"/>
      <point x="325" y="490"/>
      <point x="237" y="525" type="curve"/>
      <point x="201" y="540"/>
      <point x="173" y="563"/>
      <point x="173" y="602" type="curve"/>
      <point x="173" y="633"/>
      <point x="188" y="660"/>
      <point x="221" y="660" type="curve"/>
      <point x="255" y="660"/>
      <point x="270" y="648"/>
      <point x="295" y="630" type="curve"/>
      <point x="349" y="701"/>
      <point x="295" y="630"/>
    </contour>
    <contour>
      <point x="157" y="524" type="curve"/>
      <point x="82" y="496"/>
      <point x="40" y="446"/>
      <point x="40" y="366" type="curve"/>
      <point x="40" y="279"/>
      <point x="97" y="233"/>
      <point x="181" y="200" type="curve"/>
      <point x="223" y="182"/>
      <point x="264" y="169"/>
      <point x="264" y="125" type="curve"/>
      <point x="264" y="90"/>
      <point x="247" y="62"/>
      <point x="217" y="62" type="curve"/>
      <point x="179" y="62"/>
      <point x="160" y="78"/>
      <point x="132" y="102" type="curve"/>
      <point x="69" y="39"/>
      <point x="132" y="102"/>
      <point x="69" y="39" type="curve"/>
      <point x="114" y="-8"/>
      <point x="155" y="-27"/>
      <point x="215" y="-27" type="curve"/>
      <point x="311" y="-27"/>
      <point x="374" y="29"/>
      <point x="374" y="125" type="curve"/>
      <point x="373" y="205"/>
      <point x="329" y="255"/>
      <point x="253" y="285" type="curve"/>
      <point x="204" y="306"/>
      <point x="154" y="319"/>
      <point x="154" y="366" type="curve"/>
      <point x="154" y="411"/>
      <point x="173" y="442"/>
      <point x="214" y="458" type="curve"/>
      <point x="157" y="524"/>
      <point x="214" y="458"/>
    </contour>
  </outline>
</glyph>
<glyph name="dieresis" format="1">
  <advance width="377"/>
  <unicode hex="00A8"/>
  <outline>
    <contour>
      <point x="161" y="670" type="curve"/>
      <point x="161" y="709"/>
      <point x="135" y="728"/>
      <point x="100" y="728" type="curve"/>
      <point x="64" y="728"/>
      <point x="40" y="707"/>
      <point x="40" y="670" type="curve"/>
      <point x="161" y="670"/>
      <point x="40" y="670"/>
      <point x="161" y="670" type="curve"/>
      <point x="161" y="630"/>
      <point x="136" y="612"/>
      <point x="100" y="612" type="curve"/>
      <point x="63" y="612"/>
      <point x="40" y="632"/>
      <point x="40" y="670" type="curve"/>
      <point x="161" y="670"/>
      <point x="40" y="670"/>
    </contour>
    <contour>
      <point x="332" y="670" type="curve"/>
      <point x="332" y="709"/>
      <point x="306" y="728"/>
      <point x="271" y="728" type="curve"/>
      <point x="235" y="728"/>
      <point x="212" y="707"/>
      <point x="212" y="670" type="curve"/>
      <point x="332" y="670"/>
      <point x="212" y="670"/>
      <point x="332" y="670" type="curve"/>
      <point x="332" y="630"/>
      <point x="307" y="612"/>
      <point x="271" y="612" type="curve"/>
      <point x="235" y="612"/>
      <point x="212" y="632"/>
      <point x="212" y="670" type="curve"/>
      <point x="332" y="670"/>
      <point x="212" y="670"/>
    </contour>
    <contour>
      <point x="186" y="617" type="move" name="_top"/>
    </contour>
  </outline>
</glyph>
<glyph name="copyright" format="1">
  <advance width="629"/>
  <unicode hex="00A9"/>
  <outline>
    <contour>
      <point x="134" y="323" type="curve"/>
      <point x="134" y="460"/>
      <point x="193" y="573"/>
      <point x="316" y="573" type="curve"/>
      <point x="437" y="573"/>
      <point x="493" y="458"/>
      <point x="493" y="321" type="curve"/>
      <point x="493" y="189"/>
      <point x="440" y="75"/>
      <point x="322" y="75" type="curve"/>
      <point x="199" y="75"/>
      <point x="134" y="187"/>
      <point x="134" y="323" type="curve"/>
      <point x="41" y="323"/>
      <point x="137" y="323"/>
      <point x="44" y="323" type="curve"/>
      <point x="44" y="142"/>
      <point x="146" y="3"/>
      <point x="318" y="3" type="curve"/>
      <point x="487" y="3"/>
      <point x="582" y="144"/>
      <point x="582" y="324" type="curve"/>
      <point x="582" y="505"/>
      <point x="485" y="645"/>
      <point x="316" y="645" type="curve"/>
      <point x="144" y="645"/>
      <point x="44" y="505"/>
      <point x="44" y="323" type="curve"/>
      <point x="137" y="323"/>
      <point x="41" y="323"/>
    </contour>
    <contour>
      <point x="438" y="442" type="curve"/>
      <point x="406" y="491"/>
      <point x="368" y="509"/>
      <point x="322" y="509" type="curve"/>
      <point x="218" y="509"/>
      <point x="169" y="431"/>
      <point x="169" y="322" type="curve"/>
      <point x="169" y="216"/>
      <point x="211" y="140"/>
      <point x="310" y="140" type="curve"/>
      <point x="362" y="140"/>
      <point x="399" y="151"/>
      <point x="436" y="203" type="curve"/>
      <point x="378" y="245"/>
      <point x="436" y="203"/>
      <point x="378" y="245" type="curve"/>
      <point x="358" y="225"/>
      <point x="342" y="213"/>
      <point x="314" y="213" type="curve"/>
      <point x="262" y="213"/>
      <point x="255" y="265"/>
      <point x="255" y="325" type="curve"/>
      <point x="255" y="386"/>
      <point x="265" y="437"/>
      <point x="318" y="437" type="curve"/>
      <point x="340" y="437"/>
      <point x="357" y="430"/>
      <point x="372" y="411" type="curve"/>
      <point x="444" y="444"/>
      <point x="366" y="408"/>
    </contour>
  </outline>
</glyph>
<glyph name="ordfeminine" format="1">
  <advance width="341"/>
  <unicode hex="00AA"/>
  <outline>
    <contour>
      <point x="282" y="425" type="curve"/>
      <point x="282" y="508"/>
      <point x="282" y="584"/>
      <point x="282" y="667" type="curve"/>
      <point x="282" y="737"/>
      <point x="236" y="769"/>
      <point x="167" y="769" type="curve"/>
      <point x="118" y="769"/>
      <point x="84" y="749"/>
      <point x="58" y="720" type="curve"/>
      <point x="84" y="673"/>
      <point x="60" y="718"/>
      <point x="87" y="671" type="curve"/>
      <point x="104" y="688"/>
      <point x="124" y="708"/>
      <point x="158" y="708" type="curve"/>
      <point x="189" y="708"/>
      <point x="207" y="689"/>
      <point x="207" y="657" type="curve"/>
      <point x="207" y="577"/>
      <point x="207" y="504"/>
      <point x="207" y="425" type="curve"/>
      <point x="279" y="425"/>
      <point x="210" y="425"/>
    </contour>
    <contour>
      <point x="243" y="645" type="curve"/>
      <point x="207" y="640"/>
      <point x="185" y="637"/>
      <point x="149" y="631" type="curve"/>
      <point x="84" y="621"/>
      <point x="41" y="591"/>
      <point x="41" y="528" type="curve"/>
      <point x="41" y="462"/>
      <point x="76" y="423"/>
      <point x="140" y="423" type="curve"/>
      <point x="203" y="423"/>
      <point x="228" y="474"/>
      <point x="263" y="519" type="curve"/>
      <point x="228" y="550"/>
      <point x="261" y="521"/>
      <point x="226" y="552" type="curve"/>
      <point x="209" y="514"/>
      <point x="195" y="482"/>
      <point x="158" y="482" type="curve"/>
      <point x="127" y="482"/>
      <point x="114" y="501"/>
      <point x="114" y="531" type="curve"/>
      <point x="114" y="556"/>
      <point x="130" y="575"/>
      <point x="151" y="579" type="curve"/>
      <point x="190" y="585"/>
      <point x="207" y="588"/>
      <point x="246" y="595" type="curve"/>
      <point x="243" y="642"/>
      <point x="246" y="598"/>
    </contour>
  </outline>
</glyph>
<glyph name="guillemotleft" format="1">
  <advance width="440"/>
  <unicode hex="00AB"/>
  <outline>
    <contour>
      <point x="203" y="467" type="curve"/>
      <point x="171" y="441"/>
      <point x="71" y="367"/>
      <point x="38" y="341" type="curve"/>
      <point x="38" y="243"/>
      <point x="38" y="326"/>
      <point x="38" y="228" type="curve"/>
      <point x="71" y="254"/>
      <point x="171" y="336"/>
      <point x="203" y="362" type="curve"/>
      <point x="203" y="460"/>
      <point x="203" y="370"/>
    </contour>
    <contour>
      <point x="203" y="209" type="curve"/>
      <point x="171" y="235"/>
      <point x="71" y="314"/>
      <point x="38" y="341" type="curve"/>
      <point x="38" y="243"/>
      <point x="38" y="326"/>
      <point x="38" y="228" type="curve"/>
      <point x="71" y="201"/>
      <point x="171" y="130"/>
      <point x="203" y="104" type="curve"/>
      <point x="203" y="201"/>
      <point x="203" y="111"/>
    </contour>
    <contour>
      <point x="379" y="467" type="curve"/>
      <point x="347" y="441"/>
      <point x="247" y="367"/>
      <point x="215" y="341" type="curve"/>
      <point x="215" y="243"/>
      <point x="215" y="326"/>
      <point x="215" y="228" type="curve"/>
      <point x="247" y="254"/>
      <point x="347" y="336"/>
      <point x="379" y="362" type="curve"/>
      <point x="379" y="460"/>
      <point x="379" y="370"/>
    </contour>
    <contour>
      <point x="379" y="209" type="curve"/>
      <point x="347" y="235"/>
      <point x="247" y="314"/>
      <point x="215" y="341" type="curve"/>
      <point x="215" y="243"/>
      <point x="215" y="326"/>
      <point x="215" y="228" type="curve"/>
      <point x="247" y="201"/>
      <point x="347" y="130"/>
      <point x="379" y="104" type="curve"/>
      <point x="379" y="201"/>
      <point x="379" y="111"/>
    </contour>
  </outline>
</glyph>
<glyph name="logicalnot" format="1">
  <advance width="521"/>
  <unicode hex="00AC"/>
  <outline>
    <contour>
      <point x="62" y="265" type="curve"/>
      <point x="456" y="265" type="line"/>
      <point x="456" y="363"/>
      <point x="456" y="265"/>
      <point x="456" y="363" type="curve"/>
      <point x="62" y="363" type="line"/>
      <point x="62" y="265"/>
      <point x="62" y="363"/>
    </contour>
    <contour>
      <point x="456" y="142" type="curve"/>
      <point x="456" y="363" type="line"/>
      <point x="342" y="363"/>
      <point x="457" y="363"/>
      <point x="343" y="363" type="curve"/>
      <point x="343" y="142" type="line"/>
      <point x="457" y="142"/>
      <point x="342" y="142"/>
    </contour>
  </outline>
</glyph>
<glyph name="registered" format="1">
  <advance width="647"/>
  <unicode hex="00AE"/>
  <outline>
    <contour>
      <point x="125" y="321" type="curve"/>
      <point x="125" y="469"/>
      <point x="191" y="579"/>
      <point x="327" y="579" type="curve"/>
      <point x="461" y="579"/>
      <point x="524" y="467"/>
      <point x="524" y="320" type="curve"/>
      <point x="524" y="176"/>
      <point x="464" y="66"/>
      <point x="333" y="66" type="curve"/>
      <point x="196" y="66"/>
      <point x="125" y="174"/>
      <point x="125" y="321" type="curve"/>
      <point x="92" y="321"/>
      <point x="79" y="321"/>
      <point x="47" y="321" type="curve"/>
      <point x="47" y="133"/>
      <point x="148" y="2"/>
      <point x="329" y="2" type="curve"/>
      <point x="507" y="2"/>
      <point x="601" y="136"/>
      <point x="601" y="323" type="curve"/>
      <point x="601" y="510"/>
      <point x="505" y="644"/>
      <point x="327" y="644" type="curve"/>
      <point x="146" y="644"/>
      <point x="47" y="510"/>
      <point x="47" y="321" type="curve"/>
      <point x="79" y="321"/>
      <point x="92" y="321"/>
    </contour>
    <contour>
      <point x="302" y="318" type="curve"/>
      <point x="307" y="305"/>
      <point x="370" y="156"/>
      <point x="375" y="143" type="curve"/>
      <point x="420" y="143"/>
      <point x="408" y="143"/>
      <point x="452" y="143" type="curve"/>
      <point x="447" y="156"/>
      <point x="384" y="299"/>
      <point x="379" y="312" type="curve"/>
      <point x="277" y="312"/>
      <point x="404" y="318"/>
    </contour>
    <contour>
      <point x="307" y="143" type="curve"/>
      <point x="307" y="241"/>
      <point x="307" y="405"/>
      <point x="307" y="503" type="curve"/>
      <point x="253" y="503"/>
      <point x="283" y="505"/>
      <point x="224" y="505" type="curve"/>
      <point x="224" y="406"/>
      <point x="224" y="241"/>
      <point x="224" y="143" type="curve"/>
      <point x="280" y="143"/>
      <point x="242" y="143"/>
    </contour>
    <contour>
      <point x="272" y="275" type="curve"/>
      <point x="285" y="275"/>
      <point x="299" y="275"/>
      <point x="312" y="275" type="curve"/>
      <point x="390" y="275"/>
      <point x="440" y="313"/>
      <point x="440" y="392" type="curve"/>
      <point x="440" y="460"/>
      <point x="398" y="505"/>
      <point x="331" y="505" type="curve"/>
      <point x="326" y="505"/>
      <point x="235" y="505"/>
      <point x="231" y="505" type="curve"/>
      <point x="224" y="462"/>
      <point x="316" y="505"/>
      <point x="224" y="432" type="curve"/>
      <point x="253" y="432"/>
      <point x="284" y="432"/>
      <point x="314" y="432" type="curve"/>
      <point x="341" y="432"/>
      <point x="358" y="416"/>
      <point x="358" y="388" type="curve"/>
      <point x="358" y="364"/>
      <point x="348" y="347"/>
      <point x="325" y="347" type="curve"/>
      <point x="307" y="347"/>
      <point x="289" y="347"/>
      <point x="272" y="347" type="curve"/>
      <point x="272" y="275"/>
      <point x="272" y="347"/>
    </contour>
  </outline>
</glyph>
<glyph name="macron" format="1">
  <advance width="279"/>
  <unicode hex="00AF"/>
  <outline>
    <contour>
      <point x="194" y="684" type="curve"/>
      <point x="139" y="684"/>
      <point x="83" y="684"/>
      <point x="28" y="684" type="curve"/>
      <point x="28" y="595"/>
      <point x="28" y="684"/>
      <point x="28" y="595" type="curve"/>
      <point x="83" y="595"/>
      <point x="139" y="595"/>
      <point x="194" y="595" type="curve"/>
      <point x="194" y="684"/>
      <point x="194" y="595"/>
    </contour>
    <contour>
      <point x="112" y="595" type="move" name="_top"/>
    </contour>
  </outline>
</glyph>
<glyph name="degree" format="1">
  <advance width="388"/>
  <unicode hex="00B0"/>
  <outline>
    <contour>
      <point x="348" y="578" type="curve"/>
      <point x="348" y="683"/>
      <point x="294" y="754"/>
      <point x="193" y="754" type="curve"/>
      <point x="92" y="754"/>
      <point x="40" y="682"/>
      <point x="40" y="578" type="curve"/>
      <point x="79" y="578"/>
      <point x="95" y="578"/>
      <point x="133" y="578" type="curve"/>
      <point x="133" y="631"/>
      <point x="146" y="674"/>
      <point x="192" y="674" type="curve"/>
      <point x="238" y="674"/>
      <point x="252" y="631"/>
      <point x="252" y="578" type="curve"/>
      <point x="252" y="524"/>
      <point x="241" y="480"/>
      <point x="194" y="480" type="curve"/>
      <point x="146" y="480"/>
      <point x="133" y="524"/>
      <point x="133" y="578" type="curve"/>
      <point x="95" y="578"/>
      <point x="79" y="578"/>
      <point x="40" y="578" type="curve"/>
      <point x="40" y="472"/>
      <point x="92" y="398"/>
      <point x="194" y="398" type="curve"/>
      <point x="296" y="398"/>
      <point x="348" y="471"/>
    </contour>
  </outline>
</glyph>
<glyph name="plusminus" format="1">
  <advance width="613"/>
  <unicode hex="00B1"/>
  <outline>
    <contour>
      <point x="51" y="47" type="line"/>
      <point x="562" y="47" type="line"/>
      <point x="562" y="145" type="line"/>
      <point x="51" y="145" type="line"/>
    </contour>
    <contour>
      <point x="51" y="265" type="curve"/>
      <point x="562" y="265" type="line"/>
      <point x="562" y="363"/>
      <point x="562" y="265"/>
      <point x="562" y="363" type="curve"/>
      <point x="51" y="363" type="line"/>
      <point x="51" y="265"/>
      <point x="51" y="363"/>
    </contour>
    <contour>
      <point x="360" y="48" type="curve"/>
      <point x="360" y="580" type="line"/>
      <point x="246" y="580"/>
      <point x="367" y="580"/>
      <point x="253" y="580" type="curve"/>
      <point x="253" y="48" type="line"/>
      <point x="367" y="48"/>
      <point x="246" y="48"/>
    </contour>
  </outline>
</glyph>
<glyph name="twosuperior" format="1">
  <advance width="375"/>
  <unicode hex="00B2"/>
  <outline>
    <contour>
      <point x="42" y="370" type="curve"/>
      <point x="134" y="370"/>
      <point x="245" y="370"/>
      <point x="327" y="370" type="curve"/>
      <point x="327" y="408"/>
      <point x="327" y="398"/>
      <point x="327" y="442" type="curve"/>
      <point x="239" y="442"/>
      <point x="129" y="442"/>
      <point x="42" y="442" type="curve"/>
      <point x="42" y="370"/>
      <point x="42" y="442"/>
    </contour>
    <contour>
      <point x="127" y="668" type="curve"/>
      <point x="137" y="698"/>
      <point x="149" y="726"/>
      <point x="181" y="726" type="curve"/>
      <point x="213" y="726"/>
      <point x="225" y="698"/>
      <point x="225" y="662" type="curve"/>
      <point x="225" y="625"/>
      <point x="205" y="603"/>
      <point x="180" y="576" type="curve"/>
      <point x="134" y="532"/>
      <point x="88" y="487"/>
      <point x="42" y="442" type="curve"/>
      <point x="45" y="370"/>
      <point x="42" y="442"/>
      <point x="45" y="370" type="curve"/>
      <point x="106" y="420"/>
      <point x="187" y="469"/>
      <point x="239" y="519" type="curve"/>
      <point x="281" y="565"/>
      <point x="314" y="602"/>
      <point x="314" y="666" type="curve"/>
      <point x="314" y="746"/>
      <point x="264" y="798"/>
      <point x="185" y="798" type="curve"/>
      <point x="122" y="798"/>
      <point x="79" y="770"/>
      <point x="61" y="693" type="curve"/>
      <point x="127" y="668"/>
      <point x="61" y="693"/>
    </contour>
    <contour>
      <point x="193" y="798" type="move" name="_top"/>
    </contour>
    <contour>
      <point x="177" y="370" type="move" name="_bottom"/>
    </contour>
  </outline>
</glyph>
<glyph name="threesuperior" format="1">
  <advance width="334"/>
  <unicode hex="00B3"/>
  <outline>
    <contour>
      <point x="95" y="691" type="curve"/>
      <point x="108" y="707"/>
      <point x="122" y="722"/>
      <point x="144" y="722" type="curve"/>
      <point x="173" y="722"/>
      <point x="189" y="701"/>
      <point x="189" y="669" type="curve"/>
      <point x="189" y="633"/>
      <point x="154" y="616"/>
      <point x="114" y="613" type="curve"/>
      <point x="114" y="552"/>
      <point x="114" y="613"/>
      <point x="114" y="552" type="curve"/>
      <point x="207" y="555"/>
      <point x="281" y="591"/>
      <point x="281" y="675" type="curve"/>
      <point x="281" y="752"/>
      <point x="230" y="795"/>
      <point x="153" y="795" type="curve"/>
      <point x="107" y="795"/>
      <point x="66" y="772"/>
      <point x="40" y="737" type="curve"/>
      <point x="95" y="691"/>
      <point x="40" y="737"/>
    </contour>
    <contour>
      <point x="39" y="399" type="curve"/>
      <point x="69" y="376"/>
      <point x="100" y="363"/>
      <point x="137" y="363" type="curve"/>
      <point x="231" y="362"/>
      <point x="293" y="404"/>
      <point x="292" y="492" type="curve"/>
      <point x="292" y="577"/>
      <point x="210" y="601"/>
      <point x="114" y="604" type="curve"/>
      <point x="114" y="551"/>
      <point x="114" y="604"/>
      <point x="114" y="551" type="curve"/>
      <point x="162" y="547"/>
      <point x="200" y="528"/>
      <point x="200" y="488" type="curve"/>
      <point x="199" y="455"/>
      <point x="179" y="433"/>
      <point x="145" y="434" type="curve"/>
      <point x="124" y="434"/>
      <point x="103" y="440"/>
      <point x="85" y="453" type="curve"/>
      <point x="39" y="399"/>
      <point x="85" y="453"/>
    </contour>
    <contour>
      <point x="164" y="795" type="move" name="_top"/>
    </contour>
    <contour>
      <point x="161" y="363" type="move" name="_bottom"/>
    </contour>
  </outline>
</glyph>
<glyph name="acute" format="1">
  <advance width="200"/>
  <unicode hex="00B4"/>
  <outline>
    <contour>
      <point x="72" y="591" type="line"/>
      <point x="184" y="757" type="line"/>
      <point x="44" y="757" type="line"/>
      <point x="-35" y="591" type="line"/>
    </contour>
    <contour>
      <point x="21" y="592" type="move" name="_top"/>
    </contour>
  </outline>
</glyph>
<glyph name="paragraph" format="1">
  <advance width="666"/>
  <unicode hex="00B6"/>
  <outline>
    <contour>
      <point x="355" y="633" type="curve"/>
      <point x="490" y="633"/>
      <point x="355" y="633"/>
      <point x="490" y="633" type="curve"/>
      <point x="490" y="722"/>
      <point x="490" y="633"/>
      <point x="490" y="722" type="curve"/>
      <point x="445" y="722"/>
      <point x="399" y="722"/>
      <point x="355" y="722" type="curve"/>
      <point x="355" y="633"/>
      <point x="355" y="722"/>
    </contour>
    <contour>
      <point x="335" y="379" type="curve"/>
      <point x="301" y="357"/>
      <point x="275" y="344"/>
      <point x="234" y="344" type="curve"/>
      <point x="169" y="344"/>
      <point x="145" y="404"/>
      <point x="145" y="479" type="curve"/>
      <point x="145" y="566"/>
      <point x="186" y="633"/>
      <point x="266" y="633" type="curve"/>
      <point x="295" y="633"/>
      <point x="324" y="633"/>
      <point x="352" y="633" type="curve"/>
      <point x="352" y="722"/>
      <point x="352" y="633"/>
      <point x="352" y="722" type="curve"/>
      <point x="319" y="722"/>
      <point x="285" y="722"/>
      <point x="251" y="722" type="curve"/>
      <point x="114" y="722"/>
      <point x="31" y="623"/>
      <point x="31" y="483" type="curve"/>
      <point x="31" y="346"/>
      <point x="111" y="261"/>
      <point x="244" y="259" type="curve"/>
      <point x="293" y="259"/>
      <point x="332" y="280"/>
      <point x="371" y="305" type="curve"/>
      <point x="335" y="378"/>
      <point x="370" y="307"/>
    </contour>
    <contour>
      <point x="412" y="0" type="curve"/>
      <point x="412" y="241"/>
      <point x="412" y="481"/>
      <point x="412" y="722" type="curve"/>
      <point x="298" y="722"/>
      <point x="412" y="722"/>
      <point x="298" y="722" type="curve"/>
      <point x="298" y="481"/>
      <point x="298" y="241"/>
      <point x="298" y="0" type="curve"/>
      <point x="412" y="0"/>
      <point x="298" y="0"/>
    </contour>
    <contour>
      <point x="597" y="0" type="curve"/>
      <point x="597" y="241"/>
      <point x="597" y="481"/>
      <point x="597" y="722" type="curve"/>
      <point x="483" y="722"/>
      <point x="597" y="722"/>
      <point x="483" y="722" type="curve"/>
      <point x="483" y="481"/>
      <point x="483" y="241"/>
      <point x="483" y="0" type="curve"/>
      <point x="597" y="0"/>
      <point x="483" y="0"/>
    </contour>
  </outline>
</glyph>
<glyph name="periodcentered" format="1">
  <advance width="217"/>
  <unicode hex="00B7"/>
  <outline>
    <contour>
      <point x="168" y="440" type="curve"/>
      <point x="168" y="479"/>
      <point x="143" y="499"/>
      <point x="107" y="499" type="curve"/>
      <point x="71" y="499"/>
      <point x="48" y="477"/>
      <point x="48" y="440" type="curve"/>
      <point x="168" y="440"/>
      <point x="48" y="440"/>
      <point x="168" y="440" type="curve"/>
      <point x="168" y="400"/>
      <point x="143" y="382"/>
      <point x="107" y="382" type="curve"/>
      <point x="71" y="382"/>
      <point x="48" y="402"/>
      <point x="48" y="440" type="curve"/>
      <point x="168" y="440"/>
      <point x="48" y="440"/>
    </contour>
  </outline>
</glyph>
<glyph name="cedilla" format="1">
  <advance width="281"/>
  <unicode hex="00B8"/>
  <outline>
    <contour>
      <point x="111" y="130" type="curve"/>
      <point x="101" y="107"/>
      <point x="68" y="28"/>
      <point x="58" y="5" type="curve"/>
      <point x="136" y="-66"/>
      <point x="58" y="5"/>
      <point x="136" y="-66" type="curve"/>
      <point x="148" y="-39"/>
      <point x="187" y="42"/>
      <point x="198" y="68" type="curve"/>
      <point x="111" y="130"/>
      <point x="198" y="68"/>
    </contour>
    <contour>
      <point x="136" y="-66" type="curve"/>
      <point x="142" y="-61"/>
      <point x="147" y="-57"/>
      <point x="155" y="-57" type="curve"/>
      <point x="167" y="-57"/>
      <point x="172" y="-65"/>
      <point x="172" y="-80" type="curve"/>
      <point x="172" y="-97"/>
      <point x="159" y="-106"/>
      <point x="140" y="-106" type="curve"/>
      <point x="122" y="-106"/>
      <point x="107" y="-102"/>
      <point x="92" y="-91" type="curve"/>
      <point x="49" y="-156"/>
      <point x="92" y="-91"/>
      <point x="49" y="-156" type="curve"/>
      <point x="75" y="-175"/>
      <point x="101" y="-182"/>
      <point x="135" y="-182" type="curve"/>
      <point x="199" y="-182"/>
      <point x="242" y="-145"/>
      <point x="242" y="-78" type="curve"/>
      <point x="242" y="-14"/>
      <point x="205" y="27"/>
      <point x="143" y="27" type="curve"/>
      <point x="110" y="27"/>
      <point x="87" y="22"/>
      <point x="58" y="5" type="curve"/>
      <point x="136" y="-66"/>
      <point x="58" y="5"/>
    </contour>
    <contour>
      <point x="192" y="68" type="move" name="_bottom"/>
    </contour>
  </outline>
</glyph>
<glyph name="onesuperior" format="1">
  <advance width="260"/>
  <unicode hex="00B9"/>
  <outline>
    <contour>
      <point x="66" y="642" type="line"/>
      <point x="196" y="786" type="line"/>
      <point x="104" y="788" type="line"/>
      <point x="13" y="696" type="line"/>
    </contour>
    <contour>
      <point x="196" y="370" type="curve"/>
      <point x="196" y="788" type="line"/>
      <point x="104" y="788" type="line"/>
      <point x="104" y="370" type="line"/>
      <point x="162" y="370"/>
      <point x="125" y="370"/>
    </contour>
    <contour>
      <point x="140" y="787" type="move" name="_top"/>
    </contour>
    <contour>
      <point x="150" y="371" type="move" name="_bottom"/>
    </contour>
  </outline>
</glyph>
<glyph name="ordmasculine" format="1">
  <advance width="349"/>
  <unicode hex="00BA"/>
  <outline>
    <contour>
      <point x="108" y="596" type="curve"/>
      <point x="108" y="654"/>
      <point x="120" y="706"/>
      <point x="172" y="706" type="curve"/>
      <point x="223" y="706"/>
      <point x="236" y="655"/>
      <point x="236" y="596" type="curve"/>
      <point x="236" y="534"/>
      <point x="226" y="483"/>
      <point x="178" y="483" type="curve"/>
      <point x="119" y="483"/>
      <point x="108" y="534"/>
      <point x="108" y="596" type="curve"/>
      <point x="102" y="596"/>
      <point x="43" y="596"/>
      <point x="38" y="596" type="curve"/>
      <point x="38" y="494"/>
      <point x="80" y="421"/>
      <point x="174" y="421" type="curve"/>
      <point x="267" y="421"/>
      <point x="312" y="493"/>
      <point x="312" y="596" type="curve"/>
      <point x="312" y="696"/>
      <point x="269" y="767"/>
      <point x="176" y="767" type="curve"/>
      <point x="80" y="767"/>
      <point x="38" y="696"/>
      <point x="38" y="596" type="curve"/>
      <point x="43" y="596"/>
      <point x="102" y="596"/>
    </contour>
  </outline>
</glyph>
<glyph name="guillemotright" format="1">
  <advance width="442"/>
  <unicode hex="00BB"/>
  <outline>
    <contour>
      <point x="239" y="467" type="curve"/>
      <point x="271" y="441"/>
      <point x="370" y="367"/>
      <point x="403" y="341" type="curve"/>
      <point x="403" y="243"/>
      <point x="403" y="326"/>
      <point x="403" y="228" type="curve"/>
      <point x="370" y="254"/>
      <point x="271" y="336"/>
      <point x="239" y="362" type="curve"/>
      <point x="239" y="460"/>
      <point x="239" y="370"/>
    </contour>
    <contour>
      <point x="239" y="209" type="curve"/>
      <point x="270" y="235"/>
      <point x="370" y="314"/>
      <point x="403" y="341" type="curve"/>
      <point x="403" y="243"/>
      <point x="403" y="326"/>
      <point x="403" y="228" type="curve"/>
      <point x="370" y="201"/>
      <point x="270" y="130"/>
      <point x="239" y="104" type="curve"/>
      <point x="239" y="201"/>
      <point x="239" y="111"/>
    </contour>
    <contour>
      <point x="62" y="467" type="curve"/>
      <point x="94" y="441"/>
      <point x="194" y="367"/>
      <point x="227" y="341" type="curve"/>
      <point x="227" y="243"/>
      <point x="227" y="326"/>
      <point x="227" y="228" type="curve"/>
      <point x="194" y="254"/>
      <point x="94" y="336"/>
      <point x="62" y="362" type="curve"/>
      <point x="62" y="460"/>
      <point x="62" y="370"/>
    </contour>
    <contour>
      <point x="62" y="209" type="curve"/>
      <point x="94" y="235"/>
      <point x="194" y="314"/>
      <point x="227" y="341" type="curve"/>
      <point x="227" y="243"/>
      <point x="227" y="326"/>
      <point x="227" y="228" type="curve"/>
      <point x="194" y="201"/>
      <point x="94" y="130"/>
      <point x="62" y="104" type="curve"/>
      <point x="62" y="201"/>
      <point x="62" y="111"/>
    </contour>
  </outline>
</glyph>
<glyph name="onequarter" format="1">
  <advance width="806"/>
  <unicode hex="00BC"/>
  <outline>
    <contour>
      <point x="294" y="-49" type="line"/>
      <point x="609" y="719" type="line"/>
      <point x="504" y="719" type="line"/>
      <point x="189" y="-49" type="line"/>
    </contour>
    <contour>
      <point x="77" y="574" type="line"/>
      <point x="207" y="717" type="line"/>
      <point x="116" y="719" type="line"/>
      <point x="24" y="627" type="line"/>
    </contour>
    <contour>
      <point x="208" y="302" type="curve"/>
      <point x="208" y="719" type="line"/>
      <point x="116" y="719" type="line"/>
      <point x="116" y="302" type="line"/>
      <point x="173" y="302"/>
      <point x="136" y="302"/>
    </contour>
    <contour>
      <point x="773" y="136" type="line"/>
      <point x="468" y="136" type="line"/>
      <point x="468" y="65" type="line"/>
      <point x="773" y="65" type="line"/>
    </contour>
    <contour>
      <point x="504" y="70" type="line"/>
      <point x="687" y="371" type="line"/>
      <point x="621" y="386" type="line"/>
      <point x="468" y="136" type="line"/>
    </contour>
    <contour>
      <point x="713" y="-44" type="line"/>
      <point x="713" y="386" type="line"/>
      <point x="621" y="386" type="line"/>
      <point x="621" y="-44" type="line"/>
    </contour>
  </outline>
</glyph>
<glyph name="onehalf" format="1">
  <advance width="884"/>
  <unicode hex="00BD"/>
  <outline>
    <contour>
      <point x="329" y="-49" type="line"/>
      <point x="643" y="719" type="line"/>
      <point x="538" y="719" type="line"/>
      <point x="224" y="-49" type="line"/>
    </contour>
    <contour>
      <point x="77" y="574" type="line"/>
      <point x="207" y="717" type="line"/>
      <point x="116" y="719" type="line"/>
      <point x="24" y="627" type="line"/>
    </contour>
    <contour>
      <point x="208" y="302" type="curve"/>
      <point x="208" y="719" type="line"/>
      <point x="116" y="719" type="line"/>
      <point x="116" y="302" type="line"/>
      <point x="173" y="302"/>
      <point x="136" y="302"/>
    </contour>
    <contour>
      <point x="564" y="-45" type="curve"/>
      <point x="656" y="-45"/>
      <point x="766" y="-45"/>
      <point x="848" y="-45" type="curve"/>
      <point x="848" y="-8"/>
      <point x="848" y="-18"/>
      <point x="848" y="27" type="curve"/>
      <point x="761" y="27"/>
      <point x="651" y="27"/>
      <point x="564" y="27" type="curve"/>
      <point x="564" y="-45"/>
      <point x="564" y="27"/>
    </contour>
    <contour>
      <point x="649" y="252" type="curve"/>
      <point x="658" y="283"/>
      <point x="670" y="310"/>
      <point x="702" y="310" type="curve"/>
      <point x="734" y="310"/>
      <point x="747" y="282"/>
      <point x="747" y="246" type="curve"/>
      <point x="747" y="209"/>
      <point x="726" y="188"/>
      <point x="701" y="160" type="curve"/>
      <point x="655" y="116"/>
      <point x="609" y="71"/>
      <point x="564" y="27" type="curve"/>
      <point x="566" y="-45"/>
      <point x="564" y="27"/>
      <point x="566" y="-45" type="curve"/>
      <point x="628" y="4"/>
      <point x="709" y="53"/>
      <point x="760" y="103" type="curve"/>
      <point x="803" y="150"/>
      <point x="835" y="186"/>
      <point x="835" y="250" type="curve"/>
      <point x="835" y="330"/>
      <point x="786" y="382"/>
      <point x="706" y="382" type="curve"/>
      <point x="644" y="382"/>
      <point x="601" y="355"/>
      <point x="582" y="277" type="curve"/>
      <point x="649" y="252"/>
      <point x="582" y="277"/>
    </contour>
  </outline>
</glyph>
<glyph name="threequarters" format="1">
  <advance width="843"/>
  <unicode hex="00BE"/>
  <outline>
    <contour>
      <point x="336" y="-49" type="line"/>
      <point x="651" y="719" type="line"/>
      <point x="546" y="719" type="line"/>
      <point x="231" y="-49" type="line"/>
    </contour>
    <contour>
      <point x="91" y="615" type="curve"/>
      <point x="105" y="631"/>
      <point x="119" y="646"/>
      <point x="140" y="646" type="curve"/>
      <point x="169" y="646"/>
      <point x="185" y="625"/>
      <point x="185" y="593" type="curve"/>
      <point x="185" y="556"/>
      <point x="150" y="540"/>
      <point x="110" y="537" type="curve"/>
      <point x="110" y="475"/>
      <point x="110" y="537"/>
      <point x="110" y="475" type="curve"/>
      <point x="203" y="478"/>
      <point x="277" y="515"/>
      <point x="277" y="599" type="curve"/>
      <point x="277" y="676"/>
      <point x="227" y="718"/>
      <point x="149" y="718" type="curve"/>
      <point x="103" y="718"/>
      <point x="62" y="696"/>
      <point x="36" y="661" type="curve"/>
      <point x="91" y="615"/>
      <point x="36" y="661"/>
    </contour>
    <contour>
      <point x="35" y="323" type="curve"/>
      <point x="65" y="300"/>
      <point x="96" y="287"/>
      <point x="133" y="287" type="curve"/>
      <point x="227" y="286"/>
      <point x="289" y="328"/>
      <point x="289" y="416" type="curve"/>
      <point x="289" y="501"/>
      <point x="207" y="525"/>
      <point x="110" y="528" type="curve"/>
      <point x="110" y="474"/>
      <point x="110" y="528"/>
      <point x="110" y="474" type="curve"/>
      <point x="159" y="471"/>
      <point x="196" y="452"/>
      <point x="196" y="412" type="curve"/>
      <point x="196" y="379"/>
      <point x="175" y="357"/>
      <point x="142" y="358" type="curve"/>
      <point x="120" y="358"/>
      <point x="99" y="364"/>
      <point x="81" y="377" type="curve"/>
      <point x="35" y="323"/>
      <point x="81" y="377"/>
    </contour>
    <contour>
      <point x="815" y="136" type="line"/>
      <point x="510" y="136" type="line"/>
      <point x="510" y="65" type="line"/>
      <point x="815" y="65" type="line"/>
    </contour>
    <contour>
      <point x="546" y="70" type="line"/>
      <point x="730" y="371" type="line"/>
      <point x="664" y="386" type="line"/>
      <point x="510" y="136" type="line"/>
    </contour>
    <contour>
      <point x="755" y="-44" type="line"/>
      <point x="755" y="386" type="line"/>
      <point x="664" y="386" type="line"/>
      <point x="664" y="-44" type="line"/>
    </contour>
  </outline>
</glyph>
<glyph name="questiondown" format="1">
  <advance width="453"/>
  <unicode hex="00BF"/>
  <outline>
    <contour>
      <point x="283" y="367" type="curve"/>
      <point x="283" y="404"/>
      <point x="283" y="478"/>
      <point x="283" y="515" type="curve"/>
      <point x="179" y="515"/>
      <point x="283" y="515"/>
      <point x="179" y="515" type="curve"/>
      <point x="179" y="478"/>
      <point x="179" y="404"/>
      <point x="179" y="367" type="curve"/>
      <point x="283" y="367"/>
      <point x="179" y="367"/>
    </contour>
    <contour>
      <point x="351" y="145" type="line"/>
      <point x="322" y="111"/>
      <point x="293" y="89"/>
      <point x="247" y="89" type="curve"/>
      <point x="177" y="89"/>
      <point x="144" y="144"/>
      <point x="144" y="218" type="curve"/>
      <point x="144" y="304"/>
      <point x="189" y="367"/>
      <point x="272" y="367" type="curve"/>
      <point x="272" y="402"/>
      <point x="272" y="418"/>
      <point x="272" y="453" type="curve"/>
      <point x="126" y="453"/>
      <point x="35" y="360"/>
      <point x="35" y="218" type="curve"/>
      <point x="35" y="82"/>
      <point x="115" y="-6"/>
      <point x="242" y="-6" type="curve"/>
      <point x="318" y="-6"/>
      <point x="372" y="22"/>
      <point x="412" y="73" type="curve"/>
    </contour>
    <contour>
      <point x="171" y="686" type="curve"/>
      <point x="171" y="647"/>
      <point x="196" y="628"/>
      <point x="232" y="628" type="curve"/>
      <point x="268" y="628"/>
      <point x="291" y="649"/>
      <point x="291" y="686" type="curve"/>
      <point x="171" y="686"/>
      <point x="291" y="686"/>
      <point x="171" y="686" type="curve"/>
      <point x="171" y="726"/>
      <point x="196" y="744"/>
      <point x="232" y="744" type="curve"/>
      <point x="268" y="744"/>
      <point x="291" y="724"/>
      <point x="291" y="686" type="curve"/>
      <point x="171" y="686"/>
      <point x="291" y="686"/>
    </contour>
  </outline>
</glyph>
<glyph name="Agrave" format="1">
  <advance width="552"/>
  <unicode hex="00C0"/>
  <outline>
    <contour>
      <point x="389" y="290" type="curve"/>
      <point x="315" y="290"/>
      <point x="240" y="290"/>
      <point x="166" y="290" type="curve"/>
      <point x="119" y="196"/>
      <point x="166" y="290"/>
      <point x="119" y="196" type="curve"/>
      <point x="221" y="196"/>
      <point x="324" y="196"/>
      <point x="426" y="196" type="curve"/>
      <point x="389" y="290"/>
      <point x="426" y="196"/>
    </contour>
    <contour>
      <point x="539" y="0" type="curve"/>
      <point x="472" y="241"/>
      <point x="400" y="481"/>
      <point x="333" y="722" type="curve"/>
      <point x="230" y="722"/>
      <point x="333" y="722"/>
      <point x="230" y="722" type="curve"/>
      <point x="295" y="482"/>
      <point x="355" y="240"/>
      <point x="420" y="0" type="curve"/>
      <point x="539" y="0"/>
      <point x="420" y="0"/>
    </contour>
    <contour>
      <point x="121" y="0" type="curve"/>
      <point x="194" y="240"/>
      <point x="259" y="482"/>
      <point x="332" y="722" type="curve"/>
      <point x="229" y="722"/>
      <point x="332" y="722"/>
      <point x="229" y="722" type="curve"/>
      <point x="154" y="480"/>
      <point x="71" y="242"/>
      <point x="-3" y="0" type="curve"/>
      <point x="121" y="0"/>
      <point x="-3" y="0"/>
    </contour>
    <contour>
      <point x="333" y="792" type="line"/>
      <point x="254" y="958" type="line"/>
      <point x="114" y="958" type="line"/>
      <point x="225" y="792" type="line"/>
    </contour>
  </outline>
</glyph>
<glyph name="Atilde" format="1">
  <advance width="552"/>
  <unicode hex="00C3"/>
  <outline>
    <contour>
      <point x="389" y="290" type="curve"/>
      <point x="315" y="290"/>
      <point x="240" y="290"/>
      <point x="166" y="290" type="curve"/>
      <point x="119" y="196"/>
      <point x="166" y="290"/>
      <point x="119" y="196" type="curve"/>
      <point x="221" y="196"/>
      <point x="324" y="196"/>
      <point x="426" y="196" type="curve"/>
      <point x="389" y="290"/>
      <point x="426" y="196"/>
    </contour>
    <contour>
      <point x="539" y="0" type="curve"/>
      <point x="472" y="241"/>
      <point x="400" y="481"/>
      <point x="333" y="722" type="curve"/>
      <point x="230" y="722"/>
      <point x="333" y="722"/>
      <point x="230" y="722" type="curve"/>
      <point x="295" y="482"/>
      <point x="355" y="240"/>
      <point x="420" y="0" type="curve"/>
      <point x="539" y="0"/>
      <point x="420" y="0"/>
    </contour>
    <contour>
      <point x="121" y="0" type="curve"/>
      <point x="194" y="240"/>
      <point x="259" y="482"/>
      <point x="332" y="722" type="curve"/>
      <point x="229" y="722"/>
      <point x="332" y="722"/>
      <point x="229" y="722" type="curve"/>
      <point x="154" y="480"/>
      <point x="71" y="242"/>
      <point x="-3" y="0" type="curve"/>
      <point x="121" y="0"/>
      <point x="-3" y="0"/>
    </contour>
    <contour>
      <point x="379" y="966" type="curve"/>
      <point x="364" y="928"/>
      <point x="353" y="910"/>
      <point x="334" y="910" type="curve"/>
      <point x="308" y="910"/>
      <point x="296" y="920"/>
      <point x="278" y="937" type="curve"/>
      <point x="254" y="960"/>
      <point x="241" y="972"/>
      <point x="210" y="972" type="curve"/>
      <point x="144" y="972"/>
      <point x="115" y="906"/>
      <point x="97" y="842" type="curve"/>
      <point x="181" y="795"/>
      <point x="97" y="843"/>
      <point x="181" y="795" type="curve"/>
      <point x="198" y="838"/>
      <point x="211" y="855"/>
      <point x="235" y="855" type="curve"/>
      <point x="257" y="855"/>
      <point x="267" y="845"/>
      <point x="281" y="830" type="curve"/>
      <point x="308" y="804"/>
      <point x="325" y="789"/>
      <point x="360" y="789" type="curve"/>
      <point x="426" y="789"/>
      <point x="447" y="853"/>
      <point x="470" y="921" type="curve"/>
      <point x="379" y="966"/>
      <point x="470" y="920"/>
    </contour>
  </outline>
</glyph>
<glyph name="Adieresis" format="1">
  <advance width="552"/>
  <unicode hex="00C4"/>
  <outline>
    <contour>
      <point x="389" y="290" type="curve"/>
      <point x="315" y="290"/>
      <point x="240" y="290"/>
      <point x="166" y="290" type="curve"/>
      <point x="119" y="196"/>
      <point x="166" y="290"/>
      <point x="119" y="196" type="curve"/>
      <point x="221" y="196"/>
      <point x="324" y="196"/>
      <point x="426" y="196" type="curve"/>
      <point x="389" y="290"/>
      <point x="426" y="196"/>
    </contour>
    <contour>
      <point x="539" y="0" type="curve"/>
      <point x="472" y="241"/>
      <point x="400" y="481"/>
      <point x="333" y="722" type="curve"/>
      <point x="230" y="722"/>
      <point x="333" y="722"/>
      <point x="230" y="722" type="curve"/>
      <point x="295" y="482"/>
      <point x="355" y="240"/>
      <point x="420" y="0" type="curve"/>
      <point x="539" y="0"/>
      <point x="420" y="0"/>
    </contour>
    <contour>
      <point x="121" y="0" type="curve"/>
      <point x="194" y="240"/>
      <point x="259" y="482"/>
      <point x="332" y="722" type="curve"/>
      <point x="229" y="722"/>
      <point x="332" y="722"/>
      <point x="229" y="722" type="curve"/>
      <point x="154" y="480"/>
      <point x="71" y="242"/>
      <point x="-3" y="0" type="curve"/>
      <point x="121" y="0"/>
      <point x="-3" y="0"/>
    </contour>
    <contour>
      <point x="253" y="844" type="curve"/>
      <point x="253" y="883"/>
      <point x="227" y="902"/>
      <point x="192" y="902" type="curve"/>
      <point x="156" y="902"/>
      <point x="133" y="881"/>
      <point x="133" y="844" type="curve"/>
      <point x="253" y="844"/>
      <point x="133" y="844"/>
      <point x="253" y="844" type="curve"/>
      <point x="253" y="804"/>
      <point x="228" y="786"/>
      <point x="192" y="786" type="curve"/>
      <point x="156" y="786"/>
      <point x="133" y="805"/>
      <point x="133" y="844" type="curve"/>
      <point x="253" y="844"/>
      <point x="133" y="844"/>
    </contour>
    <contour>
      <point x="425" y="844" type="curve"/>
      <point x="425" y="883"/>
      <point x="399" y="902"/>
      <point x="364" y="902" type="curve"/>
      <point x="328" y="902"/>
      <point x="305" y="881"/>
      <point x="305" y="844" type="curve"/>
      <point x="425" y="844"/>
      <point x="305" y="844"/>
      <point x="425" y="844" type="curve"/>
      <point x="425" y="804"/>
      <point x="400" y="786"/>
      <point x="364" y="786" type="curve"/>
      <point x="327" y="786"/>
      <point x="305" y="805"/>
      <point x="305" y="844" type="curve"/>
      <point x="425" y="844"/>
      <point x="305" y="844"/>
    </contour>
  </outline>
</glyph>
<glyph name="Aring" format="1">
  <advance width="552"/>
  <unicode hex="00C5"/>
  <outline>
    <contour>
      <point x="389" y="290" type="curve"/>
      <point x="315" y="290"/>
      <point x="240" y="290"/>
      <point x="166" y="290" type="curve"/>
      <point x="119" y="196"/>
      <point x="166" y="290"/>
      <point x="119" y="196" type="curve"/>
      <point x="221" y="196"/>
      <point x="324" y="196"/>
      <point x="426" y="196" type="curve"/>
      <point x="389" y="290"/>
      <point x="426" y="196"/>
    </contour>
    <contour>
      <point x="539" y="0" type="curve"/>
      <point x="472" y="241"/>
      <point x="400" y="481"/>
      <point x="333" y="722" type="curve"/>
      <point x="230" y="722"/>
      <point x="333" y="722"/>
      <point x="230" y="722" type="curve"/>
      <point x="295" y="482"/>
      <point x="355" y="240"/>
      <point x="420" y="0" type="curve"/>
      <point x="539" y="0"/>
      <point x="420" y="0"/>
    </contour>
    <contour>
      <point x="121" y="0" type="curve"/>
      <point x="194" y="240"/>
      <point x="259" y="482"/>
      <point x="332" y="722" type="curve"/>
      <point x="229" y="722"/>
      <point x="332" y="722"/>
      <point x="229" y="722" type="curve"/>
      <point x="154" y="480"/>
      <point x="71" y="242"/>
      <point x="-3" y="0" type="curve"/>
      <point x="121" y="0"/>
      <point x="-3" y="0"/>
    </contour>
    <contour>
      <point x="148" y="929" type="curve"/>
      <point x="148" y="846"/>
      <point x="196" y="789"/>
      <point x="278" y="789" type="curve"/>
      <point x="360" y="789"/>
      <point x="409" y="845"/>
      <point x="409" y="929" type="curve"/>
      <point x="409" y="1014"/>
      <point x="359" y="1069"/>
      <point x="276" y="1069" type="curve"/>
      <point x="194" y="1069"/>
      <point x="148" y="1013"/>
      <point x="148" y="929" type="curve"/>
      <point x="249" y="929"/>
      <point x="139" y="929"/>
      <point x="240" y="929" type="curve"/>
      <point x="240" y="959"/>
      <point x="243" y="988"/>
      <point x="276" y="988" type="curve"/>
      <point x="307" y="988"/>
      <point x="312" y="960"/>
      <point x="312" y="929" type="curve"/>
      <point x="312" y="899"/>
      <point x="309" y="871"/>
      <point x="278" y="871" type="curve"/>
      <point x="246" y="871"/>
      <point x="240" y="899"/>
      <point x="240" y="929" type="curve"/>
      <point x="139" y="929"/>
      <point x="249" y="929"/>
    </contour>
  </outline>
</glyph>
<glyph name="AE" format="1">
  <advance width="759"/>
  <unicode hex="00C6"/>
  <outline>
    <contour>
      <point x="376" y="277" type="curve"/>
      <point x="302" y="277"/>
      <point x="240" y="277"/>
      <point x="166" y="277" type="curve"/>
      <point x="118" y="183"/>
      <point x="166" y="277"/>
      <point x="118" y="183" type="curve"/>
      <point x="221" y="183"/>
      <point x="311" y="183"/>
      <point x="413" y="183" type="curve"/>
      <point x="376" y="277"/>
      <point x="413" y="183"/>
    </contour>
    <contour>
      <point x="113" y="0" type="curve"/>
      <point x="466" y="722" type="line"/>
      <point x="362" y="722"/>
      <point x="466" y="722"/>
      <point x="362" y="722" type="curve"/>
      <point x="-12" y="0" type="line"/>
      <point x="113" y="0"/>
      <point x="-12" y="0"/>
    </contour>
    <contour>
      <point x="423" y="328" type="curve"/>
      <point x="503" y="328"/>
      <point x="584" y="328"/>
      <point x="665" y="328" type="curve"/>
      <point x="665" y="418"/>
      <point x="665" y="328"/>
      <point x="665" y="418" type="curve"/>
      <point x="584" y="418"/>
      <point x="503" y="418"/>
      <point x="423" y="418" type="curve"/>
      <point x="423" y="328"/>
      <point x="423" y="418"/>
    </contour>
    <contour>
      <point x="411" y="633" type="curve"/>
      <point x="512" y="633"/>
      <point x="611" y="633"/>
      <point x="711" y="633" type="curve"/>
      <point x="711" y="722"/>
      <point x="711" y="633"/>
      <point x="711" y="722" type="curve"/>
      <point x="611" y="722"/>
      <point x="512" y="722"/>
      <point x="411" y="722" type="curve"/>
      <point x="411" y="633"/>
      <point x="411" y="722"/>
    </contour>
    <contour>
      <point x="476" y="0" type="curve"/>
      <point x="476" y="722" type="line"/>
      <point x="362" y="722"/>
      <point x="476" y="722"/>
      <point x="362" y="722" type="curve"/>
      <point x="362" y="481"/>
      <point x="362" y="241"/>
      <point x="362" y="0" type="curve"/>
      <point x="476" y="0"/>
      <point x="362" y="0"/>
    </contour>
    <contour>
      <point x="411" y="0" type="curve"/>
      <point x="520" y="0"/>
      <point x="628" y="0"/>
      <point x="736" y="0" type="curve"/>
      <point x="736" y="89"/>
      <point x="736" y="0"/>
      <point x="736" y="89" type="curve"/>
      <point x="628" y="89"/>
      <point x="520" y="89"/>
      <point x="411" y="89" type="curve"/>
      <point x="411" y="0"/>
      <point x="411" y="89"/>
    </contour>
  </outline>
</glyph>
<glyph name="Ccedilla" format="1">
  <advance width="549"/>
  <unicode hex="00C7"/>
  <outline>
    <contour>
      <point x="523" y="654" type="curve"/>
      <point x="468" y="696"/>
      <point x="403" y="727"/>
      <point x="327" y="727" type="curve"/>
      <point x="128" y="727"/>
      <point x="45" y="568"/>
      <point x="45" y="345" type="curve"/>
      <point x="45" y="141"/>
      <point x="126" y="-5"/>
      <point x="312" y="-5" type="curve"/>
      <point x="411" y="-5"/>
      <point x="476" y="30"/>
      <point x="535" y="98" type="curve"/>
      <point x="469" y="164"/>
      <point x="535" y="98"/>
      <point x="469" y="164" type="curve"/>
      <point x="424" y="118"/>
      <point x="384" y="88"/>
      <point x="318" y="88" type="curve"/>
      <point x="192" y="88"/>
      <point x="159" y="204"/>
      <point x="159" y="349" type="curve"/>
      <point x="159" y="507"/>
      <point x="190" y="634"/>
      <point x="323" y="634" type="curve"/>
      <point x="376" y="634"/>
      <point x="423" y="614"/>
      <point x="461" y="584" type="curve"/>
      <point x="523" y="654"/>
      <point x="461" y="584"/>
    </contour>
    <contour>
      <point x="263" y="64" type="curve"/>
      <point x="253" y="42"/>
      <point x="221" y="-37"/>
      <point x="211" y="-60" type="curve"/>
      <point x="289" y="-131"/>
      <point x="211" y="-60"/>
      <point x="289" y="-131" type="curve"/>
      <point x="300" y="-105"/>
      <point x="340" y="-24"/>
      <point x="351" y="3" type="curve"/>
      <point x="263" y="64"/>
      <point x="351" y="3"/>
    </contour>
    <contour>
      <point x="289" y="-131" type="curve"/>
      <point x="295" y="-126"/>
      <point x="299" y="-122"/>
      <point x="307" y="-122" type="curve"/>
      <point x="319" y="-122"/>
      <point x="324" y="-130"/>
      <point x="324" y="-145" type="curve"/>
      <point x="324" y="-162"/>
      <point x="311" y="-171"/>
      <point x="293" y="-171" type="curve"/>
      <point x="275" y="-171"/>
      <point x="260" y="-167"/>
      <point x="244" y="-156" type="curve"/>
      <point x="201" y="-221"/>
      <point x="244" y="-156"/>
      <point x="201" y="-221" type="curve"/>
      <point x="228" y="-240"/>
      <point x="254" y="-248"/>
      <point x="287" y="-248" type="curve"/>
      <point x="352" y="-248"/>
      <point x="395" y="-210"/>
      <point x="395" y="-143" type="curve"/>
      <point x="395" y="-80"/>
      <point x="357" y="-38"/>
      <point x="296" y="-38" type="curve"/>
      <point x="263" y="-38"/>
      <point x="239" y="-43"/>
      <point x="211" y="-60" type="curve"/>
      <point x="289" y="-131"/>
      <point x="211" y="-60"/>
    </contour>
  </outline>
</glyph>
<glyph name="Egrave" format="1">
  <advance width="489"/>
  <unicode hex="00C8"/>
  <outline>
    <contour>
      <point x="153" y="328" type="curve"/>
      <point x="233" y="328"/>
      <point x="314" y="328"/>
      <point x="395" y="328" type="curve"/>
      <point x="395" y="418"/>
      <point x="395" y="328"/>
      <point x="395" y="418" type="curve"/>
      <point x="314" y="418"/>
      <point x="233" y="418"/>
      <point x="153" y="418" type="curve"/>
      <point x="153" y="328"/>
      <point x="153" y="418"/>
    </contour>
    <contour>
      <point x="141" y="633" type="curve"/>
      <point x="242" y="633"/>
      <point x="341" y="633"/>
      <point x="441" y="633" type="curve"/>
      <point x="441" y="722"/>
      <point x="441" y="633"/>
      <point x="441" y="722" type="curve"/>
      <point x="341" y="722"/>
      <point x="242" y="722"/>
      <point x="141" y="722" type="curve"/>
      <point x="141" y="633"/>
      <point x="141" y="722"/>
    </contour>
    <contour>
      <point x="206" y="0" type="curve"/>
      <point x="206" y="722" type="line"/>
      <point x="92" y="722"/>
      <point x="206" y="722"/>
      <point x="92" y="722" type="curve"/>
      <point x="92" y="481"/>
      <point x="92" y="241"/>
      <point x="92" y="0" type="curve"/>
      <point x="206" y="0"/>
      <point x="92" y="0"/>
    </contour>
    <contour>
      <point x="141" y="0" type="curve"/>
      <point x="250" y="0"/>
      <point x="358" y="0"/>
      <point x="466" y="0" type="curve"/>
      <point x="466" y="89"/>
      <point x="466" y="0"/>
      <point x="466" y="89" type="curve"/>
      <point x="358" y="89"/>
      <point x="250" y="89"/>
      <point x="141" y="89" type="curve"/>
      <point x="141" y="0"/>
      <point x="141" y="89"/>
    </contour>
    <contour>
      <point x="306" y="792" type="line"/>
      <point x="227" y="958" type="line"/>
      <point x="87" y="958" type="line"/>
      <point x="198" y="792" type="line"/>
    </contour>
  </outline>
</glyph>
<glyph name="Ecircumflex" format="1">
  <advance width="455"/>
  <unicode hex="00CA"/>
  <outline>
    <contour>
      <point x="129" y="328" type="curve"/>
      <point x="209" y="328"/>
      <point x="291" y="328"/>
      <point x="371" y="328" type="curve"/>
      <point x="371" y="418"/>
      <point x="371" y="328"/>
      <point x="371" y="418" type="curve"/>
      <point x="291" y="418"/>
      <point x="209" y="418"/>
      <point x="129" y="418" type="curve"/>
      <point x="129" y="328"/>
      <point x="129" y="418"/>
    </contour>
    <contour>
      <point x="118" y="633" type="curve"/>
      <point x="218" y="633"/>
      <point x="317" y="633"/>
      <point x="418" y="633" type="curve"/>
      <point x="418" y="722"/>
      <point x="418" y="633"/>
      <point x="418" y="722" type="curve"/>
      <point x="317" y="722"/>
      <point x="218" y="722"/>
      <point x="118" y="722" type="curve"/>
      <point x="118" y="633"/>
      <point x="118" y="722"/>
    </contour>
    <contour>
      <point x="183" y="0" type="curve"/>
      <point x="183" y="722" type="line"/>
      <point x="69" y="722"/>
      <point x="183" y="722"/>
      <point x="69" y="722" type="curve"/>
      <point x="69" y="481"/>
      <point x="69" y="241"/>
      <point x="69" y="0" type="curve"/>
      <point x="183" y="0"/>
      <point x="69" y="0"/>
    </contour>
    <contour>
      <point x="118" y="0" type="curve"/>
      <point x="226" y="0"/>
      <point x="334" y="0"/>
      <point x="443" y="0" type="curve"/>
      <point x="443" y="89"/>
      <point x="443" y="0"/>
      <point x="443" y="89" type="curve"/>
      <point x="334" y="89"/>
      <point x="226" y="89"/>
      <point x="118" y="89" type="curve"/>
      <point x="118" y="0"/>
      <point x="118" y="89"/>
    </contour>
    <contour>
      <point x="164" y="791" type="line"/>
      <point x="276" y="957" type="line"/>
      <point x="136" y="957" type="line"/>
      <point x="56" y="791" type="line"/>
    </contour>
    <contour>
      <point x="400" y="791" type="line"/>
      <point x="320" y="957" type="line"/>
      <point x="180" y="957" type="line"/>
      <point x="292" y="791" type="line"/>
    </contour>
  </outline>
</glyph>
<glyph name="Edieresis" format="1">
  <advance width="475"/>
  <unicode hex="00CB"/>
  <outline>
    <contour>
      <point x="138" y="328" type="curve"/>
      <point x="218" y="328"/>
      <point x="300" y="328"/>
      <point x="380" y="328" type="curve"/>
      <point x="380" y="418"/>
      <point x="380" y="328"/>
      <point x="380" y="418" type="curve"/>
      <point x="300" y="418"/>
      <point x="218" y="418"/>
      <point x="138" y="418" type="curve"/>
      <point x="138" y="328"/>
      <point x="138" y="418"/>
    </contour>
    <contour>
      <point x="127" y="633" type="curve"/>
      <point x="227" y="633"/>
      <point x="326" y="633"/>
      <point x="427" y="633" type="curve"/>
      <point x="427" y="722"/>
      <point x="427" y="633"/>
      <point x="427" y="722" type="curve"/>
      <point x="326" y="722"/>
      <point x="227" y="722"/>
      <point x="127" y="722" type="curve"/>
      <point x="127" y="633"/>
      <point x="127" y="722"/>
    </contour>
    <contour>
      <point x="192" y="0" type="curve"/>
      <point x="192" y="722" type="line"/>
      <point x="78" y="722"/>
      <point x="192" y="722"/>
      <point x="78" y="722" type="curve"/>
      <point x="78" y="481"/>
      <point x="78" y="241"/>
      <point x="78" y="0" type="curve"/>
      <point x="192" y="0"/>
      <point x="78" y="0"/>
    </contour>
    <contour>
      <point x="127" y="0" type="curve"/>
      <point x="235" y="0"/>
      <point x="343" y="0"/>
      <point x="451" y="0" type="curve"/>
      <point x="451" y="89"/>
      <point x="451" y="0"/>
      <point x="451" y="89" type="curve"/>
      <point x="343" y="89"/>
      <point x="235" y="89"/>
      <point x="127" y="89" type="curve"/>
      <point x="127" y="0"/>
      <point x="127" y="89"/>
    </contour>
    <contour>
      <point x="212" y="844" type="curve"/>
      <point x="212" y="883"/>
      <point x="186" y="902"/>
      <point x="151" y="902" type="curve"/>
      <point x="115" y="902"/>
      <point x="92" y="881"/>
      <point x="92" y="844" type="curve"/>
      <point x="212" y="844"/>
      <point x="92" y="844"/>
      <point x="212" y="844" type="curve"/>
      <point x="212" y="804"/>
      <point x="187" y="786"/>
      <point x="151" y="786" type="curve"/>
      <point x="114" y="786"/>
      <point x="92" y="805"/>
      <point x="92" y="844" type="curve"/>
      <point x="212" y="844"/>
      <point x="92" y="844"/>
    </contour>
    <contour>
      <point x="384" y="844" type="curve"/>
      <point x="384" y="883"/>
      <point x="358" y="902"/>
      <point x="323" y="902" type="curve"/>
      <point x="287" y="902"/>
      <point x="263" y="881"/>
      <point x="263" y="844" type="curve"/>
      <point x="384" y="844"/>
      <point x="263" y="844"/>
      <point x="384" y="844" type="curve"/>
      <point x="384" y="804"/>
      <point x="359" y="786"/>
      <point x="323" y="786" type="curve"/>
      <point x="286" y="786"/>
      <point x="263" y="805"/>
      <point x="263" y="844" type="curve"/>
      <point x="384" y="844"/>
      <point x="263" y="844"/>
    </contour>
  </outline>
</glyph>
<glyph name="Igrave" format="1">
  <advance width="282"/>
  <unicode hex="00CC"/>
  <outline>
    <contour>
      <point x="202" y="0" type="curve"/>
      <point x="202" y="241"/>
      <point x="202" y="481"/>
      <point x="202" y="722" type="curve"/>
      <point x="88" y="722"/>
      <point x="202" y="722"/>
      <point x="88" y="722" type="curve"/>
      <point x="88" y="481"/>
      <point x="88" y="241"/>
      <point x="88" y="0" type="curve"/>
      <point x="202" y="0"/>
      <point x="88" y="0"/>
    </contour>
    <contour>
      <point x="202" y="792" type="line"/>
      <point x="122" y="958" type="line"/>
      <point x="-18" y="958" type="line"/>
      <point x="94" y="792" type="line"/>
    </contour>
  </outline>
</glyph>
<glyph name="Iacute" format="1">
  <advance width="276"/>
  <unicode hex="00CD"/>
  <outline>
    <contour>
      <point x="193" y="0" type="curve"/>
      <point x="193" y="241"/>
      <point x="193" y="481"/>
      <point x="193" y="722" type="curve"/>
      <point x="79" y="722"/>
      <point x="193" y="722"/>
      <point x="79" y="722" type="curve"/>
      <point x="79" y="481"/>
      <point x="79" y="241"/>
      <point x="79" y="0" type="curve"/>
      <point x="193" y="0"/>
      <point x="79" y="0"/>
    </contour>
    <contour>
      <point x="189" y="790" type="line"/>
      <point x="301" y="956" type="line"/>
      <point x="161" y="956" type="line"/>
      <point x="81" y="790" type="line"/>
    </contour>
  </outline>
</glyph>
<glyph name="Icircumflex" format="1">
  <advance width="306"/>
  <unicode hex="00CE"/>
  <outline>
    <contour>
      <point x="212" y="0" type="curve"/>
      <point x="212" y="241"/>
      <point x="212" y="481"/>
      <point x="212" y="722" type="curve"/>
      <point x="98" y="722"/>
      <point x="212" y="722"/>
      <point x="98" y="722" type="curve"/>
      <point x="98" y="481"/>
      <point x="98" y="241"/>
      <point x="98" y="0" type="curve"/>
      <point x="212" y="0"/>
      <point x="98" y="0"/>
    </contour>
    <contour>
      <point x="93" y="791" type="line"/>
      <point x="205" y="957" type="line"/>
      <point x="65" y="957" type="line"/>
      <point x="-15" y="791" type="line"/>
    </contour>
    <contour>
      <point x="328" y="791" type="line"/>
      <point x="249" y="957" type="line"/>
      <point x="109" y="957" type="line"/>
      <point x="220" y="791" type="line"/>
    </contour>
  </outline>
</glyph>
<glyph name="Idieresis" format="1">
  <advance width="263"/>
  <unicode hex="00CF"/>
  <outline>
    <contour>
      <point x="191" y="0" type="curve"/>
      <point x="191" y="241"/>
      <point x="191" y="481"/>
      <point x="191" y="722" type="curve"/>
      <point x="77" y="722"/>
      <point x="191" y="722"/>
      <point x="77" y="722" type="curve"/>
      <point x="77" y="481"/>
      <point x="77" y="241"/>
      <point x="77" y="0" type="curve"/>
      <point x="191" y="0"/>
      <point x="77" y="0"/>
    </contour>
    <contour>
      <point x="111" y="844" type="curve"/>
      <point x="111" y="883"/>
      <point x="85" y="902"/>
      <point x="50" y="902" type="curve"/>
      <point x="14" y="902"/>
      <point x="-9" y="881"/>
      <point x="-9" y="844" type="curve"/>
      <point x="111" y="844"/>
      <point x="-9" y="844"/>
      <point x="111" y="844" type="curve"/>
      <point x="111" y="804"/>
      <point x="86" y="786"/>
      <point x="50" y="786" type="curve"/>
      <point x="13" y="786"/>
      <point x="-9" y="805"/>
      <point x="-9" y="844" type="curve"/>
      <point x="111" y="844"/>
      <point x="-9" y="844"/>
    </contour>
    <contour>
      <point x="283" y="844" type="curve"/>
      <point x="283" y="883"/>
      <point x="257" y="902"/>
      <point x="222" y="902" type="curve"/>
      <point x="186" y="902"/>
      <point x="162" y="881"/>
      <point x="162" y="844" type="curve"/>
      <point x="283" y="844"/>
      <point x="162" y="844"/>
      <point x="283" y="844" type="curve"/>
      <point x="283" y="804"/>
      <point x="258" y="786"/>
      <point x="222" y="786" type="curve"/>
      <point x="185" y="786"/>
      <point x="162" y="805"/>
      <point x="162" y="844" type="curve"/>
      <point x="283" y="844"/>
      <point x="162" y="844"/>
    </contour>
  </outline>
</glyph>
<glyph name="Ntilde" format="1">
  <advance width="672"/>
  <unicode hex="00D1"/>
  <outline>
    <contour>
      <point x="593" y="0" type="curve"/>
      <point x="461" y="241"/>
      <point x="329" y="481"/>
      <point x="198" y="722" type="curve"/>
      <point x="79" y="722"/>
      <point x="199" y="722"/>
      <point x="80" y="722" type="curve"/>
      <point x="211" y="481"/>
      <point x="342" y="241"/>
      <point x="474" y="0" type="curve"/>
      <point x="593" y="0"/>
      <point x="474" y="0"/>
    </contour>
    <contour>
      <point x="478" y="722" type="curve"/>
      <point x="478" y="481"/>
      <point x="478" y="241"/>
      <point x="478" y="0" type="curve"/>
      <point x="592" y="0"/>
      <point x="478" y="0"/>
      <point x="592" y="0" type="curve"/>
      <point x="592" y="241"/>
      <point x="592" y="481"/>
      <point x="592" y="722" type="curve"/>
      <point x="478" y="722"/>
      <point x="592" y="722"/>
    </contour>
    <contour>
      <point x="194" y="0" type="curve"/>
      <point x="194" y="241"/>
      <point x="194" y="481"/>
      <point x="194" y="722" type="curve"/>
      <point x="80" y="722"/>
      <point x="194" y="722"/>
      <point x="80" y="722" type="curve"/>
      <point x="80" y="481"/>
      <point x="80" y="241"/>
      <point x="80" y="0" type="curve"/>
      <point x="194" y="0"/>
      <point x="80" y="0"/>
    </contour>
    <contour>
      <point x="439" y="966" type="curve"/>
      <point x="424" y="928"/>
      <point x="413" y="910"/>
      <point x="394" y="910" type="curve"/>
      <point x="368" y="910"/>
      <point x="355" y="920"/>
      <point x="338" y="937" type="curve"/>
      <point x="314" y="960"/>
      <point x="300" y="972"/>
      <point x="270" y="972" type="curve"/>
      <point x="204" y="972"/>
      <point x="174" y="906"/>
      <point x="156" y="842" type="curve"/>
      <point x="241" y="795"/>
      <point x="156" y="843"/>
      <point x="241" y="795" type="curve"/>
      <point x="258" y="838"/>
      <point x="271" y="855"/>
      <point x="295" y="855" type="curve"/>
      <point x="317" y="855"/>
      <point x="326" y="845"/>
      <point x="340" y="830" type="curve"/>
      <point x="368" y="804"/>
      <point x="384" y="789"/>
      <point x="420" y="789" type="curve"/>
      <point x="486" y="789"/>
      <point x="506" y="853"/>
      <point x="529" y="921" type="curve"/>
      <point x="439" y="966"/>
      <point x="529" y="920"/>
    </contour>
  </outline>
</glyph>
<glyph name="Ograve" format="1">
  <advance width="629"/>
  <unicode hex="00D2"/>
  <outline>
    <contour>
      <point x="159" y="360" type="curve" name="FullCurve"/>
      <point x="159" y="507"/>
      <point x="183" y="634"/>
      <point x="312" y="634" type="curve" name="FullCurve"/>
      <point x="438" y="634"/>
      <point x="471" y="509"/>
      <point x="471" y="363" type="curve" name="FullCurve"/>
      <point x="471" y="216"/>
      <point x="445" y="88"/>
      <point x="317" y="88" type="curve" name="FullCurve"/>
      <point x="189" y="88"/>
      <point x="159" y="213"/>
      <point x="159" y="360" type="curve" name="FullCurve"/>
      <point x="45" y="360"/>
      <point x="159" y="360"/>
      <point x="45" y="360" type="curve" name="FullCurve"/>
      <point x="45" y="154"/>
      <point x="125" y="-5"/>
      <point x="313" y="-5" type="curve" name="FullCurve"/>
      <point x="502" y="-5"/>
      <point x="585" y="155"/>
      <point x="585" y="363" type="curve" name="FullCurve"/>
      <point x="585" y="568"/>
      <point x="505" y="727"/>
      <point x="317" y="727" type="curve" name="FullCurve"/>
      <point x="128" y="727"/>
      <point x="45" y="567"/>
      <point x="45" y="360" type="curve" name="FullCurve"/>
      <point x="159" y="360"/>
      <point x="45" y="360"/>
    </contour>
    <contour>
      <point x="370" y="792" type="line"/>
      <point x="291" y="958" type="line"/>
      <point x="151" y="958" type="line"/>
      <point x="262" y="792" type="line"/>
    </contour>
  </outline>
</glyph>
<glyph name="Oacute" format="1">
  <advance width="629"/>
  <unicode hex="00D3"/>
  <outline>
    <contour>
      <point x="159" y="360" type="curve" name="FullCurve"/>
      <point x="159" y="507"/>
      <point x="183" y="634"/>
      <point x="312" y="634" type="curve" name="FullCurve"/>
      <point x="438" y="634"/>
      <point x="471" y="509"/>
      <point x="471" y="363" type="curve" name="FullCurve"/>
      <point x="471" y="216"/>
      <point x="445" y="88"/>
      <point x="317" y="88" type="curve" name="FullCurve"/>
      <point x="189" y="88"/>
      <point x="159" y="213"/>
      <point x="159" y="360" type="curve" name="FullCurve"/>
      <point x="45" y="360"/>
      <point x="159" y="360"/>
      <point x="45" y="360" type="curve" name="FullCurve"/>
      <point x="45" y="154"/>
      <point x="125" y="-5"/>
      <point x="313" y="-5" type="curve" name="FullCurve"/>
      <point x="502" y="-5"/>
      <point x="585" y="155"/>
      <point x="585" y="363" type="curve" name="FullCurve"/>
      <point x="585" y="568"/>
      <point x="505" y="727"/>
      <point x="317" y="727" type="curve" name="FullCurve"/>
      <point x="128" y="727"/>
      <point x="45" y="567"/>
      <point x="45" y="360" type="curve" name="FullCurve"/>
      <point x="159" y="360"/>
      <point x="45" y="360"/>
    </contour>
    <contour>
      <point x="366" y="790" type="line"/>
      <point x="478" y="956" type="line"/>
      <point x="338" y="956" type="line"/>
      <point x="258" y="790" type="line"/>
    </contour>
  </outline>
</glyph>
<glyph name="Otilde" format="1">
  <advance width="629"/>
  <unicode hex="00D5"/>
  <outline>
    <contour>
      <point x="159" y="360" type="curve" name="FullCurve"/>
      <point x="159" y="507"/>
      <point x="183" y="634"/>
      <point x="312" y="634" type="curve" name="FullCurve"/>
      <point x="438" y="634"/>
      <point x="471" y="509"/>
      <point x="471" y="363" type="curve" name="FullCurve"/>
      <point x="471" y="216"/>
      <point x="445" y="88"/>
      <point x="317" y="88" type="curve" name="FullCurve"/>
      <point x="189" y="88"/>
      <point x="159" y="213"/>
      <point x="159" y="360" type="curve" name="FullCurve"/>
      <point x="45" y="360"/>
      <point x="159" y="360"/>
      <point x="45" y="360" type="curve" name="FullCurve"/>
      <point x="45" y="154"/>
      <point x="125" y="-5"/>
      <point x="313" y="-5" type="curve" name="FullCurve"/>
      <point x="502" y="-5"/>
      <point x="585" y="155"/>
      <point x="585" y="363" type="curve" name="FullCurve"/>
      <point x="585" y="568"/>
      <point x="505" y="727"/>
      <point x="317" y="727" type="curve" name="FullCurve"/>
      <point x="128" y="727"/>
      <point x="45" y="567"/>
      <point x="45" y="360" type="curve" name="FullCurve"/>
      <point x="159" y="360"/>
      <point x="45" y="360"/>
    </contour>
    <contour>
      <point x="416" y="966" type="curve"/>
      <point x="401" y="928"/>
      <point x="390" y="910"/>
      <point x="371" y="910" type="curve"/>
      <point x="345" y="910"/>
      <point x="333" y="920"/>
      <point x="315" y="937" type="curve"/>
      <point x="291" y="960"/>
      <point x="277" y="972"/>
      <point x="247" y="972" type="curve"/>
      <point x="181" y="972"/>
      <point x="152" y="906"/>
      <point x="134" y="842" type="curve"/>
      <point x="218" y="795"/>
      <point x="134" y="843"/>
      <point x="218" y="795" type="curve"/>
      <point x="235" y="838"/>
      <point x="248" y="855"/>
      <point x="272" y="855" type="curve"/>
      <point x="294" y="855"/>
      <point x="304" y="845"/>
      <point x="318" y="830" type="curve"/>
      <point x="345" y="804"/>
      <point x="362" y="789"/>
      <point x="397" y="789" type="curve"/>
      <point x="463" y="789"/>
      <point x="484" y="853"/>
      <point x="507" y="921" type="curve"/>
      <point x="416" y="966"/>
      <point x="507" y="920"/>
    </contour>
  </outline>
</glyph>
<glyph name="Odieresis" format="1">
  <advance width="629"/>
  <unicode hex="00D6"/>
  <outline>
    <contour>
      <point x="159" y="360" type="curve" name="FullCurve"/>
      <point x="159" y="507"/>
      <point x="183" y="634"/>
      <point x="312" y="634" type="curve" name="FullCurve"/>
      <point x="438" y="634"/>
      <point x="471" y="509"/>
      <point x="471" y="363" type="curve" name="FullCurve"/>
      <point x="471" y="216"/>
      <point x="445" y="88"/>
      <point x="317" y="88" type="curve" name="FullCurve"/>
      <point x="189" y="88"/>
      <point x="159" y="213"/>
      <point x="159" y="360" type="curve" name="FullCurve"/>
      <point x="45" y="360"/>
      <point x="159" y="360"/>
      <point x="45" y="360" type="curve" name="FullCurve"/>
      <point x="45" y="154"/>
      <point x="125" y="-5"/>
      <point x="313" y="-5" type="curve" name="FullCurve"/>
      <point x="502" y="-5"/>
      <point x="585" y="155"/>
      <point x="585" y="363" type="curve" name="FullCurve"/>
      <point x="585" y="568"/>
      <point x="505" y="727"/>
      <point x="317" y="727" type="curve" name="FullCurve"/>
      <point x="128" y="727"/>
      <point x="45" y="567"/>
      <point x="45" y="360" type="curve" name="FullCurve"/>
      <point x="159" y="360"/>
      <point x="45" y="360"/>
    </contour>
    <contour>
      <point x="290" y="844" type="curve"/>
      <point x="290" y="883"/>
      <point x="264" y="902"/>
      <point x="229" y="902" type="curve"/>
      <point x="193" y="902"/>
      <point x="170" y="881"/>
      <point x="170" y="844" type="curve"/>
      <point x="290" y="844"/>
      <point x="170" y="844"/>
      <point x="290" y="844" type="curve"/>
      <point x="290" y="804"/>
      <point x="265" y="786"/>
      <point x="229" y="786" type="curve"/>
      <point x="193" y="786"/>
      <point x="170" y="805"/>
      <point x="170" y="844" type="curve"/>
      <point x="290" y="844"/>
      <point x="170" y="844"/>
    </contour>
    <contour>
      <point x="462" y="844" type="curve"/>
      <point x="462" y="883"/>
      <point x="436" y="902"/>
      <point x="401" y="902" type="curve"/>
      <point x="365" y="902"/>
      <point x="342" y="881"/>
      <point x="342" y="844" type="curve"/>
      <point x="462" y="844"/>
      <point x="342" y="844"/>
      <point x="462" y="844" type="curve"/>
      <point x="462" y="804"/>
      <point x="437" y="786"/>
      <point x="401" y="786" type="curve"/>
      <point x="364" y="786"/>
      <point x="342" y="805"/>
      <point x="342" y="844" type="curve"/>
      <point x="462" y="844"/>
      <point x="342" y="844"/>
    </contour>
  </outline>
</glyph>
<glyph name="multiply" format="1">
  <advance width="569"/>
  <unicode hex="00D7"/>
  <outline>
    <contour>
      <point x="111" y="63" type="line"/>
      <point x="524" y="492" type="line"/>
      <point x="459" y="558" type="line"/>
      <point x="45" y="129" type="line"/>
    </contour>
    <contour>
      <point x="524" y="127" type="line"/>
      <point x="111" y="555" type="line"/>
      <point x="45" y="490" type="line"/>
      <point x="459" y="61" type="line"/>
    </contour>
  </outline>
</glyph>
<glyph name="Uacute" format="1">
  <advance width="620"/>
  <unicode hex="00DA"/>
  <outline>
    <contour>
      <point x="73" y="722" type="curve"/>
      <point x="73" y="584"/>
      <point x="72" y="410"/>
      <point x="73" y="273" type="curve"/>
      <point x="73" y="97"/>
      <point x="140" y="-5"/>
      <point x="307" y="-5" type="curve"/>
      <point x="477" y="-5"/>
      <point x="547" y="100"/>
      <point x="547" y="280" type="curve"/>
      <point x="547" y="415"/>
      <point x="547" y="586"/>
      <point x="547" y="722" type="curve"/>
      <point x="443" y="722"/>
      <point x="547" y="722"/>
      <point x="443" y="722" type="curve"/>
      <point x="443" y="581"/>
      <point x="443" y="408"/>
      <point x="443" y="267" type="curve"/>
      <point x="443" y="164"/>
      <point x="408" y="93"/>
      <point x="315" y="93" type="curve"/>
      <point x="207" y="93"/>
      <point x="177" y="171"/>
      <point x="177" y="290" type="curve"/>
      <point x="177" y="422"/>
      <point x="177" y="590"/>
      <point x="177" y="722" type="curve"/>
      <point x="73" y="722"/>
      <point x="176" y="722"/>
    </contour>
    <contour>
      <point x="364" y="790" type="line"/>
      <point x="475" y="956" type="line"/>
      <point x="336" y="956" type="line"/>
      <point x="256" y="790" type="line"/>
    </contour>
  </outline>
</glyph>
